<svg xmlns="http://www.w3.org/2000/svg" width="460" height="652" viewBox="0 0 460 652">
    <path d="M1023,650c16.5-4.59,32.9-10.753,47.11-20.488,21.55-14.759,40.67-42.616,34.79-71.583a109.225,109.225,0,0,0-4.35-14.452,100.257,100.257,0,0,1-4.72-16.255c-1.83-10.689.82-23.826,10.89-29.08,3.61-1.885,7.65-2.449,11.57-3,1.88-.263,3.84-0.535,5.69-0.953,19.43-4.376,32.69-24.6,39.42-60.109,5.06-26.658,12.45-55.9,36.44-65.446,16.17-6.434,33.88-1.152,51.01,3.955,18.54,5.53,36.06,10.754,51.75,2.405,14.03-7.466,19.96-22.354,26.23-38.117,3.92-9.851,7.97-20.037,14.2-28.388,5.39-7.223,12.45-13.063,19.28-18.709,7.09-5.862,14.42-11.925,19.75-19.474,15.99-22.667,11.45-53.739,7.46-81.153l-0.32-2.185c-3.71-25.516-5.94-61.768,17.39-81.924,6.42-5.539,14.33-9.344,21.98-13.023,11.14-5.357,21.67-10.418,27.84-20.339,3.95-6.361,5.46-14,6.91-21.391,0.48-2.4.96-4.873,1.53-7.279,3.12-13.3,9.01-25.877,14.7-38.039,0.77-1.649,1.55-3.309,2.32-4.974h2.12q-1.35,2.912-2.69,5.793c-5.66,12.072-11.5,24.557-14.58,37.661-0.55,2.371-1.04,4.831-1.5,7.21-1.49,7.56-3.03,15.377-7.18,22.037-6.46,10.4-17.73,15.818-28.63,21.059-7.54,3.625-15.34,7.374-21.56,12.745-22.62,19.537-20.39,55.12-16.74,80.186l0.31,2.184c4.06,27.771,8.65,59.247-7.79,82.546-5.47,7.758-12.9,13.9-20.09,19.847-6.74,5.575-13.71,11.339-18.96,18.376-6.08,8.148-10.09,18.213-13.96,27.947-6.12,15.393-12.46,31.309-27.11,39.108-16.39,8.72-35.11,3.139-53.21-2.26-16.82-5.013-34.2-10.2-49.74-4.012-23.08,9.187-30.3,37.86-35.26,64.013-6.89,36.336-20.65,57.072-40.9,61.633-1.93.435-3.92,0.713-5.85,0.981-3.92.547-7.62,1.064-10.94,2.8-9.21,4.8-11.6,17.043-9.88,27.042a98.828,98.828,0,0,0,4.63,15.939,110.083,110.083,0,0,1,4.43,14.711c6.05,29.833-13.52,58.441-35.59,73.559-14.58,9.989-31.36,16.253-48.2,20.9V650ZM1051.27,0c-0.01,1.969-.05,3.965-0.14,5.949a0.635,0.635,0,0,1-.67.613,0.619,0.619,0,0,1-.61-0.671c0.09-1.963.13-3.939,0.14-5.89h1.28Zm-0.57,12.393-0.1,1.1c-0.16,1.77-.37,3.56-0.6,5.321a0.658,0.658,0,0,1-.72.555,0.639,0.639,0,0,1-.55-0.721c0.23-1.746.43-3.521,0.59-5.276l0.1-1.088a0.654,0.654,0,0,1,.7-0.585h0.01A0.63,0.63,0,0,1,1050.7,12.393Zm-1.67,12.8c-0.37,2.088-.78,4.184-1.23,6.218,0,0.006-.02.121-0.02,0.128a0.592,0.592,0,0,1-.76.425,0.69,0.69,0,0,1-.47-0.819c0.44-2.027.85-4.1,1.21-6.175a0.642,0.642,0,0,1,.69-0.53,0.293,0.293,0,0,1,.05.007A0.648,0.648,0,0,1,1049.03,25.2Zm-2.99,12.617a20.757,20.757,0,0,1-2.49,4.825c-0.23.328-.48,0.646-0.74,0.956a0.641,0.641,0,0,1-.98-0.828c0.23-.282.46-0.572,0.67-0.87a19.7,19.7,0,0,0,2.33-4.533,0.647,0.647,0,0,1,.66-0.415,0.74,0.74,0,0,1,.17.037A0.651,0.651,0,0,1,1046.04,37.814Zm-22.73-.5a23.18,23.18,0,0,0,3.07,5.432,0.643,0.643,0,0,1-1.01.795A21.871,21.871,0,0,1,1023,39.71V37A0.621,0.621,0,0,1,1023.31,37.31Zm14.47,9.386a0.652,0.652,0,0,1-.38.829,9.779,9.779,0,0,1-4.42.617,9.671,9.671,0,0,1-2.31-.525,0.644,0.644,0,0,1,.44-1.21,8.353,8.353,0,0,0,2.04.459,8.486,8.486,0,0,0,3.8-.544,0.64,0.64,0,0,1,.29-0.038A0.652,0.652,0,0,1,1037.78,46.7Zm10.56,28.4c16.38-3.04,25.26-21.376,25.28-37.086,0.03-12.86-4.21-25.436-8.32-37.6-0.04-.136-0.09-0.276-0.14-0.412h2.04c4.13,12.246,8.38,24.906,8.35,38.014-0.03,16.486-9.45,35.749-26.86,38.978-7.33,1.361-14.8-.413-21.59-5.126a39.361,39.361,0,0,1-4.1-3.295V65.918a38.059,38.059,0,0,0,5.2,4.361C1034.56,74.694,1041.53,76.357,1048.34,75.1Zm35.49-7.272a12.594,12.594,0,0,1-.62-5.366,11.569,11.569,0,0,1,.19-1.311,0.637,0.637,0,0,1,.69-0.519l0.06,0.008a0.64,0.64,0,0,1,.51.754,9.516,9.516,0,0,0-.17,1.189,11.356,11.356,0,0,0,.56,4.824,0.654,0.654,0,0,1-.4.818A0.646,0.646,0,0,1,1083.83,67.823Zm28.57,1.383a11.107,11.107,0,0,0,.02-1.739,13.174,13.174,0,0,0-.15-1.4,0.651,0.651,0,0,1,.54-0.735,0.616,0.616,0,0,1,.16,0,0.648,0.648,0,0,1,.57.54c0.08,0.5.13,1.015,0.17,1.529a12.369,12.369,0,0,1-.03,1.936,7.856,7.856,0,0,1-.96,3.227,0.645,0.645,0,0,1-.88.232,0.652,0.652,0,0,1-.24-0.88A6.5,6.5,0,0,0,1112.4,69.206Zm-12.07,6.025a42.271,42.271,0,0,0,5.09-.429c0.4-.057.8-0.115,1.21-0.185a0.651,0.651,0,0,1,.17-0.007,0.644,0.644,0,0,1,.05,1.274c-0.42.072-.84,0.134-1.25,0.192a43.9,43.9,0,0,1-5.24.442A0.644,0.644,0,1,1,1100.33,75.231Zm-12.6-1.954a0.643,0.643,0,0,1,.45-1.151,0.629,0.629,0,0,1,.33.13,14.077,14.077,0,0,0,5.59,2.44,0.652,0.652,0,0,1,.49.766,0.645,0.645,0,0,1-.77.49A15.342,15.342,0,0,1,1087.73,73.277Zm6.73-22.643a15.9,15.9,0,0,1,2.77.02,17.075,17.075,0,0,1,3.82.824,0.642,0.642,0,0,1-.41,1.218,15.205,15.205,0,0,0-6.07-.78A0.643,0.643,0,0,1,1094.46,50.633Zm11.48,4.145a0.639,0.639,0,0,1,.9-0.1,19.2,19.2,0,0,1,4.38,4.965,0.644,0.644,0,1,1-1.1.67,17.907,17.907,0,0,0-4.08-4.632A0.644,0.644,0,0,1,1105.94,54.778Zm-19.72.317a12.207,12.207,0,0,1,5.46-3.879,0.642,0.642,0,0,1,.27-0.032,0.643,0.643,0,0,1,.15,1.248,10.963,10.963,0,0,0-4.88,3.474A0.644,0.644,0,0,1,1086.22,55.1Zm35.01-3.049a242.188,242.188,0,0,0-12.64-21.275c-4.81-7.5-9.78-15.251-13.71-23.434-1.18-2.452-2.21-4.9-3.12-7.337h2.06q1.23,3.237,2.8,6.5c3.87,8.077,8.81,15.78,13.59,23.229a243.774,243.774,0,0,1,12.74,21.449c1.9,3.775,3.69,7.87,3.88,12.245,0.48,10.66-8.54,19.035-16.42,22.969a95.932,95.932,0,0,1-15.13,5.539,118.463,118.463,0,0,0-12,4.108c-20.64,8.776-36.59,30.178-42.66,57.254-5.49,24.511-3.06,49.9-.71,74.46,0.96,10.062,1.95,20.467,6.22,29.784,1.27,2.777,2.86,5.5,4.39,8.135,2.74,4.684,5.56,9.526,6.79,14.952,1.9,8.454-1.13,17.668-8.11,24.645s-16.19,10-24.62,8.086c-0.53-.12-1.06-0.257-1.58-0.4v-2.014c0.67,0.2,1.33.386,2,.538,7.79,1.761,16.34-1.062,22.84-7.57s9.34-15.051,7.59-22.855c-1.16-5.135-3.79-9.636-6.57-14.4-1.56-2.675-3.18-5.442-4.49-8.307-4.39-9.611-5.41-20.18-6.38-30.4-2.37-24.706-4.81-50.254.75-75.065,6.21-27.681,22.58-49.591,43.79-58.608a120.609,120.609,0,0,1,12.19-4.179,94.442,94.442,0,0,0,14.83-5.42c7.36-3.674,15.79-11.42,15.36-21.155C1124.73,59.5,1123.03,55.63,1121.23,52.046Zm-92.54,31.7a22.492,22.492,0,0,1,3.84,2,0.645,0.645,0,0,1-.69,1.091,20.852,20.852,0,0,0-3.61-1.883,10.657,10.657,0,0,0-2.01-.55,0.644,0.644,0,0,1-.53-0.74,0.637,0.637,0,0,1,.69-0.535l0.05,0.006A11.978,11.978,0,0,1,1028.69,83.746ZM1055,88.093a5.668,5.668,0,0,1,1.42.918,0.654,0.654,0,0,1,.06.908,0.647,0.647,0,0,1-.91.059,4.357,4.357,0,0,0-1.09-.708c-1.19-.525-2.43-0.482-4.33.178a0.643,0.643,0,1,1-.42-1.216,8.4,8.4,0,0,1,3.6-.574A5.4,5.4,0,0,1,1055,88.093Zm-11.21,2.178a0.643,0.643,0,0,1,.17,1.276,11.415,11.415,0,0,1-6.57-1.337,0.643,0.643,0,0,1,.34-1.219,0.656,0.656,0,0,1,.22.061A10.161,10.161,0,0,0,1043.79,90.271Zm15.5,4.86a11.713,11.713,0,0,1-.01,2.134,12.9,12.9,0,0,1-1.27,4.445,0.642,0.642,0,1,1-1.15-.569,11.509,11.509,0,0,0,1.14-4,10.965,10.965,0,0,0,.01-1.9,0.643,0.643,0,0,1,.58-0.7,0.633,0.633,0,0,1,.12,0A0.648,0.648,0,0,1,1059.29,95.131Zm-5.46,11.745a26.16,26.16,0,0,1-5.57,3.493,0.643,0.643,0,1,1-.55-1.163,25,25,0,0,0,5.3-3.317,0.616,0.616,0,0,1,.47-0.147,0.634,0.634,0,0,1,.43.228A0.644,0.644,0,0,1,1053.83,106.876Zm-29.51-.114a39.4,39.4,0,0,1,1.3,6.4,0.644,0.644,0,0,1-.56.714,0.651,0.651,0,0,1-.72-0.563,39,39,0,0,0-1.25-6.193,0.645,0.645,0,0,1,.44-0.8,0.654,0.654,0,0,1,.24-0.023A0.635,0.635,0,0,1,1024.32,106.762Zm17.92,5.141a0.642,0.642,0,0,1,.27,1.195,11.513,11.513,0,0,0-2.88,2.293,10.75,10.75,0,0,0-1.34,1.97,0.639,0.639,0,0,1-.87.255,0.646,0.646,0,0,1-.26-0.873,11.827,11.827,0,0,1,1.51-2.2,12.538,12.538,0,0,1,3.19-2.557A0.616,0.616,0,0,1,1042.24,111.9Zm-16.43,7.8c-0.02.293-.04,0.582-0.07,0.869-0.04.464-.1,0.926-0.16,1.38-0.04.27-.09,0.531-0.13,0.783-0.07.394-.13,0.769-0.16,1.129a2.622,2.622,0,0,0,.31,1.781,0.652,0.652,0,0,1-.22.884,0.641,0.641,0,0,1-.88-0.216,3.962,3.962,0,0,1-.49-2.571c0.03-.39.1-0.8,0.17-1.221,0.04-.243.09-0.494,0.12-0.753,0.07-.434.12-0.873,0.16-1.317,0.03-.275.05-0.552,0.07-0.832a0.64,0.64,0,0,1,.68-0.6l0.02,0A0.642,0.642,0,0,1,1025.81,119.7Zm8.7,2.922a0.654,0.654,0,0,1,.64-0.351,0.689,0.689,0,0,1,.23.066,0.648,0.648,0,0,1,.28.864,12.086,12.086,0,0,1-2.19,3.178,7.537,7.537,0,0,1-2.48,1.674,0.643,0.643,0,1,1-.49-1.189,6.4,6.4,0,0,0,2.06-1.389A11,11,0,0,0,1034.51,122.624Zm-3.92,91.227c0.17,4.306.18,8.694,0.18,12.937,0.01,9.361.02,19.04,1.84,28.327,0.72,3.689,1.75,7.439,2.74,11.069,2.42,8.81,4.92,17.921,3.32,27.026-0.43,2.483-1.7,6.821-5.4,7.977a9.132,9.132,0,0,1-5.06-.2c-1.42-.386-2.85-0.9-4.24-1.392-0.32-.116-0.65-0.229-0.97-0.343v-1.363c0.47,0.163.94,0.329,1.4,0.5,1.37,0.486,2.78.989,4.15,1.361a7.954,7.954,0,0,0,4.34.219c3.04-.952,4.14-4.776,4.52-6.97,1.54-8.821-.92-17.791-3.3-26.465-1-3.651-2.03-7.426-2.76-11.161-1.85-9.41-1.86-19.152-1.87-28.574,0-4.231,0-8.606-.17-12.886a163.915,163.915,0,0,0-6.31-38.847v-4.274c0.33,0.873.62,1.77,0.89,2.684A165.121,165.121,0,0,1,1030.59,213.851Zm8.06,132.919a7.369,7.369,0,0,0,6.34,3.1,7.736,7.736,0,0,0,6.32-3.642l21.93-35.194c3.34-5.37,6.8-10.923,8.37-17.116,4.08-16.16-4.94-30.5-14.49-45.679-5.86-9.311-11.92-18.939-14.89-29.206-9.78-33.809,14.62-66.741,39.78-94.5,5.1-5.628,10.38-11.447,17.23-15.268,16.6-9.262,36.1-4.126,54.96.838,2.51,0.663,5.01,1.321,7.48,1.937,20.02,4.991,46.54,4.217,55.44-14.388,3.46-7.218,3.28-15.241,3.08-23.735-0.17-7.742-.35-15.746,2.51-23.02,4.33-10.991,14.39-17.81,24.12-24.4,3.63-2.459,7.38-5,10.75-7.711A62.575,62.575,0,0,0,1283.46,0h2.19a64.128,64.128,0,0,1-16.87,20.287c-3.43,2.759-7.21,5.323-10.87,7.8-9.49,6.431-19.3,13.078-23.4,23.515-2.72,6.91-2.55,14.717-2.38,22.268,0.19,8.347.38,16.978-3.27,24.613-9.4,19.654-36.93,20.593-57.65,15.425-2.47-.617-4.98-1.276-7.5-1.942-18.49-4.869-37.61-9.9-53.53-1.02-6.58,3.667-11.74,9.367-16.74,14.881-24.8,27.362-48.87,59.768-39.36,92.665,2.9,10.007,8.88,19.517,14.67,28.716,9.77,15.539,19.01,30.218,14.73,47.179-1.64,6.484-5.18,12.168-8.61,17.664l-21.92,35.195a9.664,9.664,0,0,1-7.9,4.548,9.391,9.391,0,0,1-7.97-3.9c-4.16-5.787-8.66-9.311-14.08-11.07V334.8C1029.1,336.616,1034.09,340.422,1038.65,346.77Zm-14.71.782a32.034,32.034,0,0,1,1.87,4.24,9.265,9.265,0,0,1,.47,1.965,0.64,0.64,0,1,1-1.27.163,8.03,8.03,0,0,0-.41-1.695,31.77,31.77,0,0,0-1.6-3.664v-1.218a0.315,0.315,0,0,1,.07-0.057,0.625,0.625,0,0,1,.36-0.072A0.648,0.648,0,0,1,1023.94,347.552Zm36.56,12.366a0.64,0.64,0,0,1-.36.814,0.657,0.657,0,0,1-.84-0.347,3.124,3.124,0,0,0-1.61-1.868,2.859,2.859,0,0,0-2.47.716,0.642,0.642,0,0,1-.81-1,4.242,4.242,0,0,1,3.01-1.086,3.023,3.023,0,0,1,.7.154A4.332,4.332,0,0,1,1060.5,359.918Zm-36.41.256a5.849,5.849,0,0,1-1.09.767v-1.555c0.08-.061.16-0.105,0.24-0.171a0.615,0.615,0,0,1,.48-0.161A0.644,0.644,0,0,1,1024.09,360.174Zm26.53,2.487a0.639,0.639,0,0,1-.42.807,11.923,11.923,0,0,1-4.69.286c-0.58-.056-1.17-0.129-1.76-0.2l-0.2-.025a0.643,0.643,0,1,1,.16-1.277l0.2,0.026c0.58,0.071,1.15.142,1.73,0.2a10.723,10.723,0,0,0,4.17-.233,0.679,0.679,0,0,1,.26-0.026A0.649,0.649,0,0,1,1050.62,362.661Zm-12.75.283a0.638,0.638,0,0,1-.44.793,7.485,7.485,0,0,0-4.7,3.331,0.64,0.64,0,0,1-.87.255,0.647,0.647,0,0,1-.26-0.873,8.767,8.767,0,0,1,5.48-3.951,0.654,0.654,0,0,1,.24-0.022A0.637,0.637,0,0,1,1037.87,362.944Zm23.12,2.85,0.04,0a0.633,0.633,0,0,1,.58.662c-0.01.426-.04,0.853-0.08,1.278a26.825,26.825,0,0,1-.57,3.455c-0.13.584-.28,1.164-0.44,1.741a0.655,0.655,0,0,1-.79.45,0.641,0.641,0,0,1-.45-0.791c0.15-.559.3-1.121,0.43-1.688a26,26,0,0,0,.54-3.289c0.04-.4.07-0.8,0.08-1.2A0.64,0.64,0,0,1,1060.99,365.794Zm-28.25,6.928a29.005,29.005,0,0,0,2.42,4.321c0.24,0.39.49,0.777,0.73,1.159a34.686,34.686,0,0,1,1.8,3.335,0.634,0.634,0,0,1-.3.856,0.646,0.646,0,0,1-.86-0.307,32.476,32.476,0,0,0-1.74-3.207q-0.345-.567-0.72-1.146a29.544,29.544,0,0,1-2.51-4.524A0.638,0.638,0,1,1,1032.74,372.722Zm2.04,18.493c0.88,4.271.41,9.012-1.49,14.922A40.506,40.506,0,0,1,1023,422.845v-2.707a39.328,39.328,0,0,0,8.46-14.591c1.79-5.58,2.25-10.01,1.44-13.942-1.22-5.9-5.24-10.516-9.9-14.72V374.3C1028.43,379.027,1033.34,384.2,1034.78,391.215Zm10.64,25.577a8.643,8.643,0,0,0,1.07-1.438,0.636,0.636,0,0,1,.61-0.306,0.61,0.61,0,0,1,.27.09,0.643,0.643,0,0,1,.22.884,10.194,10.194,0,0,1-1.23,1.646,8.321,8.321,0,0,1-4.16,2.4,0.643,0.643,0,0,1-.31-1.249A7.048,7.048,0,0,0,1045.42,416.792Zm-11.11.906a3.259,3.259,0,0,1-.26-1.772,8.81,8.81,0,0,1,.23-1.246c0.19-.743.42-1.491,0.71-2.289a0.641,0.641,0,0,1,.66-0.425,0.568,0.568,0,0,1,.16.035,0.646,0.646,0,0,1,.39.822c-0.27.76-.49,1.472-0.67,2.177a6.061,6.061,0,0,0-.2,1.048,1.961,1.961,0,0,0,.14,1.092,2.223,2.223,0,0,0,.76.805,0.642,0.642,0,0,1-.72,1.063A3.4,3.4,0,0,1,1034.31,417.7Zm17.9-14.445a0.7,0.7,0,0,1,.17.039,0.641,0.641,0,0,1,.37.83c-0.67,1.751-1.44,3.652-2.43,5.982a0.642,0.642,0,1,1-1.18-.5c0.98-2.314,1.75-4.2,2.41-5.935A0.637,0.637,0,0,1,1052.21,403.253Zm-14.7,3.178a26.989,26.989,0,0,0,1.98-5.949,0.645,0.645,0,0,1,.69-0.523c0.02,0,.04,0,0.06.008a0.634,0.634,0,0,1,.51.749,28.5,28.5,0,0,1-2.06,6.229A0.644,0.644,0,0,1,1037.51,406.431Zm17.57-14.993a0.64,0.64,0,0,1,.69-0.526,0.327,0.327,0,0,1,.05.008,0.648,0.648,0,0,1,.52.748l-0.02.13a59.924,59.924,0,0,1-1.48,6.191,0.646,0.646,0,0,1-1.24-.365,54.952,54.952,0,0,0,1.45-6.053Zm-15.39,2.8a33.589,33.589,0,0,0-1.02-6.222,0.645,0.645,0,0,1,.46-0.784,0.689,0.689,0,0,1,.23-0.018,0.643,0.643,0,0,1,.56.478,37.034,37.034,0,0,1,1.06,6.453,0.646,0.646,0,0,1-.6.688A0.66,0.66,0,0,1,1039.69,394.234Zm18.95-15.136c-0.31,1.054-.54,1.939-0.73,2.786-0.23.984-.43,2.065-0.63,3.4a0.623,0.623,0,0,1-.73.538,0.647,0.647,0,0,1-.54-0.732c0.21-1.37.41-2.481,0.64-3.5,0.2-.874.44-1.784,0.76-2.865a0.649,0.649,0,0,1,.68-0.459A0.642,0.642,0,0,1,1058.64,379.1Zm6.4,0.868c0.84-5.167,1.7-10.509,2.83-15.688A148.73,148.73,0,0,1,1090.9,311.4c0.66-.954,1.34-1.905,2.02-2.858,3.82-5.377,7.78-10.936,9.33-17.281,3.33-13.609-4.37-25.771-12.52-38.647A148.687,148.687,0,0,1,1080.18,236c-12.28-26.618-3.51-61.836,20.4-81.919,22.06-18.534,55.56-24.1,85.33-14.191,2.25,0.75,4.53,1.593,6.73,2.408,6.95,2.576,14.14,5.241,21.52,5.264,16.84,0.054,30.4-12.824,42.85-26.018,3.99-4.228,8.51-9.021,10.33-14.886,1.85-5.946.82-12.113-.27-18.643-0.45-2.7-.92-5.494-1.15-8.244-1.67-19.523,9.3-39.457,26.69-48.473,2.28-1.187,4.7-2.213,7.03-3.2,4.81-2.043,9.36-3.973,13.1-7.253,6.04-5.292,8.64-13.058,9.5-20.837h1.93c-0.88,8.254-3.64,16.571-10.16,22.287-3.97,3.484-8.87,5.565-13.62,7.579-2.3.977-4.68,1.988-6.9,3.139-16.71,8.669-27.26,27.829-25.65,46.6,0.23,2.673.69,5.427,1.13,8.091,1.08,6.465,2.19,13.15.21,19.534-1.96,6.292-6.64,11.257-10.77,15.638-12.74,13.5-26.65,26.679-44.25,26.623-7.72-.031-15.08-2.749-22.19-5.385-2.19-.81-4.45-1.647-6.67-2.387-29.16-9.7-61.92-4.274-83.48,13.839-23.27,19.543-31.81,53.777-19.89,79.631a147.123,147.123,0,0,0,9.43,16.4c8.01,12.651,16.29,25.732,12.77,40.138-1.64,6.7-5.71,12.417-9.64,17.941q-1.02,1.422-2.01,2.842a146.786,146.786,0,0,0-22.73,52.183c-1.11,5.129-1.98,10.445-2.81,15.587-1.98,12.225-4.04,24.866-9.63,36.143-3.72,7.5-8.93,14.193-13.96,20.671-1.99,2.566-4.05,5.219-5.98,7.878A164.125,164.125,0,0,0,1023,468.849v-4.283a164.678,164.678,0,0,1,12.81-20.734c1.95-2.684,4.02-5.35,6.02-7.927,4.97-6.4,10.12-13.023,13.75-20.345C1061.05,404.543,1063.08,392.049,1065.04,379.966Zm38.04-45.895a0.643,0.643,0,0,1,.25,1.2c-2.68,1.5-4.99,1.4-6.69-.239a0.646,0.646,0,0,1,.9-0.926c1.31,1.264,2.99,1.253,5.17.042A0.6,0.6,0,0,1,1103.08,334.071Zm9.12-8.981a0.67,0.67,0,0,1,.33.127,0.651,0.651,0,0,1,.12.9,56.147,56.147,0,0,1-4.21,4.973,0.641,0.641,0,0,1-.92-0.893,53.712,53.712,0,0,0,4.1-4.858A0.647,0.647,0,0,1,1112.2,325.09Zm-17.48,3.367c0.02-.188.04-0.373,0.07-0.555a19.734,19.734,0,0,1,1.69-5.728,0.634,0.634,0,0,1,.64-0.373,0.683,0.683,0,0,1,.21.056,0.653,0.653,0,0,1,.32.852,18.569,18.569,0,0,0-1.59,5.367c-0.02.166-.04,0.333-0.07,0.589a0.6,0.6,0,0,1-.69.536A0.683,0.683,0,0,1,1094.72,328.457Zm10.2-16.087c-1.35,1.565-2.77,3.249-4.03,4.956a0.634,0.634,0,0,1-.89.137,0.641,0.641,0,0,1-.14-0.9c1.28-1.742,2.72-3.448,4.08-5.033a0.643,0.643,0,0,1,.55-0.221,0.663,0.663,0,0,1,.36.153A0.644,0.644,0,0,1,1104.92,312.37Zm16.4-2.305a0.691,0.691,0,0,1,.31.115,0.657,0.657,0,0,1,.15.9,30.674,30.674,0,0,0-2.47,4.494l-0.53,1.075c-0.48.974-1.38,2.523-2.42,4.146a0.647,0.647,0,0,1-.89.2,0.635,0.635,0,0,1-.19-0.889c1.01-1.585,1.89-3.088,2.35-4.021l0.52-1.065a32.5,32.5,0,0,1,2.58-4.679A0.642,0.642,0,0,1,1121.32,310.065Zm13.4-25.146a0.655,0.655,0,0,1,.45-0.129,0.642,0.642,0,0,1,.45.25,28.965,28.965,0,0,1,2.92,4.7c0.15,0.31.3,0.624,0.44,0.941a0.641,0.641,0,1,1-1.17.523c-0.13-.3-0.27-0.6-0.42-0.891a28.01,28.01,0,0,0-2.79-4.491A0.651,0.651,0,0,1,1134.72,284.919Zm-20.45,10.866c0.11-.405.21-0.815,0.29-1.231a24.217,24.217,0,0,0,.35-2.5c0.08-.827.13-1.663,0.18-2.5a0.641,0.641,0,0,1,.68-0.605l0.02,0a0.645,0.645,0,0,1,.58.677c-0.05.853-.1,1.7-0.18,2.548-0.09.986-.22,1.845-0.37,2.629-0.09.445-.19,0.883-0.31,1.316A0.642,0.642,0,1,1,1114.27,295.785Zm11.44,11.387a0.639,0.639,0,0,1,.47-0.781,21.764,21.764,0,0,1,3.88-.5c0.85-.06,1.73-0.12,2.55-0.247a0.637,0.637,0,0,1,.73.537,0.634,0.634,0,0,1-.53.734c-0.88.135-1.79,0.2-2.66,0.259a20.677,20.677,0,0,0-3.66.467A0.645,0.645,0,0,1,1125.71,307.172Zm-17.52.377a0.643,0.643,0,0,1-.09-0.9,45.675,45.675,0,0,0,3.68-5.152,0.636,0.636,0,0,1,.61-0.31,0.7,0.7,0,0,1,.27.088,0.649,0.649,0,0,1,.22.882,45.539,45.539,0,0,1-3.79,5.3A0.638,0.638,0,0,1,1108.19,307.549Zm31.11-10.394a0.638,0.638,0,0,1,.63-0.656,0.41,0.41,0,0,1,.07,0,0.645,0.645,0,0,1,.58.627c0.01,0.414,0,.829-0.03,1.224l-0.02.189a10.251,10.251,0,0,1-1.87,5.035,0.647,0.647,0,0,1-.9.137,0.64,0.64,0,0,1-.14-0.9,8.915,8.915,0,0,0,1.63-4.4l0.64,0.061-0.62-.208C1139.29,297.9,1139.3,297.526,1139.3,297.155Zm-19.49-19.047a5.446,5.446,0,0,0-.44.432,9.841,9.841,0,0,0-2.35,4.8,0.621,0.621,0,0,1-.76.488,0.638,0.638,0,0,1-.49-0.767,11.13,11.13,0,0,1,2.66-5.4,7.25,7.25,0,0,1,.52-0.517,0.652,0.652,0,0,1,.49-0.16,0.626,0.626,0,0,1,.42.213A0.645,0.645,0,0,1,1119.81,278.108Zm5.59-1.5a0.577,0.577,0,0,1,.22.064q0.285,0.137.54,0.277a28.86,28.86,0,0,1,4.94,3.349,0.644,0.644,0,1,1-.83.986,27.178,27.178,0,0,0-4.72-3.2c-0.16-.087-0.32-0.174-0.49-0.258A0.641,0.641,0,0,1,1125.4,276.6ZM1094.89,403.38c4.27-9.1,6.94-19.03,9.53-28.63,1.69-6.29,3.44-12.794,5.63-19.047,4.8-13.687,14.1-31.447,31.21-38.331,1.11-.445,2.25-0.848,3.4-1.252,5.93-2.091,11.54-4.065,12.71-12.129a20.448,20.448,0,0,0-.82-8.808c-3.04-10.063-9.66-18.51-16.07-26.677-4.89-6.233-9.94-12.677-13.49-19.889-10.19-20.7-6.51-47.121,8.94-64.253s41.33-23.494,62.94-15.463c3.76,1.4,7.7,3.2,11.51,4.949,13.07,6,26.59,12.2,37,4.225,5.31-4.065,7.82-10.878,10.24-17.467,2.75-7.471,5.59-15.195,12.53-19.153a33.088,33.088,0,0,1,5.26-2.249,29.112,29.112,0,0,0,5.31-2.322c9.38-5.718,8.91-19.756,5.66-30.039-0.62-1.943-1.31-3.948-1.99-5.886-3.18-9.154-6.46-18.619-3.67-27.9,3.71-12.346,15.84-18.094,27.56-23.653,5.41-2.565,11.01-5.216,15.73-8.484,12.01-8.312,20.65-23.172,23.88-40.923h1.96c-3.27,18.4-12.23,33.854-24.74,42.511-4.85,3.356-10.52,6.042-16,8.639-11.87,5.626-23.08,10.94-26.55,22.466-2.61,8.681.58,17.845,3.66,26.709,0.67,1.951,1.37,3.968,2,5.938,3.46,10.948,3.84,25.969-6.5,32.269a30.787,30.787,0,0,1-5.66,2.49,30.905,30.905,0,0,0-4.95,2.11c-6.34,3.608-8.93,10.668-11.68,18.141-2.52,6.848-5.12,13.929-10.87,18.334-11.34,8.682-25.39,2.233-38.99-4-3.77-1.734-7.68-3.525-11.37-4.895-20.89-7.761-45.91-1.613-60.84,14.946s-18.49,42.1-8.64,62.108c3.45,7.032,8.45,13.4,13.28,19.55,6.51,8.309,13.25,16.9,16.39,27.311a22.246,22.246,0,0,1,.88,9.643c-1.33,9.219-8.05,11.585-13.97,13.672-1.12.394-2.24,0.787-3.32,1.223-16.44,6.613-25.45,23.868-30.11,37.178-2.16,6.186-3.91,12.655-5.59,18.911-2.61,9.681-5.31,19.691-9.64,28.946-5.45,11.627-13.44,21.979-21.16,31.989-8.15,10.555-16.57,21.469-21.9,33.8-6.57,15.18-8.31,32.088-9.99,48.438-0.8,7.827-1.63,15.919-2.98,23.762-2.96,17.2-9.13,31.668-17.61,42.122V581.18c7.5-10.022,12.99-23.483,15.71-39.326,1.34-7.778,2.17-15.837,2.97-23.63,1.69-16.5,3.44-33.555,10.13-49.008,5.43-12.548,13.93-23.559,22.14-34.208C1081.61,425.08,1089.54,414.815,1094.89,403.38Zm106.6-157.64a0.633,0.633,0,0,1-.85.3,58.485,58.485,0,0,1-5.69-3.146,0.643,0.643,0,0,1,.4-1.187,0.614,0.614,0,0,1,.27.093,57.46,57.46,0,0,0,5.57,3.078A0.635,0.635,0,0,1,1201.49,245.74Zm19.05-8.825a32.528,32.528,0,0,1-1.74,5.179c-0.15.352-.31,0.688-0.47,1.007a0.646,0.646,0,0,1-.87.273,0.639,0.639,0,0,1-.27-0.866c0.15-.293.3-0.6,0.43-0.923a31.14,31.14,0,0,0,1.68-4.978,0.635,0.635,0,0,1,.68-0.486,1.013,1.013,0,0,1,.1.016A0.636,0.636,0,0,1,1220.54,236.915Zm-38.97-5.214a15.8,15.8,0,0,0,4.21,3.527c0.98,0.63,2.1,1.4,3.32,2.243l1.18,0.813a0.647,0.647,0,0,1,.17.894,0.654,0.654,0,0,1-.9.167l-1.18-.814c-1.21-.836-2.32-1.6-3.28-2.224a16.748,16.748,0,0,1-4.55-3.839c-0.14-.2-0.28-0.4-0.41-0.6a0.644,0.644,0,0,1,.21-0.886,0.635,0.635,0,0,1,.88.208C1181.33,231.362,1181.45,231.534,1181.57,231.7Zm39.14-6.406a12.686,12.686,0,0,1,.76,5.13,0.644,0.644,0,0,1-.66.624,0.63,0.63,0,0,1-.62-0.663,11.559,11.559,0,0,0-.67-4.61,8.982,8.982,0,0,0-.62-1.225,0.65,0.65,0,0,1,.22-0.883,0.657,0.657,0,0,1,.4-0.089,0.636,0.636,0,0,1,.48.309A10.2,10.2,0,0,1,1220.71,225.3Zm-40.77-.153-0.02.26a0.64,0.64,0,0,1-.68.6,0.136,0.136,0,0,0-.02,0,0.642,0.642,0,0,1-.58-0.683l0.02-.3a13.85,13.85,0,0,1,.38-2.113,14.275,14.275,0,0,1,1.73-3.925,0.635,0.635,0,0,1,.6-0.3,0.662,0.662,0,0,1,.29.1,0.632,0.632,0,0,1,.19.887,13.058,13.058,0,0,0-1.56,3.567A11.334,11.334,0,0,0,1179.94,225.142ZM1215.56,219a0.64,0.64,0,1,1-.84.967,38.179,38.179,0,0,0-5.07-3.77,0.644,0.644,0,0,1,.68-1.094A38.5,38.5,0,0,1,1215.56,219Zm-17.64-6.858a0.66,0.66,0,0,1-.6-0.687,0.645,0.645,0,0,1,.69-0.6l0.49,0.042a24.81,24.81,0,0,1,5.94,1.34,0.648,0.648,0,0,1,.39.822,0.639,0.639,0,0,1-.82.39,23.53,23.53,0,0,0-5.63-1.271Zm-12.67,2.985a0.639,0.639,0,0,1,.17-0.894,19.746,19.746,0,0,1,6.01-2.757,0.623,0.623,0,0,1,.23-0.018,0.642,0.642,0,0,1,.1,1.261,18.546,18.546,0,0,0-5.62,2.575A0.636,0.636,0,0,1,1185.25,215.127Zm28.09,31.455a0.633,0.633,0,0,1,.53.391,0.645,0.645,0,0,1-.34.842,11.325,11.325,0,0,1-6.7.41,0.643,0.643,0,0,1,.26-1.26,10.281,10.281,0,0,0,5.94-.335A0.636,0.636,0,0,1,1213.34,246.582Zm8.45-229c-6.76,8.455-7.2,20.572-7.63,32.29-0.52,13.925-1.05,28.325-12.78,35.427-14.45,8.735-33.11-2.736-45.19-17.983-14.03-17.693-21.83-34.157-23.86-50.332A127.145,127.145,0,0,1,1131.61,0h1.92a126.524,126.524,0,0,0,.71,16.742c1.99,15.814,9.66,31.965,23.46,49.375,11.56,14.585,29.24,25.661,42.68,17.53,10.85-6.561,11.33-19.815,11.85-33.846,0.44-12.031.9-24.471,8.05-33.424,3.41-4.269,8.05-7.254,12.54-10.139A73.236,73.236,0,0,0,1241.54,0h2.81a61.732,61.732,0,0,1-10.49,7.86C1229.3,10.791,1225,13.559,1221.79,17.582ZM1396.09,47.3c-2.63,1.975-5.52,3.831-8.89,4.037a10.3,10.3,0,0,1-7.82-3.123,14.964,14.964,0,0,1-4.4-10.9c0.24-6.889,4.39-12.825,8.41-17.723,1.73-2.1,3.57-4.208,5.34-6.246A134.848,134.848,0,0,0,1399.41,0h2.3a127.371,127.371,0,0,1-11.52,14.615c-1.77,2.029-3.6,4.126-5.31,6.2-3.82,4.647-7.76,10.249-7.97,16.561a13.031,13.031,0,0,0,3.81,9.45,8.381,8.381,0,0,0,6.37,2.579c2.85-.174,5.45-1.86,7.84-3.654,14.71-11.043,24.98-27.74,29.23-45.756h1.97C1421.84,18.619,1411.27,35.9,1396.09,47.3ZM1195.6,14.988c-3.01,5.291-3.61,11.611-4.2,17.722-0.19,2-.39,4.072-0.67,6.083-0.7,5.034-3.38,17.083-13.05,20.264-5.48,1.806-12.18,0-17.07-4.61-3.79-3.567-6.67-8.71-8.79-15.726-3.65-12.038-4.13-24.864-4.56-36.18-0.03-.834-0.06-1.683-0.09-2.54h1.29c0.03,0.84.06,1.673,0.09,2.49,0.42,11.239.9,23.978,4.5,35.857,2.06,6.794,4.82,11.753,8.44,15.16a17.874,17.874,0,0,0,10.39,4.887,13.232,13.232,0,0,0,5.4-.56c8.98-2.955,11.51-14.424,12.18-19.219,0.27-1.983.47-4.039,0.66-6.029,0.6-6.246,1.22-12.7,4.37-18.235,3.56-6.26,9.72-10.242,15.67-14.093,0.13-.086.27-0.173,0.4-0.259h2.35c-0.68.45-1.37,0.9-2.05,1.338C1204.76,5.279,1199.01,9,1195.6,14.988Zm-14.31,3.656a29.391,29.391,0,0,1-.98,7.49c-0.91,2.942-3.36,6.531-7.26,6.966a8.489,8.489,0,0,1-7.66-3.938,16.844,16.844,0,0,1-2.53-8.208c-0.64-7.065.7-14.077,2.56-20.953h1.33c-1.87,6.87-3.24,13.859-2.61,20.836a15.66,15.66,0,0,0,2.31,7.6,7.214,7.214,0,0,0,6.45,3.387c3.08-.344,5.32-3.3,6.19-6.07a28.61,28.61,0,0,0,.92-7.163c0.03-.843.07-1.688,0.13-2.525A42.8,42.8,0,0,1,1184.6,0h1.43a41.8,41.8,0,0,0-4.61,16.155C1181.36,16.981,1181.32,17.812,1181.29,18.644Zm185.23,182.315a0.64,0.64,0,0,1-.21.884,0.655,0.655,0,0,1-.89-0.216,53.153,53.153,0,0,0-3.6-5.228,0.642,0.642,0,0,1,.11-0.9,0.656,0.656,0,0,1,.46-0.134,0.667,0.667,0,0,1,.45.245A53.785,53.785,0,0,1,1366.52,200.958Zm-13.96-12.294h0a0.643,0.643,0,1,1,.12-1.28c1.81,0.172,3.77,1.3,5.84,3.353a0.641,0.641,0,1,1-.9.913C1355.77,189.811,1354.06,188.807,1352.56,188.664Zm-5.58,9.183a0.632,0.632,0,0,1-.73.54,0.645,0.645,0,0,1-.54-0.731q0.24-1.577.54-3.144a16.471,16.471,0,0,1,.93-3.266,0.64,0.64,0,0,1,.65-0.391,0.589,0.589,0,0,1,.19.047,0.639,0.639,0,0,1,.34.843,15.324,15.324,0,0,0-.85,3.008C1347.32,195.78,1347.14,196.814,1346.98,197.847Zm-1.83,13.353a0.631,0.631,0,0,1-.61-0.673c0.11-2.372.25-4.478,0.42-6.442a0.642,0.642,0,0,1,.7-0.585h0a0.644,0.644,0,0,1,.58.7c-0.17,1.947-.31,4.037-0.42,6.392A0.645,0.645,0,0,1,1345.15,211.2Zm24.41-4.495a57.45,57.45,0,0,1,2.38,6.049,0.652,0.652,0,0,1-.41.813,0.642,0.642,0,0,1-.81-0.409,57.218,57.218,0,0,0-2.33-5.916,0.646,0.646,0,0,1,.65-0.909A0.637,0.637,0,0,1,1369.56,206.705Zm-24.17,16.73a0.641,0.641,0,0,1-.66.621,0.629,0.629,0,0,1-.62-0.665c0.05-1.469.09-2.94,0.13-4.41l0.06-2.015a0.644,0.644,0,0,1,.66-0.623,0.269,0.269,0,0,1,.04,0,0.638,0.638,0,0,1,.58.659l-0.06,2.014C1345.48,220.49,1345.44,221.964,1345.39,223.435Zm28.24-4.41a60.619,60.619,0,0,1,1.01,6.421,0.64,0.64,0,0,1-.57.705,0.633,0.633,0,0,1-.7-0.575,60.771,60.771,0,0,0-.99-6.282,0.634,0.634,0,0,1,.49-0.763,0.674,0.674,0,0,1,.2-0.012A0.637,0.637,0,0,1,1373.63,219.025Zm-29.06,17.291a0.644,0.644,0,0,1-.7.571h-0.01a0.644,0.644,0,0,1-.57-0.709c0.06-.484.1-0.971,0.15-1.454,0.15-1.532.27-3.143,0.38-4.924a0.639,0.639,0,0,1,.68-0.6,0.117,0.117,0,0,0,.02,0,0.646,0.646,0,0,1,.58.679c-0.11,1.8-.23,3.421-0.38,4.97Zm30.38-4.379c-0.01,1.693-.1,3.4-0.26,5.062-0.04.475-.09,0.949-0.15,1.425a0.616,0.616,0,0,1-.72.563,0.646,0.646,0,0,1-.56-0.715q0.09-.7.15-1.395c0.16-1.629.24-3.3,0.26-4.949a0.638,0.638,0,0,1,.64-0.639l0.06,0A0.642,0.642,0,0,1,1374.95,231.937Zm-32.7,17.118a0.647,0.647,0,0,1-1.25-.331c0.42-1.58.79-3.141,1.09-4.638,0.11-.529.21-1.058,0.31-1.586a0.64,0.64,0,0,1,.69-0.525c0.02,0,.03,0,0.05.008a0.647,0.647,0,0,1,.52.748c-0.1.536-.2,1.072-0.31,1.608C1343.04,245.862,1342.67,247.45,1342.25,249.055Zm31.14-4.229a51.7,51.7,0,0,1-1.91,6.221,0.636,0.636,0,0,1-.82.376,0.643,0.643,0,0,1-.38-0.828,53.023,53.023,0,0,0,1.86-6.07,0.635,0.635,0,0,1,.68-0.49,0.7,0.7,0,0,1,.09.015A0.645,0.645,0,0,1,1373.39,244.826ZM1337.36,261.7a0.642,0.642,0,0,1-.37-0.831c0.82-2.151,1.54-4.121,2.17-6.023a0.646,0.646,0,0,1,.67-0.436,0.725,0.725,0,0,1,.15.03,0.649,0.649,0,0,1,.4.815c-0.64,1.918-1.36,3.906-2.19,6.076A0.64,0.64,0,0,1,1337.36,261.7Zm31.48-4.71c-0.96,1.86-2.05,3.748-3.26,5.613a0.639,0.639,0,1,1-1.07-.7c1.18-1.828,2.25-3.679,3.19-5.5a0.641,0.641,0,0,1,.63-0.346,0.7,0.7,0,0,1,.24.069A0.647,0.647,0,0,1,1368.84,256.985Zm-12.07,15.054c1.49-1.71,2.81-3.325,4.05-4.939a0.643,0.643,0,0,1,1.02.783c-1.25,1.635-2.6,3.27-4.1,5a0.644,0.644,0,0,1-.91.063A0.653,0.653,0,0,1,1356.77,272.039Zm-24.3,1.552a0.642,0.642,0,0,1-.35-0.842l0.51-1.215q0.99-2.354,1.97-4.713a0.644,0.644,0,0,1,.84-0.35,0.64,0.64,0,0,1,.35.841q-0.975,2.365-1.97,4.721l-0.51,1.214A0.643,0.643,0,0,1,1332.47,273.591Zm15.52,7.768q2.265-2.28,4.47-4.593a0.645,0.645,0,0,1,.53-0.2,0.642,0.642,0,0,1,.4,1.083q-2.205,2.329-4.49,4.614A0.642,0.642,0,1,1,1347.99,281.359Zm-20.64,4.039a0.642,0.642,0,0,1-.32-0.851c0.88-1.954,1.73-3.918,2.58-5.881a0.64,0.64,0,0,1,.65-0.386,0.567,0.567,0,0,1,.19.05,0.642,0.642,0,0,1,.34.845q-1.275,2.954-2.59,5.9A0.646,0.646,0,0,1,1327.35,285.4Zm7.97,10.55c-1.58,1.682-2.98,3.237-4.29,4.753a0.633,0.633,0,0,1-.9.069,0.643,0.643,0,0,1-.07-0.906c1.32-1.532,2.73-3.1,4.33-4.8a0.622,0.622,0,0,1,.52-0.2,0.613,0.613,0,0,1,.38.172A0.645,0.645,0,0,1,1335.32,295.948Zm3.55-5.518q2.265-2.283,4.56-4.542a0.644,0.644,0,0,1,.91,0,0.645,0.645,0,0,1-.01.909q-2.28,2.26-4.55,4.535A0.642,0.642,0,1,1,1338.87,290.43Zm-17.11,6.55a0.639,0.639,0,0,1-.27-0.866c0.93-1.815,1.87-3.694,2.85-5.742a0.633,0.633,0,0,1,.85-0.3,0.65,0.65,0,0,1,.31.858c-0.99,2.061-1.93,3.951-2.87,5.777A0.651,0.651,0,0,1,1321.76,296.98Zm-6.44,11.124a0.635,0.635,0,0,1-.19-0.889c1.1-1.724,2.21-3.566,3.3-5.476a0.649,0.649,0,0,1,.62-0.321,0.669,0.669,0,0,1,.26.081,0.649,0.649,0,0,1,.24.879c-1.1,1.928-2.23,3.789-3.34,5.531A0.647,0.647,0,0,1,1315.32,308.1Zm11.7-2.436c-0.99,1.3-1.93,2.615-2.78,3.9q-0.435.65-.87,1.331a0.639,0.639,0,1,1-1.08-.685c0.29-.463.58-0.917,0.88-1.361,0.87-1.3,1.82-2.636,2.82-3.959a0.644,0.644,0,0,1,.9-0.125A0.651,0.651,0,0,1,1327.02,305.668Zm-40.62,30.106a0.649,0.649,0,0,1,.19-0.893c1.03-.685,2.07-1.358,3.09-2.023,0.78-.5,1.54-1,2.3-1.494a0.632,0.632,0,0,1,.88.185,0.634,0.634,0,0,1-.18.89c-0.75.5-1.52,1-2.3,1.5-1.02.662-2.05,1.332-3.08,2.017A0.655,0.655,0,0,1,1286.4,335.774Zm27.99-7.868c-0.95,1.912-1.92,3.839-2.91,5.752a0.649,0.649,0,0,1-.87.272,0.634,0.634,0,0,1-.27-0.868c0.99-1.905,1.96-3.824,2.9-5.728a0.643,0.643,0,0,1,.64-0.354,0.633,0.633,0,0,1,.22.064A0.64,0.64,0,0,1,1314.39,327.906Zm-10.18-4.77c-1.53,1.55-3.13,3.034-4.75,4.408q-0.7.594-1.47,1.184a0.642,0.642,0,1,1-.78-1.02c0.49-.38.97-0.761,1.42-1.145,1.59-1.351,3.16-2.808,4.67-4.332a0.64,0.64,0,0,1,.52-0.188A0.641,0.641,0,0,1,1304.21,323.136Zm3.46-4.711a0.644,0.644,0,0,1-.08-0.906c1.34-1.585,2.66-3.275,3.94-5.026a0.624,0.624,0,0,1,.57-0.261,0.6,0.6,0,0,1,.32.12,0.64,0.64,0,0,1,.14.9c-1.29,1.774-2.63,3.489-3.98,5.1A0.649,0.649,0,0,1,1307.67,318.425Zm12.51-1.993c-0.85,1.591-1.75,3.351-2.93,5.707a0.643,0.643,0,0,1-1.15-.575c1.18-2.367,2.09-4.138,2.95-5.739a0.64,0.64,0,0,1,.87-0.263A0.642,0.642,0,0,1,1320.18,316.432Zm-38.12,23.19a45.788,45.788,0,0,0-4.81,4.125,0.643,0.643,0,0,1-.91-0.91,47.445,47.445,0,0,1,4.94-4.241,0.658,0.658,0,0,1,.45-0.127A0.645,0.645,0,0,1,1282.06,339.622Zm26.08-1.174a0.65,0.65,0,0,1,.24.879c-1.17,2.015-2.29,3.815-3.42,5.5a0.644,0.644,0,0,1-1.07-.718c1.12-1.663,2.23-3.438,3.37-5.427a0.649,0.649,0,0,1,.62-0.319A0.64,0.64,0,0,1,1308.14,338.448Zm-12.42,15.346a45.139,45.139,0,0,0,4.38-4.58,0.635,0.635,0,0,1,.55-0.228,0.609,0.609,0,0,1,.35.146,0.643,0.643,0,0,1,.08.906,44.932,44.932,0,0,1-4.5,4.712,0.634,0.634,0,0,1-.9-0.048A0.644,0.644,0,0,1,1295.72,353.794Zm-25.04,1.2a0.639,0.639,0,0,1-.57-0.7,13.7,13.7,0,0,1,.67-3,17.052,17.052,0,0,1,1.49-3.292,0.634,0.634,0,0,1,.61-0.317,0.722,0.722,0,0,1,.27.084,0.647,0.647,0,0,1,.23.879A15.941,15.941,0,0,0,1272,351.7a12.428,12.428,0,0,0-.61,2.729,0.647,0.647,0,0,1-.7.575A0.034,0.034,0,0,0,1270.68,355ZM1143.11,412.01c-5.35,16.226-10.87,33-21.82,46.292-5.01,6.08-11.15,11.407-17.08,16.558-10.07,8.73-19.57,16.975-24.4,28.748-5.76,14.027-3.23,29.733-.79,44.922,0.61,3.77,1.23,7.667,1.72,11.46,1.19,9.312,3.39,40.534-18.33,51.328l-0.57-1.152c16.65-8.277,20.02-31.261,17.63-50.012-0.49-3.772-1.11-7.66-1.72-11.419-2.47-15.366-5.02-31.254.87-45.616,4.95-12.055,15.01-20.787,24.74-29.231,5.9-5.116,12-10.406,16.94-16.4,10.8-13.1,16.28-29.763,21.59-45.876,1.12-3.407,2.24-6.807,3.4-10.168,5.66-16.334,15.46-39.273,35.08-49.859,12.18-6.577,26.3-7.522,39.94-8.436,8.88-.594,18.05-1.208,26.67-3.354,42.44-10.574,65.28-54.875,72.49-92.81,1.54-8.089,2.63-16.42,3.68-24.477,1.76-13.447,3.57-27.354,7.54-40.568,4.75-15.826,12.55-30.628,20.1-44.942,7.88-14.958,16.03-30.425,26.31-44.279,7.42-10.008,16.05-19.28,24.4-28.247,8.09-8.691,16.45-17.677,23.69-27.3,6.23-8.3,14.74-21.65,18.92-37.163h1.33c-4.21,15.859-12.88,29.487-19.23,37.937-7.27,9.681-15.66,18.692-23.77,27.407-8.32,8.941-16.93,18.187-24.31,28.137-10.22,13.774-18.35,29.2-26.21,44.112-7.51,14.26-15.28,29-20,44.711-3.94,13.115-5.75,26.968-7.49,40.366-1.06,8.075-2.15,16.425-3.69,24.552-4.13,21.666-12.77,42.446-24.35,58.51-13.25,18.4-30.23,30.606-49.1,35.306-8.73,2.174-17.96,2.792-26.89,3.39-13.51.9-27.48,1.84-39.42,8.283-19.23,10.374-28.88,33.019-34.47,49.149C1145.34,405.217,1144.23,408.61,1143.11,412.01Zm141.46-51.074a0.641,0.641,0,0,1,.42-0.808,27.25,27.25,0,0,0,5.69-2.58,0.644,0.644,0,0,1,.66,1.105,28.353,28.353,0,0,1-5.97,2.7A0.635,0.635,0,0,1,1284.57,360.936Zm-5.05.921a0.639,0.639,0,0,1-.63.652,14.55,14.55,0,0,1-1.55-.062,9.455,9.455,0,0,1-4.92-1.8,0.644,0.644,0,0,1-.1-0.9,0.635,0.635,0,0,1,.56-0.235,0.627,0.627,0,0,1,.34.139,7.9,7.9,0,0,0,4.22,1.521,9.827,9.827,0,0,0,1.43.057A0.64,0.64,0,0,1,1279.52,361.857Zm-221.13,181.69c0.03-2.972.05-5.942,0.11-8.9,0.34-15.323,2.01-32.846,11.82-46.63,4.34-6.093,10.06-11.069,15.58-15.881,5.12-4.451,10.41-9.053,14.51-14.485,10.73-14.186,13.08-33.118,15.34-51.427,2.62-21.115,5.32-42.948,21.14-56.934,9.47-8.377,21.86-12.059,33.83-15.62,4.43-1.317,9.01-2.679,13.36-4.257,14.91-5.411,31.98-17.772,31.01-34.8-0.7-12.184-10.24-22.841-29.18-32.578l-1.98-1.012c-13.24-6.781-28.25-14.469-33.58-28.768-2.86-7.666-1.98-16.606,2.4-24.529s11.5-13.409,19.5-15.049c6.91-1.416,13.89-.339,20.46.882,12.8,2.385,27.26,6.133,37.44,15.849,13.48,12.856,15.4,31.926,15.35,42.149-0.06,11.956-2.47,23.861-4.8,35.374-0.65,3.2-1.3,6.39-1.9,9.587-1.19,6.382-.44,10.415,2.3,12.33,2.23,1.561,5.3,1.229,7.49.676,15.07-3.817,21.91-21.716,22.01-37.761,0.04-5.638-.48-11.421-0.97-17.014-0.92-10.368-1.87-21.088.6-31.4,3.65-15.231,14.21-27.587,24.41-39.536,10.75-12.589,21.87-25.608,24.38-41.719,1.72-11.027-.73-22.75-3.11-34.087-3.29-15.678-6.69-31.89,1.49-45.688,6.52-11.005,18.36-16.631,29.8-22.072,6.33-3.007,12.87-6.118,18.48-10.107C1375.83,22.925,1382.98,12,1386.46,0h1.98c-3.54,12.626-10.99,24.142-21.64,31.72-5.75,4.087-12.37,7.234-18.77,10.278-11.7,5.56-22.75,10.813-28.97,21.314-7.79,13.151-4.62,28.284-1.26,44.307,2.41,11.507,4.9,23.405,3.13,34.78-2.6,16.652-13.9,29.881-24.83,42.676-10.05,11.776-20.45,23.952-23.99,38.732-2.4,10-1.47,20.562-.56,30.774,0.5,5.638,1.01,11.467.98,17.2-0.1,16.788-7.4,35.55-23.47,39.62-2.57.652-6.24,1.013-9.06-.965-5.1-3.558-3.59-11.619-3.09-14.268,0.6-3.205,1.25-6.408,1.9-9.613,2.31-11.422,4.7-23.234,4.76-35,0.05-9.912-1.79-28.385-14.75-40.742-9.82-9.368-23.94-13.016-36.47-15.349-6.37-1.188-13.15-2.234-19.71-.89-7.46,1.528-14.09,6.665-18.2,14.094s-4.95,15.784-2.29,22.919c5.07,13.6,19.1,20.78,32.66,27.727l1.98,1.013c19.6,10.077,29.48,21.258,30.22,34.183,1.04,18.085-16.74,31.085-32.27,36.722-4.4,1.6-9.01,2.967-13.47,4.293-11.77,3.5-23.95,7.121-33.1,15.217-15.27,13.5-17.81,34.011-20.5,55.724-2.3,18.561-4.68,37.755-15.72,52.355-4.23,5.591-9.59,10.26-14.78,14.776-5.44,4.738-11.07,9.638-15.28,15.545-9.51,13.358-11.13,30.523-11.46,45.552-0.06,2.949-.09,5.909-0.11,8.873-0.1,13.082-.2,26.608-4.07,39.311-4.14,13.583-15.33,30.269-33.25,32.664v-1.961c16.86-2.4,27.45-18.3,31.4-31.266C1058.19,569.877,1058.29,556.492,1058.39,543.547Z"
          transform="translate(-1024)"/>
</svg>
