<svg xmlns="http://www.w3.org/2000/svg" viewBox="0 0 784 348">
    <path d="M2808.84,720.813a12.407,12.407,0,0,1-6.22-1.669l-20.99-12.151a3.907,3.907,0,0,1,0-6.751l20.99-12.151a12.455,12.455,0,0,1,12.45,0l20.98,12.151a3.9,3.9,0,0,1,0,6.751l-20.98,12.151A12.416,12.416,0,0,1,2808.84,720.813Zm0-31.053a9.128,9.128,0,0,0-4.56,1.22l-20.98,12.152a0.562,0.562,0,0,0,0,.972l20.98,12.151h0a9.139,9.139,0,0,0,9.13,0l20.98-12.151a0.562,0.562,0,0,0,0-.972L2813.4,690.98A9.074,9.074,0,0,0,2808.84,689.76Zm-60.01-37.9a20.176,20.176,0,0,1-10.12-2.709l-36.11-20.912a5.507,5.507,0,0,1,0-9.534l36.11-20.91a20.229,20.229,0,0,1,20.23,0l36.11,20.91a5.508,5.508,0,0,1,0,9.535l-36.11,20.911A20.188,20.188,0,0,1,2748.83,651.862Zm-8.45-5.6a16.9,16.9,0,0,0,16.89,0l36.12-20.911a2.173,2.173,0,0,0,0-3.756l-36.12-20.911a16.914,16.914,0,0,0-16.9,0L2704.26,621.6a2.171,2.171,0,0,0,0,3.754Zm-637.41,38.508a20.187,20.187,0,0,1-10.12-2.709l-36.11-20.911a5.508,5.508,0,0,1,0-9.535l36.11-20.911a20.229,20.229,0,0,1,20.23,0l36.11,20.913a5.506,5.506,0,0,1,0,9.533l-36.11,20.911A20.188,20.188,0,0,1,2102.97,684.772Zm-0.01-53.439a16.885,16.885,0,0,0-8.45,2.263l-36.11,20.911a2.173,2.173,0,0,0,0,3.756l36.12,20.911h0a16.919,16.919,0,0,0,16.9,0l36.11-20.911a2.172,2.172,0,0,0,0-3.755L2111.41,633.6A16.83,16.83,0,0,0,2102.96,631.333ZM2474.61,803a16.469,16.469,0,0,1-8.13-1.91h0L2171.75,630.428c-2.4-1.392-3.73-3.4-3.73-5.658,0-2.592,1.8-5.121,4.94-6.937l200.9-118.05c5.51-3.192,13.61-3.5,18.43-.7L2687.02,669.74c2.41,1.392,3.73,3.4,3.73,5.658,0,2.592-1.8,5.119-4.93,6.935l-200.91,118.05A21,21,0,0,1,2474.61,803Zm-90.4-302.474a17.92,17.92,0,0,0-8.68,2.145l-200.9,118.051c-2.06,1.192-3.28,2.705-3.28,4.05a3.516,3.516,0,0,0,2.07,2.77L2468.14,798.2h0.01c3.76,2.182,10.67,1.863,15.09-.7l200.9-118.05c2.06-1.193,3.28-2.7,3.28-4.051a3.526,3.526,0,0,0-2.06-2.768L2390.63,501.97A13.135,13.135,0,0,0,2384.21,500.522Zm-139.6,33.463a27.812,27.812,0,0,1-13.96-3.742h0l-51.13-29.605a7.11,7.11,0,0,1,0-12.3l51.12-29.6a27.945,27.945,0,0,1,27.94,0l51.13,29.606a7.109,7.109,0,0,1,0,12.3l-51.12,29.6A27.885,27.885,0,0,1,2244.61,533.985Zm-12.3-6.631a24.625,24.625,0,0,0,24.61,0l51.13-29.6a3.775,3.775,0,0,0,0-6.518l-51.13-29.605a24.611,24.611,0,0,0-24.61,0l-51.13,29.6a3.775,3.775,0,0,0,0,6.518Z" transform="translate(-2054 -455)"/>
</svg>