<svg xmlns="http://www.w3.org/2000/svg" viewBox="0 0 161.84 120.02">
    <path fill="#ed279c" fill-rule="evenodd"
          d="M66.16,120a1.49,1.49,0,0,0,.75-.83c.55-.89.55-1.33,0-1.33a.68.68,0,0,1-.67-.5.64.64,0,0,0-.66-.5c-.56-.22-.5-.56.16-1,.45-.33,1.17-.06,2.17.83s2,1.35,2.65,1.08,1.33-1.36,2-3.24c.44-1.33.89-2.5,1.33-3.49q1.67-3.66,3.66-9.14,2.49-7,7.64-23.6Q89.84,63,91.76,57.77A58.27,58.27,0,0,1,95.66,49a4.07,4.07,0,0,0,.5-1q2-3.15,2-1.66a.48.48,0,0,1-.46.51h-.13a.48.48,0,0,0-.57.37.57.57,0,0,0,0,.13,13.91,13.91,0,0,0,0,3.16,1,1,0,0,0,1.17.66q.33,0,1.08-1.5a5.75,5.75,0,0,0,.74-2.32,2.64,2.64,0,0,1,.67-1.17A70.19,70.19,0,0,0,104,37.9l2.16-6c.34-.89.72-2.1,1.17-3.66s.94-2.77,1.16-3.32a17.07,17.07,0,0,0,1-2.66c.33-1.11.58-1.66.75-1.66s.25-.17.25-.5a4.81,4.81,0,0,1,.74-1.83,2.26,2.26,0,0,0,.42-2,1.56,1.56,0,0,0-.33-.5c-.23-.45-.12-.61.33-.5s.72-.09,1.16-.92a3.53,3.53,0,0,0,.5-2.24c-.11-.78-.06-1.17.17-1.17a9,9,0,0,0,.74-1.08,2.51,2.51,0,0,0,.34-.91.77.77,0,0,0-.09-.66c-.11-.34,0-.5.17-.5s.33-.39.33-1.17a1.73,1.73,0,0,1,.67-1.58,1.35,1.35,0,0,0,.66-1.24,1.07,1.07,0,0,1,.33-1c.23-.11.14-.56-.24-1.33A2.49,2.49,0,0,0,115.28.17c-.12-.11-.23-.09-.34.08a6.65,6.65,0,0,0-.33.58,1,1,0,0,1-1.1.88.59.59,0,0,1-.23-.05,1.73,1.73,0,0,1-1-.16,1,1,0,0,1-.16-.67c.11-.55.11-.83,0-.83A5.5,5.5,0,0,0,111,.5c-.88.44-2.19,1.8-3.9,4.07a30.78,30.78,0,0,0-3.74,6.07c-.45.89-.94,1.77-1.5,2.66a5.43,5.43,0,0,0-.83,2.16,2.36,2.36,0,0,1-.75,1.5,2.48,2.48,0,0,0-.74,1.66,1,1,0,0,1-.59,1.08.93.93,0,0,0-.41,1.16,1.92,1.92,0,0,1-.67,1.75,13,13,0,0,0-1.58,2.66,8.59,8.59,0,0,0-1.08,3c0,.33-.08.5-.25.5A3.45,3.45,0,0,0,94,30.42a4,4,0,0,0-.5,2c.22.33.17.55-.16.66a3.74,3.74,0,0,0-1,1.33,4.22,4.22,0,0,0-.67,1.66,3.6,3.6,0,0,1-.58,1.33q-.59,1-.33,1.17c.17.11,0,.5-.5,1.16a3.07,3.07,0,0,0-.75,1.74,1.41,1.41,0,0,1-.5,1.17,2.47,2.47,0,0,0-.74,1.16q-.26.75-1.08,2.58c-1.56,3.32-2.33,5.37-2.33,6.15a.78.78,0,0,1-.42.83c-.27.11-.69.89-1.24,2.32A10.56,10.56,0,0,1,82,58.18a1,1,0,0,0-.33.91,2.3,2.3,0,0,1-.5,1.42,2.71,2.71,0,0,0-.5,1.66,1.27,1.27,0,0,1-.33,1.16c-.33.11-.89,1-1.66,2.66a10.59,10.59,0,0,0-1.16,3.32,1.75,1.75,0,0,1-.67,1.5,4.47,4.47,0,0,0-1.66,3.66,1.07,1.07,0,0,1-.75,1,1,1,0,0,0-.66,1.16A1.55,1.55,0,0,1,73.39,78,23.39,23.39,0,0,0,71,82.2q-2.08,4.08-3.24,6.73c-1.55,3.55-2.72,5.32-3.49,5.32A2,2,0,0,0,63,94.5c-.16.17-.11.25.17.25s.41.2.41.58.11.58.34.58c.55,0,.28,1.28-.83,3.83a7.46,7.46,0,0,0-.84,2.66,1.68,1.68,0,0,1-.58,1.33,1.48,1.48,0,0,0-.58,1.16c0,.44-.14.66-.41.66s-.31-.38-.09-1.16.22-2,.34-3.49c.1-.66.22-2.38.33-5.15a56.9,56.9,0,0,0,.5-8.15.78.78,0,0,1,.66-.88.84.84,0,0,1,.42,0,6.2,6.2,0,0,1,1.74.5,1.77,1.77,0,0,0,.67.34c.11,0,.16-.17.16-.5-.11-.11,0-.28.33-.5v-.33A.35.35,0,0,1,65.4,86a.28.28,0,0,1,0-.09,2.35,2.35,0,0,0-.83-1.25l-.83-.83.83.34a1.26,1.26,0,0,0,.92.25A.57.57,0,0,0,66,84a1,1,0,0,0-.25-.75.85.85,0,0,1-.08-1.16.92.92,0,0,0-.16-1.25.77.77,0,0,1-.09-1.09.8.8,0,0,1,.17-.15,1.05,1.05,0,0,0,.83-.92.7.7,0,0,0-.5-.74.93.93,0,0,1-.5-.67,1.39,1.39,0,0,1,.5-.83,2.59,2.59,0,0,0,.5-2.49,58.82,58.82,0,0,1,.17-7.15q.49-8.47.66-17.95c0-1.77.11-2.66.33-2.66.44,0,.56,2.72.34,8.14v1.5c0,1.78.27,2.44.83,2,.33-.33.5-.44.5-.33.1.44.19.83.24,1.16a1.58,1.58,0,0,1,0,.75.29.29,0,0,1-.24.25,1,1,0,0,1-.5-.5c-.45-.78-.72.39-.83,3.49,0,2.43.1,3.71.33,3.82s.55-.61.66-2.16a1.87,1.87,0,0,1,.34-1.17,26.87,26.87,0,0,1,.08,4.66c-.06,3.1,0,4.65.25,4.65.44,0,.72-1.44.83-4.32.22-2,.39-3.6.5-4.82s.16-2.55.16-3.66a8.72,8.72,0,0,1,.17-2.16,4.29,4.29,0,0,0,.33-1.91,3.08,3.08,0,0,0-.16-1.41,1.21,1.21,0,0,1,.33-1.66c.22,0,.19-.28-.08-.83a1.16,1.16,0,0,1,0-1.33c.27-.34.3-1.22.08-2.66s-.22-2.22,0-2.33.27-.94.16-2.49a12.1,12.1,0,0,0-.49-3.16,1,1,0,0,1,.08-1.16,2.14,2.14,0,0,0,.08-1.83c-.11-1-.22-2.55-.33-4.66a11,11,0,0,0-.5-4.15l-.5-.67c-.66-.88-1-.94-1-.16,0,.44-.2.58-.59.41a2.55,2.55,0,0,0-.91-.24A.35.35,0,0,1,67.4,27a.28.28,0,0,1,0-.09,1.82,1.82,0,0,0-.92-1.08,1.75,1.75,0,0,1-.58-2,2.18,2.18,0,0,0,0-1.24,1,1,0,0,0-.83-.25h-1.5A3.75,3.75,0,0,1,60.93,21a.66.66,0,0,0-.75-.17c-.28.11-.42,0-.42-.25s-.28-.11-.83.5a4.29,4.29,0,0,1-1.83,1.25,1.72,1.72,0,0,0-1.24,1.08,9.84,9.84,0,0,0-.59,3.08q-.17,2.16-.16,6.81c0,3.22.06,6.32.16,9.31a58.37,58.37,0,0,1,0,6.48q0,1.66.34,12.3c.11,5.88.17,9.09.16,9.64V83.21q0,9.39-.16,16.37,0,9.65.33,12a18.86,18.86,0,0,1,.5,3.82,1.91,1.91,0,0,0,.91,1.83,1,1,0,0,0,1.41-.09c.34-.38.56-.52.67-.41l.17-.33c0-.45.3-.59.91-.42a.74.74,0,0,0,1-.3.9.9,0,0,0,.08-.28q1.15-3.66,2.33-2.16a1.59,1.59,0,0,0,1.16.5q.66,0,.66-1.08a1.65,1.65,0,0,0-1-1.58l-1-.33.83-.17c.67-.22.94-.55.83-1a1.66,1.66,0,0,1,.75-1.5,1.43,1.43,0,0,0,.58-1.66.66.66,0,0,0-.16-.5c0-.22,0-.28.16-.17a1.56,1.56,0,0,0,1,0c.33-.11.42-.42.25-.91a1.74,1.74,0,0,0-.92-1.08l-.49-.17h1a1.66,1.66,0,0,0,1.08,0,3.21,3.21,0,0,0,.75-1,6.46,6.46,0,0,0,.5-1.83,1.74,1.74,0,0,1,.83-1.16l.83-.67-.66,1.17a15.06,15.06,0,0,0-1.17,2.74,25.43,25.43,0,0,1-1.08,2.91,2.35,2.35,0,0,0-.41,1.41c.11.06-.06.33-.5.83a4,4,0,0,0-.83,2.24,3.54,3.54,0,0,1-.5,1.83,3.7,3.7,0,0,0-.5,1.83c-.33,1.66-.78,1.94-1.33.83a.6.6,0,0,0-.77-.38.65.65,0,0,0-.23.13c-.44.28-.47.56-.08.83s.5.56.33.84-.41.19-.74-.25-.5-.53-.5-.25a2,2,0,0,0,.91,1.16q.91.75.42.75c-.67.22-.39.77.83,1.66h0A4.71,4.71,0,0,0,66.16,120Zm-6.07-8.65c0-.55.11-.83.34-.83a.29.29,0,0,1,.33.25.14.14,0,0,1,0,.09,1.76,1.76,0,0,1-.33,1,.64.64,0,0,1-.34-.5h0Zm11.47-13.3a.77.77,0,0,1-.41-.5,1.61,1.61,0,0,0-.92-.74c-.44-.17-.55-.36-.33-.58q0-.16.33-.09a1.47,1.47,0,0,1,.67.42,2.15,2.15,0,0,1,.5.83c.22.45.27.67.16.67ZM63.42,84.94c.11,0,.16.17.16.5s-.11.5-.33.5-.28-.16-.16-.5a.6.6,0,0,1,.33-.49ZM63,84.11c-.28-.22-.47-.19-.58.09s-.25.27-.41,0a.52.52,0,0,1,.12-.72l0,0a.8.8,0,0,1,.83-.17.64.64,0,0,1,.42.67c0,.33-.14.39-.42.17Zm-.58-19.78a.32.32,0,0,1-.09-.45.37.37,0,0,1,.17-.13q.42-.24.42.42c0,.66-.17.72-.5.16Zm6.82-1.82c-.23,0-.28-.2-.17-.59a.53.53,0,0,0-.23-.71l-.1,0c-.34-.11-.34-.34,0-.67.55-.66.83-.33.83,1,0,.67-.11,1-.33,1ZM69.57,54c-.11,0-.17-.17-.17-.5V53c0-.22.06-.22.17,0a1.43,1.43,0,0,1,0,1Zm-2.08-10.3c.28,0,.42.28.42.83s-.14.83-.42.83-.42-.27-.42-.83.14-.83.42-.83Zm30.17,1.33a.54.54,0,0,1,.33-.5q.33-.16.33.33c0,.33-.11.5-.33.5a.3.3,0,0,1-.33-.25v-.08Zm-30.25-2a.93.93,0,0,1-.25-1c0-.55.19-.83.41-.83s.34.34.34,1-.28.83-.5.83Zm.33-3.32c-.11.33-.22.39-.33.17a2,2,0,0,1-.25-1.5c0-.78.19-1.17.41-1.17s.28.5.17,1.5v1Zm-4.49-16a.34.34,0,0,1,.34.34.34.34,0,0,1-.67,0h0a.31.31,0,0,1,.25-.34Zm2,69.15-.34-.34a1.35,1.35,0,0,0-.49-.16h-.17a1.31,1.31,0,0,0,.83.66Zm.49-1.83a2,2,0,0,0-.83-1.41,2.33,2.33,0,0,0-1.49-.75c-.67,0-.61.5.16,1.5q2.16,2.16,2.16.66Zm-2.07-3.33a1,1,0,0,0,.41.84,1.71,1.71,0,0,0,1.25.5c.17-.11,0-.39-.58-.84s-1-.72-1.08-.49Zm5.57-12.13c0,.45.05.67.16.67a.84.84,0,0,0,.33-.67,1.66,1.66,0,0,0-.66-1.5c-.89-1-1.44-1.22-1.66-.66,0,1,.38,1.5,1.16,1.5a.58.58,0,0,1,.67.5.43.43,0,0,1,0,.16Zm19.44-3.82a.71.71,0,0,0-.41.33c-.17.22-.12.33.16.33a.33.33,0,0,0,.41-.24.28.28,0,0,0,0-.09c0-.22-.06-.33-.17-.33Zm-20.77-2a.75.75,0,0,0,.08.75c.17.39.36.5.58.33s.22-.41,0-.74-.56-.45-.66-.34Zm21.27.34a.59.59,0,0,0-.33.58c0,.28.11.33.33.16a.68.68,0,0,0,.33-.58c0-.22-.11-.27-.33-.16ZM68.4,68c-.22-.33-.36-.47-.41-.41a1.72,1.72,0,0,0-.08.75c.1.77.38.94.83.5.22-.22.11-.5-.34-.83h0Zm22.53-2.57a.43.43,0,0,0,0,.6.39.39,0,0,0,.11.06.56.56,0,0,0,.5.17,1.29,1.29,0,0,0-.08-.75c-.23-.33-.42-.36-.58-.08Zm.74-1.91a.3.3,0,0,0,.34-.26.11.11,0,0,0,0-.08c0-.22.16-.27.49-.16a.59.59,0,0,0,.5.08,4.21,4.21,0,0,1,.34-.75c.1-.22.1-.36,0-.41a1,1,0,0,0-.67.08,1.41,1.41,0,0,0-1.33,1.33C91.34,63.45,91.45,63.51,91.67,63.51Zm2.16-3.08a.67.67,0,0,0,.68-.68.2.2,0,0,0,0-.07,1.59,1.59,0,0,1,.5-1.16,1.51,1.51,0,0,0,.5-1.08,1.2,1.2,0,0,1,.58-1,3.78,3.78,0,0,0,1.08-1.91l.66-2c.11-.33.11-.52,0-.58a2.58,2.58,0,0,0-.83-.08h-.5a.45.45,0,0,0-.33.25l-.33.5a3.16,3.16,0,0,0-.33.75c-.34,1.11-.64,1.6-.92,1.5s-.41-.06-.41.16a.31.31,0,0,0,.25.34h.08a.32.32,0,0,1,.34.33.22.22,0,0,1,0,.08c0,.28-.19.42-.58.42s-.53.33-.42,1v2c-.22.56-.49.78-.83.67-.11-.11-.19-.14-.25-.09s0,.14.09.25a1,1,0,0,0,1,.41ZM70.73,26.28a.94.94,0,0,0,.75-.17,1.87,1.87,0,0,0-.08-.91,3.25,3.25,0,0,0-.75-1.42,1.57,1.57,0,0,0-1.08-.66.72.72,0,0,0-.25.66,11.16,11.16,0,0,0-.08,1.42.77.77,0,0,0,.16.74,3.27,3.27,0,0,0,1.33.34ZM67.24,25a.32.32,0,0,0,.09-.45.33.33,0,0,0-.17-.14c-.28-.16-.42-.08-.42.25,0,.78.17.89.5.34Zm-1.5-4.32a.3.3,0,0,0-.25-.34h-.08A3.66,3.66,0,0,1,64.25,20a1,1,0,0,0-.67-.08,2.55,2.55,0,0,0,.5.58c1.11.78,1.66.83,1.66.17Z"/>
    <path fill="#fff" fill-rule="evenodd"
          d="M22.49,94.76q.07.17.18,0a.62.62,0,0,0,.06-.38A.37.37,0,0,1,23,94a.38.38,0,0,0,.31-.36c0-.14.1-.25.37-.33l.48-.08-.09-.54a19,19,0,0,1-.38-4.58c0-.37,0-1.06,0-2.08a5.34,5.34,0,0,1,.13-1.49l.12-.39.07.48a.77.77,0,0,1-.06.56c-.06,0-.07.1,0,.28a2.58,2.58,0,0,1,0,.68.85.85,0,0,0,.1.62l0,.18s-.08,0-.11.08a.38.38,0,0,0,.07.52l0,0c.16,0,.36-.78.62-2.24.09-.67.16-1.08.19-1.23A8.35,8.35,0,0,0,25,83,3.78,3.78,0,0,1,25.17,82c.06-.11.06-.19,0-.22s-.06-.11,0-.24.09-.2,0-.19-.06,0,0-.13a4.66,4.66,0,0,0,.1-1.24c0-.48.08-.74.24-.77s.06-.09-.07-.23a.33.33,0,0,1-.09-.38.76.76,0,0,0,.05-.47.65.65,0,0,1,.31-.72c.11-.06,0-.25-.34-.56-.13-.1-.16-.16-.08-.17a.2.2,0,0,1,.19.09.35.35,0,0,0,.26.08.15.15,0,0,0,0-.18q-.09-.16,0-.18c.2,0,.16-.29-.12-.78a.3.3,0,0,1,.05-.42l0,0a.41.41,0,0,0,.1-.51.45.45,0,0,1,0-.45,1.51,1.51,0,0,0,0-.76.93.93,0,0,1,.11-.84,3.42,3.42,0,0,1,1.29-.37l1.86-.18a2.26,2.26,0,0,0,1.55-.46,1.12,1.12,0,0,0-.11-1.24.8.8,0,0,0-.37-.4,3,3,0,0,0-.74,0,2.13,2.13,0,0,1-1.06-.13,5.7,5.7,0,0,0-1.59-.17,5.26,5.26,0,0,0-1.48.12.51.51,0,0,1-.52,0,2.6,2.6,0,0,0-1.3.06q-1.24.25-1.65.39c-.39.1-.51.26-.35.48s.1.23,0,.25a.15.15,0,0,1-.2-.11s0,0,0,0-.12-.11-.32-.1a2,2,0,0,0-.59.13.49.49,0,0,0-.33.23.28.28,0,0,0,.06.18s0,0,0,0a.13.13,0,0,1,.18,0,.14.14,0,0,1,0,.18l0,0a1.56,1.56,0,0,1-.28.16l-.78.5c-.34.21-.61.4-.85.56a.92.92,0,0,0-.35.3c0,.08,0,.11-.14.09a1,1,0,0,0-.58.34c-.3.21-.64.47-1,.78a1.8,1.8,0,0,0-.67.75.5.5,0,0,1-.31.38.17.17,0,0,0-.15.15c-.07.13,0,.19.14.16s.07,0,0,.16a3.54,3.54,0,0,0-.35.51.79.79,0,0,0-.08.26l.47-.5a8.47,8.47,0,0,1,1.75-1.63c.08,0,.06,0,0,.13s0,.19.15.16c.48-.08.41.16-.19.7a1.09,1.09,0,0,0-.45.62c0,.24.24.19.59-.15a2.06,2.06,0,0,1,.6-.41.78.78,0,0,1,.47-.13,1.55,1.55,0,0,0,.33-.24,3.06,3.06,0,0,1,.61-.4,3.22,3.22,0,0,0,.51-.21c.15-.06.24,0,.26.08a3.8,3.8,0,0,1-.35,1.59c-.06.13-.22.6-.48,1.39s-.41,1.28-.47,1.45a4.36,4.36,0,0,0-.5,1.43c0,.12,0,.18-.06.19a.85.85,0,0,0-.22.5,5.51,5.51,0,0,1-.47,1,1.89,1.89,0,0,0-.32.67,2.43,2.43,0,0,1-.27.59.84.84,0,0,0-.22.56.16.16,0,0,1,.06.17,1.84,1.84,0,0,1-.05.25c0,.09-.07.12-.11.08a2.7,2.7,0,0,0-.75.86,4.06,4.06,0,0,0-.66,1c0,.08,0,.13-.13.14a.9.9,0,0,0-.4.37L14,87.1c-.12,0-.15,0-.09-.17l-.07-.05a1,1,0,0,1-.48.26.47.47,0,0,1-.56-.09.29.29,0,0,0-.36-.12.38.38,0,0,1-.37,0,.28.28,0,0,0-.31-.05,1.75,1.75,0,0,1-1-.25,1.55,1.55,0,0,1-.85-.54,2,2,0,0,0-.58-.54A.83.83,0,0,1,8.82,85a.41.41,0,0,0-.19-.4.54.54,0,0,1-.22-.42,1.55,1.55,0,0,0-.3-.71,6.72,6.72,0,0,1-.84-2.19.54.54,0,0,0-.19-.37c-.08,0-.09-.12,0-.24a.86.86,0,0,0-.06-.7,1.2,1.2,0,0,1-.12-.59,1.3,1.3,0,0,0,0-.73A1.61,1.61,0,0,0,6.73,78c-.08,0-.07-.11,0-.25A2.21,2.21,0,0,0,7,76.27a7.5,7.5,0,0,1,0-1.16,2.53,2.53,0,0,0,0-1s0-.1,0-.16a.17.17,0,0,0,0-.24.37.37,0,0,1,0-.38.23.23,0,0,0,0-.3c-.07-.07-.06-.17,0-.29a.55.55,0,0,0,.06-.53c-.06-.23,0-.36.15-.39a.19.19,0,0,0,.2-.12c0-.06,0-.1-.17-.13a.19.19,0,0,1-.11-.25c0-.15.09-.19.23-.13a1.27,1.27,0,0,0,.33-.6,17.92,17.92,0,0,1,.74-2.57c0-.17.14-.53.25-1.08a2.43,2.43,0,0,1,.33-1,.35.35,0,0,0,.14-.3,1.42,1.42,0,0,1,.2-.64,1.47,1.47,0,0,0,.19-.7A.51.51,0,0,1,9.69,64a5.08,5.08,0,0,0,.35-.7,8.25,8.25,0,0,1,.9-2A10.93,10.93,0,0,1,12.07,60a5.78,5.78,0,0,0,.82-1,.49.49,0,0,1,.29-.29,1.88,1.88,0,0,0,.62-.5,3.19,3.19,0,0,1,.79-.62.35.35,0,0,0,.29-.26.12.12,0,0,1,.1-.14h0a.31.31,0,0,0,.24-.19.39.39,0,0,1,.28-.2,4.92,4.92,0,0,0,1.3-.64,5.82,5.82,0,0,1,1.69-.52,6.51,6.51,0,0,1,2.11-.16,3.5,3.5,0,0,1,2.41.89,3,3,0,0,0,.53.65.93.93,0,0,1,.33.53.69.69,0,0,0,.32.46.57.57,0,0,1,.24.54.56.56,0,0,0,.11.48,1,1,0,0,1,.21.54.63.63,0,0,0,.67.62h.1c.16,0,.24,0,.26.08a.61.61,0,0,0,.49.22l.61.15,0-.18a.3.3,0,0,1,0-.34c.07-.07,0-.21-.13-.43a.63.63,0,0,1-.19-.4,1.23,1.23,0,0,0-.16-1c-.08-.24-.18-.53-.29-.87a1.22,1.22,0,0,0-.28-.57.35.35,0,0,1-.14-.28.84.84,0,0,0-.19-.43c-.1-.13-.26-.33-.47-.63A3.08,3.08,0,0,0,24.7,55l.13,0a.49.49,0,0,1,.29.29.2.2,0,0,0,.18.18,1.11,1.11,0,0,1,.43.57,7.08,7.08,0,0,0,.35.65,6.19,6.19,0,0,1,.71,1.72l.09.23c.14.34.23.26.27-.23a.47.47,0,0,0-.23-.48c-.15-.08-.17-.22,0-.43a.93.93,0,0,0,0-.8,4,4,0,0,1-.21-.7,2.9,2.9,0,0,0-.44-.81,1.35,1.35,0,0,1-.47-1,.2.2,0,0,0,.09-.2c0-.08-.12-.1-.32-.07s-.36-.09-.36-.37a.64.64,0,0,0-.34-.19c-.42-.1-.53-.26-.32-.5a.56.56,0,0,0-.19-.77c-.24-.2-.39-.26-.45-.17-.2.28-.47.26-.81-.05a.7.7,0,0,1-.22-.64.18.18,0,0,0,0-.13c0-.15-.12-.12-.29.11s-.11.06-.14-.1a.32.32,0,0,0-.09-.17c-.08-.23-.16-.25-.25-.08a.24.24,0,0,1-.29.11c-.17,0-.22-.08-.16-.19a.19.19,0,0,0-.05-.26l-.05,0c-.14-.08-.22-.07-.25,0s-.14.17-.25.1a.35.35,0,0,1-.2-.27c-.05-.28-.51-.39-1.4-.32a1.06,1.06,0,0,1-.68-.08,3.43,3.43,0,0,0-1.22-.35,5.47,5.47,0,0,0-1.28,0,.85.85,0,0,0-.25.13.56.56,0,0,1-.49,0c-.2-.07-.3-.06-.3,0s-.11.12-.29.1a.34.34,0,0,0-.37.19c-.06.13-.22.15-.47.07a1.37,1.37,0,0,0-.29-.07.21.21,0,0,0,.06.17c.05.11.05.19,0,.22l-.64.2a1,1,0,0,0-.73.39.32.32,0,0,1-.26.29.58.58,0,0,0-.34.36.74.74,0,0,1-.58.37,2.22,2.22,0,0,0-.95.55.85.85,0,0,0-.37.7.35.35,0,0,1-.17.28.93.93,0,0,1-.43.19.38.38,0,0,0-.31.32.37.37,0,0,1-.29.32.33.33,0,0,0-.26.29.84.84,0,0,1-.44.5l-.25.29a.6.6,0,0,1-.06.19,1,1,0,0,1-.23.28.62.62,0,0,1-.28.17c-.12,0-.15.11-.08.26s0,.24-.08.26a.42.42,0,0,0-.42.43.5.5,0,0,0,0,.12.53.53,0,0,1-.3.42,5.77,5.77,0,0,0-1.21,1.6,1.27,1.27,0,0,0-.16.51c0,.08,0,.09-.08,0s-.14,0-.22.19-.23.53-.47,1.06a6.9,6.9,0,0,0-.4.92,3.77,3.77,0,0,1-.36.76,3,3,0,0,0-.36.79A1.65,1.65,0,0,1,3,64a1.1,1.1,0,0,0-.2.64.34.34,0,0,1-.1.32,1,1,0,0,0-.24.44,4.6,4.6,0,0,1-.19.52,4.07,4.07,0,0,0-.44,1.78,1.25,1.25,0,0,1-.17.49,1.05,1.05,0,0,0-.15.6.71.71,0,0,1-.21.55.73.73,0,0,0-.23.5L.76,71.27a.72.72,0,0,0-.09.2c0,.25,0,.39.1.41s.11.05,0,.09a.32.32,0,0,0-.09.38.72.72,0,0,1-.12.57.43.43,0,0,0,0,.47c.09.15.09.23,0,.24a.51.51,0,0,0-.26.44.49.49,0,0,0,0,.51c.19.13.16.38-.06.74a.87.87,0,0,0-.23.84c0,.08,0,.46,0,1.16a21.3,21.3,0,0,0,0,2.26,23.65,23.65,0,0,0,1,5.53,11,11,0,0,1,.63,2,.55.55,0,0,0,.12.35,1.57,1.57,0,0,1,.73,1.1.73.73,0,0,0,.26.51A.45.45,0,0,1,3,89.3a.25.25,0,0,0,.21.18.32.32,0,0,1,.18.37c0,.2,0,.3.08.29a.74.74,0,0,1,.36.34,1.83,1.83,0,0,0,.48.48.25.25,0,0,1,.14.31c0,.13.06.19.31.19l.19.09c.23.13.23.23,0,.31a.13.13,0,0,0-.05.17l0,0a.38.38,0,0,0,.44,0c.19-.07.29-.07.31,0a.12.12,0,0,1-.07.14h0c-.24,0-.11.24.4.61a1.21,1.21,0,0,0,.72.31.72.72,0,0,1,.2.09s0,.08,0,.11a.42.42,0,0,0,.22,0l.32.07.41.08a2.43,2.43,0,0,0,.47.08,3,3,0,0,0,.95.21.36.36,0,0,1,.33.13,3.94,3.94,0,0,0,.72.34,3.15,3.15,0,0,0,.65.23s0-.07,0-.19.31-.13,1,0a1.31,1.31,0,0,0,.68,0s0-.06,0,0a.29.29,0,0,1,0,.09.15.15,0,0,0,.14.1c.19,0,.28-.11.27-.23s.22-.19.73-.21l.81,0a.65.65,0,0,0,.44-.16l.53-.3a.2.2,0,0,0,.08-.26s.07-.07.23-.1a.29.29,0,0,0,.34-.12c0-.08,0-.12-.07-.1s-.11,0-.08-.11a.1.1,0,0,1,.12-.1h0a.78.78,0,0,0,.66-.32.71.71,0,0,0,.37-.52l.16-.15a.3.3,0,0,0,.28-.17c0-.08,0-.12-.08-.11a2.35,2.35,0,0,1,.89-.88,3.06,3.06,0,0,0,.61-.4,2.8,2.8,0,0,1,.59-.49c.23-.14.36-.17.42-.1s0,.12-.07.13-.12.12-.05.32c.18,1.07.21,1.61.09,1.63s-.09.08,0,.19a.19.19,0,0,1,0,.25.47.47,0,0,0-.06.43.75.75,0,0,1-.09.57c-.16.23-.09.42.22.58a.58.58,0,0,1,.36.36.24.24,0,0,0,.22.21c.21,0,.32-.05.32-.3s.13-.2.35-.11a.85.85,0,0,0,.61,0,.24.24,0,0,1,.31.08.23.23,0,0,1,0,.24A1.74,1.74,0,0,0,22.49,94.76Zm-1-2.28a1,1,0,0,1-.09-.41c-.06-.32-.1-.68-.15-1.08a4.8,4.8,0,0,1,0-.85c0-.2,0,.1.14.9a14,14,0,0,1,.14,1.44ZM11.14,91.9A2.5,2.5,0,0,1,9.81,92a.27.27,0,0,0-.29-.1.46.46,0,0,1-.39-.12.41.41,0,0,0-.3-.14.83.83,0,0,1-.45-.17.63.63,0,0,1-.28-.2,1.6,1.6,0,0,1,.75.12,6.26,6.26,0,0,0,3,.06l.47-.07c.32,0,.37,0,.16.22A3.68,3.68,0,0,1,11.14,91.9ZM9.41,91a1.19,1.19,0,0,0-.58-.15.54.54,0,0,1-.28-.05.87.87,0,0,1-.27-.14.1.1,0,0,1,0-.14h0a1.94,1.94,0,0,1,.83,0,1.16,1.16,0,0,1,.88.31c0,.2-.15.25-.53.15Zm6.48-1.67q.09,0,.06.18a.23.23,0,0,1-.15.21c-.08,0-.11,0-.09-.17A.31.31,0,0,1,15.89,89.35ZM11.26,90a1.29,1.29,0,0,1-.51-.14l-.78-.3a2.07,2.07,0,0,1-.46-.2,2,2,0,0,0-.64-.17.77.77,0,0,1-.59-.24c-.08-.19,0-.21.35-.06a2.45,2.45,0,0,0,1,.14,2,2,0,0,1,1,.2c.36.27.53.26.48,0s.15-.28.52-.39a1.21,1.21,0,0,1,.82,0,.52.52,0,0,1,.11.1.15.15,0,0,1,0,.16.53.53,0,0,1-.21.21,5.2,5.2,0,0,1-.45.29,3.23,3.23,0,0,1-.72.42h0Zm-.87-.81c-.09-.05-.12,0-.11.08a.12.12,0,0,0,.12.13h0c.08,0,.11,0,.11-.08a.27.27,0,0,0-.15-.13Zm6-.22c0,.12,0,.19-.09.2s-.13-.06-.16-.21a.61.61,0,0,1,0-.19s.05,0,.09,0A.24.24,0,0,1,16.41,89Zm-8,.93a.21.21,0,0,1,.14.1s0,.07-.11.08A.11.11,0,0,1,8.32,90v0C8.31,89.89,8.35,89.87,8.43,89.89Zm-.84-.29a.89.89,0,0,1,.39.12c.17.1.22.15.14.16a.64.64,0,0,1-.38-.12c-.18-.09-.23-.14-.15-.16Zm5.19-.81a.35.35,0,0,1-.1-.2c0-.08,0-.07.13,0s.12.16.09.2-.08,0-.12,0Zm-5.52-.11a.2.2,0,0,1,.16-.15,1.24,1.24,0,0,0,.38-.09A.12.12,0,0,1,8,88.5H8a.88.88,0,0,1-.7.18Zm3.16-1a.33.33,0,0,0,.42.14c.15-.06.24-.06.25,0s-.09.12-.29.11a1.84,1.84,0,0,1-.74,0,.78.78,0,0,1-.39-.15.69.69,0,0,0-.48-.35c-.39-.1-.49-.25-.32-.44a.26.26,0,0,1,.24,0,1,1,0,0,1,.33.13.34.34,0,0,1,.15.22.33.33,0,0,0,.15.16.47.47,0,0,0,.26.11.18.18,0,0,0,.18-.06s.11,0,.24.18Zm2.11-.38-.13,0a.26.26,0,0,1,.24,0Zm-5.74.45-.06,0a.24.24,0,0,1,.23,0Zm2-.81a.54.54,0,0,1-.36-.18c-.17-.14-.24-.23-.2-.28s.26,0,.47.29c.1.11.13.16.09.17ZM7.7,86a.48.48,0,0,1-.31-.23.52.52,0,0,1-.2-.3A.29.29,0,0,0,7,85.27a.23.23,0,0,1-.14-.3h0a.19.19,0,0,0-.09-.25h0a.12.12,0,0,1-.1-.13.16.16,0,0,1,0-.07c0-.09.13,0,.3.16a7.51,7.51,0,0,1,.5.65,1.87,1.87,0,0,1,.26.48c0,.12,0,.18-.06.19ZM6.39,83.75s.07,0,.08.11a.1.1,0,0,1,0,.13h0c-.08,0-.1,0-.08-.11a.17.17,0,0,1,.1-.14ZM19.93,81.3s.07,0,.08.11a.12.12,0,0,1-.1.14h0c-.1,0-.14,0-.11-.11a.39.39,0,0,1,.16-.15ZM6,83.08c.06,0,.11.08.14.28a.17.17,0,0,1,.12.19A.16.16,0,1,1,6,83.48a.14.14,0,0,1,.07-.1c-.07-.19-.08-.3,0-.3ZM5.9,82.6c.08,0,.13.05.15.16S6,83,6,83s-.13,0-.15-.16,0-.18.09-.2Zm.93.1a.21.21,0,0,1-.14-.16.24.24,0,0,1,0-.24l.15.16q.09.23,0,.24Zm-1.22-.41a.64.64,0,0,1-.26-.45,3.53,3.53,0,0,0-.24-.76l-.05-.3c0-.29.1-.38.2-.27a2,2,0,0,1,.27.93,1.16,1.16,0,0,1,.08.84h0Zm.62-1.08-.08-.11a.21.21,0,0,1,0-.19h0a.45.45,0,0,1,.05.3ZM1.16,82l-.07-.11a.16.16,0,0,1,.23,0h0Zm24-5.55a1,1,0,0,1-.19.7q-.18.09-.18-1.86c0-1.14-.06-1.83-.1-2.06a.62.62,0,0,1,.19-.58.49.49,0,0,1,.56-.1l.26.08-.1.51a1.24,1.24,0,0,0-.12.57.55.55,0,0,1-.05.31c-.07.29-.12.59-.16.88-.05.66-.09,1.18-.11,1.55ZM5,80.3a3.89,3.89,0,0,1-.25-1.55c0-.12,0-.16.1-.14a1.66,1.66,0,0,1,.26,1.24c0,.29,0,.44-.11.45ZM.78,79.83a.56.56,0,0,1,.28,0A.48.48,0,0,1,.8,80c-.18,0-.28,0-.28,0s.07-.12.26-.11Zm4-1.38a1.92,1.92,0,0,1-.14-.68.92.92,0,0,1,0-.52.32.32,0,0,0,0-.3l-.06-.36.17.28A4.6,4.6,0,0,1,5,78.3c-.1.14-.18.19-.22.15Zm-.15-2v-.06a1.7,1.7,0,0,0,0-.45c0-.18,0-.23.1-.14a.39.39,0,0,1,0,.45.21.21,0,0,1-.09.2Zm0-1s-.06,0-.08-.11a1.06,1.06,0,0,1,.05-.5c0-.17.11-.18.17,0a.52.52,0,0,1,0,.5Zm-4,0c0-.23,0-.33.25-.28s.14.1,0,.23c-.15.32-.25.33-.29.05ZM4.9,73.6a.74.74,0,0,1-.16.7c-.12,0-.14-.1-.06-.35a1.84,1.84,0,0,0,.1-.51l0-.6a1.2,1.2,0,0,1,.16.76Zm0-1.72-.09-.17L5,71.63c.06.12.06.2,0,.25Zm2.47-1.56s0,0,0,.11a.12.12,0,0,1-.07.14h0c-.08,0-.11,0-.08-.11a.57.57,0,0,1,.13-.14Zm0-.62a.82.82,0,0,1,0-.49.88.88,0,0,1,.14-.45.14.14,0,0,1,.17.09.21.21,0,0,1,0,.19.59.59,0,0,0,0,.43c0,.32,0,.4-.27.23Zm.37-1.1c-.08,0-.13-.06-.15-.22l0-.19c.09-.17.15-.18.17,0l0,.24c0,.12,0,.19-.09.2ZM8,67.29c0-.2,0-.31.13-.33s.13.07,0,.24a1.15,1.15,0,0,1-.14.27Zm.41-.86a.3.3,0,0,1-.17.12s0-.09,0-.21l.08-.26c.13-.22.21-.23.24,0a.89.89,0,0,1-.12.39ZM4.63,60.87s.07,0,.08.11a.1.1,0,0,1-.07.13h0c-.08,0-.11,0-.08-.11a.18.18,0,0,1,.1-.14Zm6.49-6.31.26-.29c.27-.32.42-.41.45-.25a.54.54,0,0,1-.31.35Zm.64-1.69.27-.23-.2.28a.49.49,0,0,1-.25.34c-.16,0-.1-.1.18-.4h0Zm.31-.36a.2.2,0,0,1,.17-.12.33.33,0,0,1,.24,0,1.8,1.8,0,0,1,.75-.67,1.18,1.18,0,0,0,.81-.62.33.33,0,0,1,.43-.16c.16.08.25.08.28,0s0-.1-.1-.08-.12,0-.05-.11a.22.22,0,0,1,.25-.14.33.33,0,0,1,.3.14.14.14,0,0,1,0,.2l0,0a1.2,1.2,0,0,1-.49.14,1.22,1.22,0,0,0-.57.28,9.6,9.6,0,0,1-.93.64h0c-.67.43-1,.59-1,.47ZM17,51.77c0-.08,0-.13.16-.15a.24.24,0,0,1,.26.08.2.2,0,0,1-.16.15h0c-.16,0-.24,0-.26-.08Zm-1.7-1.07c-.23-.17-.2-.27.07-.32a.51.51,0,0,0,.34-.17c.07-.1.19-.1.37,0a.23.23,0,0,1,.18.15.51.51,0,0,1-.25.16.69.69,0,0,1-.71.18Zm1.16-.37s0,0,0-.06a.22.22,0,0,1,.16-.09.32.32,0,0,1,.32.07.13.13,0,0,1,0,.09.22.22,0,0,1-.15.06.31.31,0,0,1-.32-.07ZM25.7,78.07a.23.23,0,0,0-.08.23c0,.08.05.1.12,0a.18.18,0,0,0,.09-.2c0-.12-.06-.14-.13-.07Zm-10.25-2a.12.12,0,0,0-.13.12v0c0,.08,0,.11.08.11a.21.21,0,0,0,.1-.14c.06-.1.05-.14-.05-.12Zm-.92-.21a.11.11,0,0,0-.11.11,0,0,0,0,1,0,0c0,.08.08.11.2.09s.15-.07.1-.14a.2.2,0,0,0-.2-.1Zm1.81-.54,0-.19-.22.16a.66.66,0,0,0-.3.41.68.68,0,0,0,.49-.38Zm-1.21-1c-.17.19-.2.28-.08.26a.67.67,0,0,0,.23-.1c.34-.18.41-.31.24-.41a.52.52,0,0,0-.39.25Zm1.5-.94a.48.48,0,0,1,.25-.14.11.11,0,0,0,.13-.11v0c0-.12-.18-.11-.49,0s-.25.18-.07.32a.14.14,0,0,0,.18-.07Zm1.9-1.26a.19.19,0,0,0,.22-.14v0q.06-.19-.18-.15c-.16,0-.23.08-.22.16s-.05.13-.19.15-.17.07-.1.14.14.06.21,0a.22.22,0,0,1,.26-.1Zm.72-.3.21-.16c.36-.3.44-.44.24-.4a.11.11,0,0,0-.11.11,0,0,0,0,1,0,0c0,.08,0,.11-.11.08a.39.39,0,0,0-.24,0l-.22.13c-.08,0-.09.1,0,.13a.23.23,0,0,0,.26.08Zm18,17.12c.06,0,.05-.11,0-.3a.29.29,0,0,1,0-.24.87.87,0,0,1,.4-.19,9.66,9.66,0,0,1,.92-.33c.71-.18,1.4-.4,2.09-.65a1.32,1.32,0,0,0,.25-.16.33.33,0,0,1,.27,0,.37.37,0,0,0,.36-.21.44.44,0,0,1,.3-.23,1,1,0,0,0,.48-.23,1.72,1.72,0,0,1,.48-.26,2.19,2.19,0,0,0,.78-.49.53.53,0,0,1,.47-.11c.13,0,.2,0,.23-.07a.54.54,0,0,1,.46-.17.83.83,0,0,0,.58-.21.54.54,0,0,1,.53-.12.5.5,0,0,0,.27,0c.06,0,.06-.1,0-.22a.36.36,0,0,1,.25-.16c.17-.07.39-.14.66-.23l.82-.23.71-.14a.59.59,0,0,1,.37,0,.2.2,0,0,0,.22,0c.06,0,.06-.08,0-.15a.2.2,0,0,1,0-.28.33.33,0,0,1,.4,0c.18,0,.28,0,.33-.09a1.78,1.78,0,0,1,1-.26l.65-.1q.24,0,.15-.21l-.08-.11c0-.08.14-.12.47-.14s.56,0,.58-.18a.16.16,0,0,1,.16-.18.14.14,0,0,1,.09,0c.15,0,.22,0,.24-.22a.45.45,0,0,1,.36-.39,7,7,0,0,0,1.4-.6c.24-.16.31-.31.2-.46a2.62,2.62,0,0,0-1.18.07,1.69,1.69,0,0,1-1.13,0c0-.1-.12-.13-.32-.1s-.29.09-.28.17-.1.12-.34.12a.45.45,0,0,1-.39-.09.89.89,0,0,1,.24-.41c.17-.21.27-.28.28-.2a.65.65,0,0,0,.29-.11,1.12,1.12,0,0,1,.52-.51l.22-.16c.22-.16.3-.27.25-.34a2.89,2.89,0,0,0-1.3.24,16.9,16.9,0,0,0-2.19.81c-.16.07-.2.06-.13,0a.76.76,0,0,1,.39-.24,12.25,12.25,0,0,0,2.52-1c0-.15-.47-.12-1.33.1-.11.06-.18,0-.2-.12s-.09-.2-.19-.19a.58.58,0,0,0-.3.18.3.3,0,0,0-.15.2l.08.17c0,.12,0,.16-.1.11a.22.22,0,0,1-.1-.26c0-.08-.18-.07-.49,0a10.66,10.66,0,0,1-1.12.25,2.61,2.61,0,0,0-1.43.6c-.11.1-.19.09-.25,0s-.12-.09-.17.06-.16.16-.31,0-.26-.17-.35-.09-.1,0,0-.09a.48.48,0,0,0-.37,0,6.07,6.07,0,0,1-.8.32,21.27,21.27,0,0,0-2.91.9c-.46.16-.93.29-1.4.41a3.43,3.43,0,0,1-.71.14.3.3,0,0,1-.22-.24.65.65,0,0,1-.07-.41.18.18,0,0,1,.16-.15.49.49,0,0,1,.17.34.2.2,0,0,0,.06.14.15.15,0,0,0,.09,0,.49.49,0,0,0,.07-.35.57.57,0,0,1,.11-.42.93.93,0,0,0,0-.73,3.37,3.37,0,0,1-.14-1.05c0-.34.06-.53.18-.55A.22.22,0,0,0,40.6,78c0-.07,0-.11-.05-.11l-.15,0a.83.83,0,0,1-.19-.45c0-.37,0-.65,0-.86s0-.41,0-.61a1.57,1.57,0,0,1,.09-.6c.06-.15.1-.15.12,0s.07.2.15.18l.11-.07c0-.08,0-.23,0-.43q.06-1.17-.12-1.14a.25.25,0,0,0,0,.25,1.11,1.11,0,0,1-.08.44,3.17,3.17,0,0,1,0-1.7l.13-.39V73c0,.16,0,.26,0,.3s.05.08.12,0a.85.85,0,0,0,.09-.22,3.11,3.11,0,0,0,0-.32,2.62,2.62,0,0,0,0-.27.61.61,0,0,0-.08-.3.13.13,0,0,0-.11.12s0,0,0,0l-.11,0a1.27,1.27,0,0,1-.18-1.07,6.44,6.44,0,0,0,.1-.87,1.14,1.14,0,0,1,.09-.6c0-.06,0-.08.06,0a.17.17,0,0,1,.09.23c0,.13,0,.18.09.17s.21-.25.13-.69c0-.16-.09-.19-.19-.09l-.11.08-.11-.29a16.32,16.32,0,0,1,3.69-1,17.52,17.52,0,0,0,2-.33,1.13,1.13,0,0,0,.59-.31.55.55,0,0,0,.26-.44.45.45,0,0,1,0-.36,1.78,1.78,0,0,1,.21-.44c.08-.11.15-.14.2-.09s.06,0,0-.07-.12-.11-.31,0a.44.44,0,0,1-.27.07c-.06,0-.07,0,0-.11a1,1,0,0,1,.3-.24.48.48,0,0,1,.35-.08c.25,0,.3.09.17.27a.16.16,0,0,0,0,.24l0,0c.11,0,.13.12,0,.23s-.05.17.09.14a.27.27,0,0,1,.28.08.81.81,0,0,1-.68-.07c-.14-.1-.22-.13-.26-.08s0,.11.1.2a1.18,1.18,0,0,0,.89.25.56.56,0,0,0,.64-.23,1.08,1.08,0,0,0,.07-.31c0-.08-.07-.06-.17.06s-.27.08-.48-.11a1.33,1.33,0,0,1-.34-.37.33.33,0,0,1,.24-.22.42.42,0,0,1,.39-.07.77.77,0,0,0,.53-.11.47.47,0,0,0,.32-.12.39.39,0,0,0-.07-.23.25.25,0,0,0-.33-.13h0l-.29.05q-.32,0-.21-.15a.5.5,0,0,0-.59.15.2.2,0,0,1-.27.1l-.06,0c-.11-.1-.12-.17,0-.18s.08-.08-.06-.18a.17.17,0,0,1,0-.2.44.44,0,0,1,.19-.19.32.32,0,0,1,.27,0q.48,0-.09-.9a.63.63,0,0,0-.72-.31.5.5,0,0,1,0-.61c.07-.09.08-.13,0-.13a4.79,4.79,0,0,0-.85.05,2.58,2.58,0,0,0-.77.16,6.69,6.69,0,0,1-.9.27,12.88,12.88,0,0,0-1.6.5c-.58.21-1,.37-1.39.47a1,1,0,0,1-.38.09.14.14,0,0,1-.12-.13c0-.13,0-.54,0-1.23l0-.13A44.89,44.89,0,0,1,41.58,57l.15.15a.32.32,0,0,0,.07-.31.64.64,0,0,0-.06-.18s-.06,0-.09,0-.15-.4,0-1.41a1,1,0,0,0,0-.67.39.39,0,0,1,0-.43l.15-.21,0,.3.1.23a.1.1,0,0,0,.09.1h0a1,1,0,0,0,.11-.51.41.41,0,0,1,.09-.35,2.16,2.16,0,0,1,.44-.1.71.71,0,0,0,.56-.15.82.82,0,0,1,.61-.16,1,1,0,0,0,.7-.2.56.56,0,0,1,.54-.12,2.06,2.06,0,0,0,.92-.12c.37-.12,1-.28,1.79-.48a1.8,1.8,0,0,1,1.27-.11.17.17,0,0,1-.11.2h0c-.1,0-.15.06-.13.14s.14.1.4.06a.9.9,0,0,1,.46,0,.34.34,0,0,0,.29-.11c.14-.11.22-.11.24,0s.11.1.28,0a3.1,3.1,0,0,1,.6-.23.5.5,0,0,0,.4-.21.72.72,0,0,0-.78.12c-.1.1-.18.12-.24,0a.31.31,0,0,0-.29-.1,1.23,1.23,0,0,0-.42.07c-.13,0-.2.08-.19.12l-.1.14c-.08,0-.15-.08-.23-.27l-.1-.29,1.19-.19a4.56,4.56,0,0,0,1.35-.35q.21-.15,0-.36a.9.9,0,0,1-.15-.19.28.28,0,0,1,.19-.09.28.28,0,0,0,.22-.19,5,5,0,0,0-.06-.54,2.26,2.26,0,0,0-.35-.83q-.2-.24,0-.39a2.06,2.06,0,0,1,.87-.27A1.68,1.68,0,0,0,53.51,48c.41-.47.46-.77.16-.88s-.26-.18-.23-.27a.4.4,0,0,1,.34-.18.51.51,0,0,0,.34-.17c.06-.1,0-.15-.15-.16s-.15-.06,0-.25.15-.45-.37-.37a.56.56,0,0,1-.36,0,.45.45,0,0,1-.06-.36,1.61,1.61,0,0,1,.15-.6c.06-.11.06-.18,0-.21a.36.36,0,0,0-.27,0,.5.5,0,0,1-.4.13,9.28,9.28,0,0,0-2.57,1.15,7.37,7.37,0,0,1-.74.34,3.29,3.29,0,0,0-.61.34,1.11,1.11,0,0,1-.6.25.16.16,0,0,0-.21.07,1.71,1.71,0,0,1-.68.29,1.37,1.37,0,0,0-.83.53l-.14.27-.28-.2a.47.47,0,0,0-.55-.16,3.1,3.1,0,0,1-.4.13c-.06,0-.06.11,0,.3a.16.16,0,0,1,.05.14.18.18,0,0,1-.13.15l-.34.14a.78.78,0,0,1-.92,0l-.29-.26.07.84-.22-.26a.65.65,0,0,0-.48-.29,4.48,4.48,0,0,1,2.06-.89.84.84,0,0,0,.56-.33c0-.08-.08-.09-.19,0a.25.25,0,0,1-.32-.07h-.06c.07.15.06.23,0,.24a.18.18,0,0,1-.2-.09.9.9,0,0,0-.8-.05c-.23.08-.29.17-.17.27s.12.17,0,.19l-.27,0a.66.66,0,0,0-.2.06l-.29.11a1.57,1.57,0,0,1-.29.08l-.36.06q0-.37-.24-.33a.13.13,0,0,0-.15.13s0,0,0,0,0,.1-.09,0a6.76,6.76,0,0,0-2.19.27,9.8,9.8,0,0,0-2.82.7.71.71,0,0,1-.63.22,2.56,2.56,0,0,0-1.14.37,2.14,2.14,0,0,1-.77.34,1.24,1.24,0,0,0-.52.18l-.35.11.26-.28A.9.9,0,0,1,34,49.5a.39.39,0,0,0,.25-.17.7.7,0,0,0-.43,0,9.58,9.58,0,0,0-1.19.22l-1.59.38a14.77,14.77,0,0,1-1.47.3c-.84.14-1.22.4-1.16.8s.31.4.79.36c.12,0,.21.14.26.48s.05.51,0,.53-.23.08-.22.15a.28.28,0,0,0,.22.21.68.68,0,0,0,.61-.16.67.67,0,0,1,.59-.15.36.36,0,0,0,.39-.07,3,3,0,0,1,.73-.18,3.7,3.7,0,0,1,.81-.07s0,.07-.15.21-.23.2-.28.17l-.08.2q0,.24.39.18a.39.39,0,0,1,.24,0,1.85,1.85,0,0,1-.3.39l.18,0c.12,0,.18,0,.19,0l-1.34.83a8.11,8.11,0,0,0-1.39.83.21.21,0,0,0-.1.14c0,.17.18.11.59-.16a1.12,1.12,0,0,1,.57-.27l-.32.3-.27.23a11.7,11.7,0,0,0,1.76-.47,13.46,13.46,0,0,1,2.18-.48c.24,0,.35,0,.33.13a.33.33,0,0,1-.33.24c-.2,0-.29.1-.28.2s.12.11.32,0a.42.42,0,0,1,.34-.12,1.29,1.29,0,0,1-.7.54,1.12,1.12,0,0,0-.71.55q0,.18,1.08-.12a1.72,1.72,0,0,1,.5-.11c.07,0,.09.1.08.26a.52.52,0,0,0,.14.53q.23.21,0,.36a1.16,1.16,0,0,0-.06.93,6.66,6.66,0,0,1,0,1.61,8,8,0,0,0,0,1.47,9.08,9.08,0,0,1,0,1.38,9.26,9.26,0,0,0,0,1.29c0,.36,0,.75,0,1.16s0,.84-.09,1.3a1.51,1.51,0,0,1-.85,1.54.67.67,0,0,1-.23.1l.44,0a.73.73,0,0,1,.72.16c.05.14,0,.21-.08.23s-.11.14,0,.37.06.38,0,.44a.25.25,0,0,0-.13.32.73.73,0,0,1-.11.48c-.1.16,0,.24.16.25a.68.68,0,0,1,.33.13c.09.07.06.11-.1.14s-.08.13,0,.36a.5.5,0,0,1,0,.46.62.62,0,0,0,0,.5,2.82,2.82,0,0,1,0,.82,19.38,19.38,0,0,0-.07,3A11.45,11.45,0,0,1,35,76.31a4.26,4.26,0,0,0,0,1,.54.54,0,0,1-.17.48l-.11.08s-.05-.09-.05-.3l0-.35a1.55,1.55,0,0,0-.06.8l.06.35a.19.19,0,0,1,.15-.2s.07.06.09.2a4.46,4.46,0,0,1,0,.63c0,.29,0,.61,0,1a1.08,1.08,0,0,1-.19.7.58.58,0,0,1-.07-.41l0-1v-.36l-.08.25a5.51,5.51,0,0,0,0,1.9l0-.13a.12.12,0,0,1,.1-.14h0c.1,0,.14.05.12.19a.21.21,0,0,1-.14.24c-.16,0-.24.29-.24.77s.05.47.11.29a1.28,1.28,0,0,0,0-.55c0-.2,0-.3.07-.32s.12,0,.12.19,0,.53-.09,1.15a1.61,1.61,0,0,1-.15.94c-.24,0-.27.07-.09.2a.17.17,0,0,1,0,.23l-.08,0c-.13.09-.19.1-.2.07s-.12-1.75,0-5.08c0-.29,0-.43-.1-.41s-.13.12-.1.32a5.63,5.63,0,0,1,0,1.23,7.65,7.65,0,0,0-.06,1.17,4.17,4.17,0,0,1,0,.79c0,.37,0,.85-.07,1.42q-.12,1.55-.36,1.59c-.17-.06-.18-.22,0-.49.07-.09.06-.13,0-.12a.53.53,0,0,0-.28.29.34.34,0,0,0-.09.38c.09.07.09.11,0,.12a.17.17,0,0,1-.19-.09.49.49,0,0,0-.51-.13.14.14,0,0,0-.11.11c0,.08-.06.13-.22.16a.28.28,0,0,0-.26.28.53.53,0,0,1-.48.39c-.24.08-.33.17-.3.26a.35.35,0,0,0,.41.09c.16,0,.21,0,.15.16s.32.23,1,.08a4.58,4.58,0,0,1,.82-.25.18.18,0,0,1,.24,0,.81.81,0,0,1,.12.37.58.58,0,0,0,.21.34.9.9,0,0,0,.4,0l.4-.13,0,.6a.88.88,0,0,1-.26.87.44.44,0,0,0-.26.44.2.2,0,0,0,.12.2,1.31,1.31,0,0,0,.34,0,7.77,7.77,0,0,0,.92-.33,6.36,6.36,0,0,1,1-.35.28.28,0,0,1,.34.19h0a.31.31,0,0,0,.2.24Zm-3-2.08-.08-.1c-.1-.35,0-.43.27-.23l.22.21c0,.08-.09.1-.18,0s-.22-.07-.23.1h0Zm17-6.16a.71.71,0,0,1,.14.1.12.12,0,0,1-.12,0,.11.11,0,0,1-.14-.07v0c0-.08,0-.09.12,0Zm-4.14.46-.13,0a.23.23,0,0,1,.23,0Zm2.24-.85-.14-.1a.19.19,0,0,1,.25,0Zm-10.77,1-.09-.17a.12.12,0,0,1,0-.13h0a.45.45,0,0,1,0,.3Zm0-1.47a.48.48,0,0,1-.1-.23l0-.19c0-.15,0-.17,0-.06a.89.89,0,0,1,.08.48Zm-.16-1.38c-.05-.28,0-.42,0-.43s.12.1.12.34c0,.5-.1.53-.17.09Zm0-.68a.39.39,0,0,1-.07-.23.4.4,0,0,1,.07-.35c.07-.07.11-.07.12,0a.82.82,0,0,1-.06.38.31.31,0,0,1-.06.19Zm0-.8-.08-.17.1-.08c.06.12.06.2,0,.25Zm1.37-.59-.05.07-.1-.29a.66.66,0,0,1,0-.55.88.88,0,0,1,.17.28,1,1,0,0,1,0,.5h0Zm-1.27,0a.22.22,0,0,1-.09-.17.12.12,0,0,1,0-.13.45.45,0,0,1,0,.3Zm0-1c0,.41-.06.5-.14.26a9.33,9.33,0,0,1,0-1.4,10.16,10.16,0,0,1,.08-1.23,2.6,2.6,0,0,1,.08,1.27c0,.53,0,.89,0,1.1Zm1.34-1.72c0,.15-.1.11-.17-.13a.53.53,0,0,1-.06-.35c.06-.13.12-.1.2.09a.53.53,0,0,1,0,.39Zm-2.48-.42c-.1.18-.15-.55-.17-2.17,0-.78.05-1.3.05-1.54a.41.41,0,0,1,.33-.48h0a.7.7,0,0,1,.25,0,.24.24,0,0,1,.09.2c0,.12-.07.47-.13,1.06a1.8,1.8,0,0,1-.17.88,4,4,0,0,0-.16,1.61,1,1,0,0,1-.11.45Zm1.14-.68c.1,0,.13,0,.08.11a.23.23,0,0,1-.13.14s-.07,0-.08-.1a.12.12,0,0,1,.1-.14Zm1.21-1.42.1-.13s.06,0,.1.28a.77.77,0,0,1,0,.37c0,.17-.12.14-.2-.09h0a.51.51,0,0,1,0-.42h0Zm.13-1.42L40,70a2.57,2.57,0,0,1,0,.55.31.31,0,0,1,0,.19c0,.12-.06.17-.1.14a1.16,1.16,0,0,1-.14-.47,1.52,1.52,0,0,1,.14-.63Zm-2.2-3a.27.27,0,0,1,.38.06c.06.15-.07.34-.4.55-.11.06-.08.14.1.23s.25.18.22.27a.35.35,0,0,1-.21.22.71.71,0,0,1-.28-.63c-.07-.44,0-.67.19-.7Zm.42-1.57a.67.67,0,0,1-.39.22c-.16,0-.24-.1-.25-.39s.16-1.1.37-2.41.34-2.08.39-2.3a1.42,1.42,0,0,0,.07-.68,1.73,1.73,0,0,1,.12-.78,3.45,3.45,0,0,0,.19-.89,2.29,2.29,0,0,1,.14-.69,5.08,5.08,0,0,0,.19-.86L39.1,56A6.7,6.7,0,0,1,39,57.79c-.11,1.11-.25,2.6-.44,4.47a14.19,14.19,0,0,1-.43,3Zm1.82-2c.07-.07.11-.07.12,0a.67.67,0,0,1-.07.31c-.06.15-.09.17-.11.05a.37.37,0,0,1,.06-.35Zm1-1.71c0,.54-.06,1-.06,1.36a.65.65,0,0,1-.12.57s-.07,0-.08-.14a2.58,2.58,0,0,1,0-.39,1.83,1.83,0,0,1,0-.47,2.8,2.8,0,0,0,0-.71c0-.28,0-.53,0-.73l.19-.34a2.43,2.43,0,0,1,0,.85Zm-.86,1.12L40,62.52l.05-.07a.29.29,0,0,1,0,.24ZM40,62a.85.85,0,0,1,0-.5c.06-.14.11-.12.13,0a1.08,1.08,0,0,1,0,.5Zm-8.62-7.53a.61.61,0,0,1,.28-.16l0,.12a.49.49,0,0,1-.28.17Zm5.87-3a.19.19,0,0,1,.13-.21h0c.14,0,.21,0,.22.08s.06.1.13,0,.12,0,.13,0-.1.14-.34.18-.3,0-.32-.13ZM33,51.8a.09.09,0,0,1,.13.07,0,0,0,0,1,0,0c0,.08,0,.13-.19.15s-.19,0-.17-.09A.36.36,0,0,1,33,51.8Zm.38.06-.08-.11a.19.19,0,0,1,.25,0Zm.63-.22-.08-.11a.12.12,0,0,1,.17,0l0,0Zm1.56-.56a.44.44,0,0,1-.34.12.55.55,0,0,1,.55-.34Zm-.76.18-.08-.11a.29.29,0,0,1,.24,0Zm2.85-.89c-.1-.1-.09-.19,0-.25a1.06,1.06,0,0,1,.46-.2l.25.08c0,.09-.1.12-.23.1s-.17,0-.15.15c0,.28-.07.32-.35.12Zm-.84.14-.06,0a.21.21,0,0,1,.23,0Zm2.75-.82-.2-.09.5-.26a1.76,1.76,0,0,1,.72-.12l-.23.1a.26.26,0,0,0-.17.09.08.08,0,0,0,0,.11h0c0,.24-.18.29-.64.17h0Zm-8.08,1.07-.13,0a.29.29,0,0,1,.24,0ZM33.06,50c.08,0,.09,0,0,.11a.45.45,0,0,1-.1.14s0,0,0-.12A.1.1,0,0,1,33,50Zm8.73-1.18c-.28,0-.27,0,0-.19l.13,0a.19.19,0,0,1-.16.15Zm-1.94.07-.13,0a.29.29,0,0,1,.24,0ZM42,48.2l-.14-.1a.18.18,0,0,1,.25,0h0Zm2.07-.83a.11.11,0,0,1,.13.08v0a.12.12,0,0,1-.09.14h0a.11.11,0,0,1-.14-.06v0a.1.1,0,0,1,0-.13Zm5.79-.82a.24.24,0,0,1,.09-.22c.07-.08.11,0,.14.1s0,.21-.09.22a.1.1,0,0,1-.13-.06.06.06,0,0,1,0,0ZM34.34,83.48l.15-.21-.08-.1a.2.2,0,0,0-.09.2ZM46.9,79.55c.24,0,.35-.1.34-.18s0-.06-.1-.05a1.75,1.75,0,0,0-.32.12Zm-12.8-.92c.12,0,.18-.19.16-.51a5.34,5.34,0,0,0,0-.8A.43.43,0,0,0,34.2,77,9.34,9.34,0,0,0,34,78a2.68,2.68,0,0,0,0,.49h0Zm.62-1.87a.29.29,0,0,0,0-.24l0,.07Zm-.34-.92c0-.25,0-.36-.12-.35a.12.12,0,0,0-.1.13.06.06,0,0,0,0,0,1.09,1.09,0,0,1,0,.36c0,.15,0,.22.09.2s.12-.14.12-.38Zm.34-.18a.2.2,0,0,1,0-.13l-.09-.17a.4.4,0,0,0-.11.45c.09.51.14.46.16-.15Zm.05-2,.07-.32a3.13,3.13,0,0,0,0-.61l0-.23,0,.24a1.62,1.62,0,0,0,0,.62Zm6-2.7c0-.12-.05-.17-.09-.17l-.08.26a.42.42,0,0,0,0,.49.59.59,0,0,0,.15-.58Zm-5.94,1.46a.26.26,0,0,0,0-.24l0,.07ZM35,71a1.2,1.2,0,0,0,0-.5l-.12,0a1.06,1.06,0,0,0,0,.5l0,.24Zm14.61-7.51c.15-.07.18-.14.08-.23a.63.63,0,0,0-.5-.07.36.36,0,0,0-.2.06s0,.07.11.14a.81.81,0,0,0,.51.1Zm-1.2-.23c-.14-.1-.2-.07-.17.09a.2.2,0,0,0,.17.21h0c.11,0,.17,0,.16-.08a.47.47,0,0,0-.21-.21Zm-6.53-7.44a.87.87,0,0,0,.21-.43.8.8,0,0,0,.06-.53c0-.08,0-.11-.08-.11s-.25.2-.26.66a.58.58,0,0,0,.07.41Zm-9.76.49v.06a3,3,0,0,1,.65-.17c.27,0,.4-.12.38-.24s-.29-.18-.76.18a2.61,2.61,0,0,0-.28.17Zm10.65-8.58c.24,0,.36,0,.34-.11s-.12-.12-.32-.1a.35.35,0,0,0-.34.14Zm26,34.46a.22.22,0,0,1,.19-.12.89.89,0,0,0,.43-.22,1,1,0,0,1,1-.23c.08,0,.1,0,0-.12a.18.18,0,0,1,0-.13c.1-.14.2-.14.31,0a.26.26,0,0,0,.21,0,.88.88,0,0,0,.3-.2.63.63,0,0,0,.2-.28l-.07,0a.11.11,0,0,1-.16,0l0,0a.52.52,0,0,1,.47-.08c.13,0,.17-.09.13-.32a.2.2,0,0,1,.17-.09.16.16,0,0,0,.16-.16.43.43,0,0,0,0,0c0-.12.09-.18.34-.18s.36-.06.34-.17a.29.29,0,0,1,.13-.3c.11-.08.12-.16,0-.22l.18,0a.2.2,0,0,0,.14-.06s0-.06,0-.11-.07-.09,0-.11.07,0,.17.06.23,0,.41-.25a.79.79,0,0,0,.26-.47.1.1,0,0,1,.07-.13h0a2.36,2.36,0,0,0,.76-1A4.18,4.18,0,0,0,75.54,76a.6.6,0,0,1,.24-.41,4.85,4.85,0,0,0,.59-1.07,3.73,3.73,0,0,0,.4-1.1.13.13,0,0,1,.1-.15h0a1.41,1.41,0,0,0,.38-.85,3.62,3.62,0,0,1,.31-.91,2.29,2.29,0,0,0,.27-.62c.12-.37.27-.79.43-1.27a2.1,2.1,0,0,0,.24-.77,1.87,1.87,0,0,1,.18-.61,2.32,2.32,0,0,0,.19-.73.58.58,0,0,1,.14-.42.31.31,0,0,0,.07-.35l0-.07c.12,0,.2-.15.22-.52a2.23,2.23,0,0,1,.13-.85.78.78,0,0,1,.45-.65c.18,0,.2-.08.07-.14s-.13-.16,0-.3.16-.21.06-.2S80,64,80,63.88a.86.86,0,0,0-.14-.47c-.12-.2-.11-.32,0-.34a3.25,3.25,0,0,0,.42-1.53,9.65,9.65,0,0,0,.11-2.34.82.82,0,0,1,.09-.57,1.73,1.73,0,0,0,0-1c-.12-.51-.12-.77,0-.79a3.84,3.84,0,0,0,.06-1.51,2.66,2.66,0,0,0-.25-1.52c-.08,0-.1,0,0-.11A6.63,6.63,0,0,0,80,52a7.66,7.66,0,0,1-.16-1.59,1.25,1.25,0,0,0-.34-.56,2.39,2.39,0,0,1-.49-1.17,4,4,0,0,0-.33-1.07,5.17,5.17,0,0,1-.42-1.07,1.3,1.3,0,0,0-.33-.71c-.44-.17-.61-.37-.52-.58s.1-.1.24,0,.15.07.18,0a.76.76,0,0,0-.3-.38c-.19-.17-.25-.28-.18-.34s.14-.12.09-.2a.15.15,0,0,0-.18,0,.45.45,0,0,1-.42,0,.28.28,0,0,1-.06-.36.26.26,0,0,0,0-.21,1.32,1.32,0,0,0-.34,0,1.43,1.43,0,0,1-.61-.17.44.44,0,0,0-.38-.09c-.14,0-.2,0-.18-.16s0-.13,0-.15a.28.28,0,0,0-.18.06.78.78,0,0,1-.65-.08.66.66,0,0,0-.53-.1.15.15,0,0,1-.15.06.1.1,0,0,1,0-.09s0-.08-.08-.1c-.23-.13-.38-.1-.48.07s-.07.15-.14.06a1.13,1.13,0,0,0-.83,0,5.48,5.48,0,0,1-1.51.09,2.77,2.77,0,0,0-2,.51,3.17,3.17,0,0,1-.76.43.46.46,0,0,0-.28.17c-.08.1-.14.08-.16,0l-.11.08c-.06.13-.1.14-.11,0s-.06-.1-.12,0a.23.23,0,0,0,0,.27.12.12,0,0,1,0,.17l0,0a.4.4,0,0,1-.54.18l0,0c-.13-.06-.17,0-.11.08s0,.17,0,.19a1.29,1.29,0,0,0-.38.12l-.34.18a.2.2,0,0,0-.13.14.3.3,0,0,1,0,.34.23.23,0,0,0-.05.28.17.17,0,0,1,0,.1.27.27,0,0,1-.15.05.47.47,0,0,0-.33.42.49.49,0,0,1-.26.41c-.12,0-.15.09-.1.2a.17.17,0,0,1,0,.21,3.54,3.54,0,0,1-.16.34.57.57,0,0,1-.26.25.23.23,0,0,0-.14.27.17.17,0,0,1-.11.2h0c-.1,0-.13.06-.07.13a3.09,3.09,0,0,1-.8,1.32,2.54,2.54,0,0,1-1,1.06.51.51,0,0,0-.48.07,1.16,1.16,0,0,1-.66.26q-.33,0-.36-.15a.16.16,0,0,0-.16-.16h0c-.12,0-.13.12,0,.31a.18.18,0,0,1,.12.13.27.27,0,0,1-.15,0,.35.35,0,0,0-.4.13.51.51,0,0,0-.17.46.25.25,0,0,1-.15.23.28.28,0,0,0-.14.27.25.25,0,0,1-.2.25.71.71,0,0,0-.34.57.68.68,0,0,1-.22.5c-.08,0-.11.09-.09.23a.32.32,0,0,1-.28.32.34.34,0,0,0-.27.41c0,.2,0,.3-.17.3s-.2.06-.18.18,0,.18-.09.2-.1.12-.07.32a.28.28,0,0,1,0,.18.16.16,0,0,1-.18.06.15.15,0,0,0-.16.09.9.9,0,0,0,0,.4,1,1,0,0,1-.08.66.33.33,0,0,1-.33.2s-.08,0-.09,0a.82.82,0,0,0,0,.27q.06.42-.15.42a.18.18,0,0,0-.19.15.2.2,0,0,0,0,.09,2,2,0,0,1,0,.25,1.4,1.4,0,0,1-.1.35c0,.11-.08.22-.13.33a1.63,1.63,0,0,1-.11.23,1.32,1.32,0,0,0,0,.56.65.65,0,0,1-.12.57.36.36,0,0,0-.09.38,1.37,1.37,0,0,1-.1.69,2.51,2.51,0,0,0-.15.94,1.61,1.61,0,0,1-.1.69,12.47,12.47,0,0,0-.17,2.2c0,1.33-.07,2.38-.06,3.16a5.25,5.25,0,0,0,.12,1,.23.23,0,0,0,.3.13c.29,0,.32.19.08.48a.38.38,0,0,0-.18.42.3.3,0,0,0,.29.29.76.76,0,0,1,.37.74A17.28,17.28,0,0,0,57.36,76a16,16,0,0,0,2,3.53,1.92,1.92,0,0,1,.41.67,3.31,3.31,0,0,0,.79.7,2.81,2.81,0,0,0,.88.56c.12,0,.1,0-.07.13a.58.58,0,0,1-.61,0,1,1,0,0,0-.54-.16,2.77,2.77,0,0,1-1.06-.65A4.66,4.66,0,0,1,58,79.66a6,6,0,0,1-.87-1.57c0-.16-.07-.24-.15-.22a.45.45,0,0,0-.41.31.51.51,0,0,0-.14.45q.24.39.36,0c0-.09,0-.12-.07-.11a.11.11,0,0,1-.14-.07v0c0-.08,0-.1.17-.06a.23.23,0,0,1,.17.28h0a.27.27,0,0,0,.17.31.32.32,0,0,1,.18.34c0,.16.08.25.28.25a.32.32,0,0,1,.26.09,1.16,1.16,0,0,1-.07.31c-.13.43,0,.68.31.75.12,0,.15.07.08.17a.21.21,0,0,0,.08.11.2.2,0,0,0,.13,0,.38.38,0,0,1,.38.06.37.37,0,0,0,.28.2.26.26,0,0,0,.28-.11l.08.11a.51.51,0,0,0,.31.41,6.94,6.94,0,0,0,1.32.55l.46.23c-.12,0-.11.06,0,.12a6.75,6.75,0,0,0,2.72-.2l.89-.15c.17,0,.22.07.15.16a.31.31,0,0,0,0,.19c0,.16.39.18,1.23,0a2,2,0,0,0,1.12-.42q.06-.2.18,0a.44.44,0,0,0,.53.06c.28-.08.42-.07.44,0h0Zm.83-.93a1.18,1.18,0,0,1-.46.2l-.24,0s0,0,.1-.14a.26.26,0,0,0,.07-.31c-.06-.16.18-.28.74-.37a1.11,1.11,0,0,0,.68-.48,1.13,1.13,0,0,1,.63-.46.62.62,0,0,1,.27,0s0,.09-.09.2a3.27,3.27,0,0,1-.44.47,5.56,5.56,0,0,1-.65.53,1.39,1.39,0,0,1-.38.25.32.32,0,0,0-.23.09Zm2.15-1.63c-.1,0-.15-.06-.13-.22a.25.25,0,0,1,.14-.27c.08,0,.1,0,.08.11h.06L72,79.2l.17,0a.29.29,0,0,1-.09.2.71.71,0,0,1-.34.3Zm-6.56.67a1.31,1.31,0,0,0-.43.16.67.67,0,0,1-.57,0,.49.49,0,0,0-.41,0c-.2,0-.27,0-.22-.21,0-.37.15-.47.38-.31a.23.23,0,0,0,.3,0,2,2,0,0,1,1-.06,1.15,1.15,0,0,1,.37,0q.93.09,0,.36l-.39.1ZM67,79.7a.09.09,0,0,1,.13.07,0,0,0,0,1,0,0c0,.08,0,.13-.19.15s-.19,0-.16-.1A.3.3,0,0,1,67,79.7ZM72.36,79l.09-.2c.14-.18.16-.3.06-.37a.18.18,0,0,1,0-.1.12.12,0,0,1,.08,0,1.2,1.2,0,0,0,.59-.52,21.77,21.77,0,0,0,2-3,2.24,2.24,0,0,1,.39-.77.4.4,0,0,0,.17-.3,1.8,1.8,0,0,1,.28-.69,8.3,8.3,0,0,0,.53-1.27,5.33,5.33,0,0,1,.41-1c.16,0-.12.78-.83,2.4a22.65,22.65,0,0,1-2.32,4.17A12.58,12.58,0,0,1,72.36,79h0Zm-10,1.2s.07,0,.08.11a.11.11,0,0,1-.07.14h0c-.08,0-.1,0-.08-.11a.18.18,0,0,1,.1-.14Zm-1.15-.66c-.13-.06-.18-.13-.15-.19s.12,0,.25,0Zm4-2.18c-.44,0-.67,0-.69-.13s-.12-.1-.32-.07-.31,0-.33-.13-.26-.24-.71-.25a.42.42,0,0,1-.19-.06,1.42,1.42,0,0,1-.28-.2,1.48,1.48,0,0,1-.26-.3.62.62,0,0,1-.14-.28c-.08-.23-.21-.64-.38-1.22A27.78,27.78,0,0,1,61,71a17.34,17.34,0,0,1-.33-3.37A7.66,7.66,0,0,1,61,65.22l.18.34,0,.5a1.83,1.83,0,0,0,.08.84q.66,4.84.87,5.76a1.67,1.67,0,0,0,.55,1.1.62.62,0,0,0,.73,0,1.84,1.84,0,0,0,0-1.16,2.53,2.53,0,0,0-.38-1.22.25.25,0,0,1-.08-.29.75.75,0,0,0,0-.26c0-.16,0-1-.19-2.5s-.22-2.31-.24-2.43a4,4,0,0,1,.1-1.24,1.63,1.63,0,0,0,0-.54,3.53,3.53,0,0,1-.07-1,8.26,8.26,0,0,1,.08-1,27.72,27.72,0,0,1,.24-2.88c.14-1,.3-1.91.48-2.68a3.93,3.93,0,0,1,.53-1.43l.2-.27-.1.5a24.34,24.34,0,0,0-.7,4c-.18,1.66-.28,3.1-.31,4.33s.06,1.79.25,1.67A4.25,4.25,0,0,0,63.39,64c.11-.84.18-1.33.22-1.48s.1-.5.19-1.07a16.29,16.29,0,0,1,.37-1.65,4,4,0,0,0,.22-.92,7.39,7.39,0,0,1,.84-2.33,2.84,2.84,0,0,0,.17-.49,6.32,6.32,0,0,1,.32-.82,6.33,6.33,0,0,0,.37-.94,2.34,2.34,0,0,1,.37-.76,5.47,5.47,0,0,1,.41-.65,1.9,1.9,0,0,0,.28-.69A7.1,7.1,0,0,1,67.89,51c.42-.6.7-1,.86-1.3A4.11,4.11,0,0,1,70.07,48a1.69,1.69,0,0,0,.49-.39.75.75,0,0,1,.1-.32c.07-.17.26-.2.56-.09.65.22.86.37.62.45l.21.15a.3.3,0,0,1,.35.24.53.53,0,0,1,0,.13c0,.25,0,.36.2.33a.35.35,0,0,1,.37.16c.08.13.08.22,0,.27a.28.28,0,0,0-.06.38.46.46,0,0,0,.47.29l.19,0c.09,0,.09.07,0,.12a.27.27,0,0,0-.09.35.6.6,0,0,0,.34.4c.13.06.14.15,0,.27s-.1.19,0,.21a.28.28,0,0,1,.2.25.4.4,0,0,0,.29.31c.18.08.25.16.22.24a.26.26,0,0,0,.11.26.46.46,0,0,1,.07.45,1.25,1.25,0,0,0,.42,1.09.12.12,0,0,1,.06.16.08.08,0,0,1,0,.05c-.09.08,0,.15.18.22s.28.14.19.21-.07.17.05.27a.19.19,0,0,1,.07.26s0,0,0,0a.5.5,0,0,0,.12.53.57.57,0,0,1,.17.46c-.06.05,0,.13.13.23a.22.22,0,0,1,.1.29l0,0a.25.25,0,0,0,0,.33,6.91,6.91,0,0,1,.17,2.17,4.65,4.65,0,0,0,.08,1.24.37.37,0,0,1-.11.42.82.82,0,0,0-.18.64,2.21,2.21,0,0,1,0,.77,1,1,0,0,0,0,.5.62.62,0,0,1-.08.44.85.85,0,0,0,0,.7q.15.4.06.42a1.56,1.56,0,0,0-.28.72,3.26,3.26,0,0,0-.16.88,1,1,0,0,1-.14.45,1,1,0,0,0-.13.54.26.26,0,0,1-.07.29.24.24,0,0,0,0,.31c.06.15.06.23,0,.24s-.09.09,0,.22a.2.2,0,0,1-.07.28l-.06,0a.51.51,0,0,0-.3.42.6.6,0,0,1-.12.41,2.6,2.6,0,0,1-.27.38.23.23,0,0,1-.26.1.32.32,0,0,0,0,.19.73.73,0,0,1-.25.56,4.31,4.31,0,0,0-.62,1.23,14.54,14.54,0,0,1-1.52,2.69,1,1,0,0,1-.47.5.67.67,0,0,1,.14-.45.56.56,0,0,0,.14-.45.51.51,0,0,0-.37.13.39.39,0,0,0-.29.29,1,1,0,0,1-.48.47,1.2,1.2,0,0,0-.47.45.65.65,0,0,1-.35.3,3.7,3.7,0,0,0-.71.54.67.67,0,0,1-.41.28.2.2,0,0,0-.21,0l-.27.2-.27.23a.61.61,0,0,0-.18.24c-.06.13-.18.16-.38.09s-.3,0-.32.12-.16.21-.42.19a.61.61,0,0,0-.51.11h0a.74.74,0,0,1-.69.23Zm6.64-4.26a1.05,1.05,0,0,0,.27-.44.35.35,0,0,0,0-.34s-.11,0-.2.09a2.8,2.8,0,0,0-.25.35.85.85,0,0,0-.11.26c0,.16.12.19.26.08Zm-8.66-6.66-.08-.11a.2.2,0,0,0-.09.2c0,.24.1.21.17-.09Zm0-.61q.15-.21,0-.18a.21.21,0,0,0-.15.21A.19.19,0,0,0,63,66s.05,0,.08,0a.16.16,0,0,0,.1-.14ZM71,74.54c.08-.06.12,0,.13,0a.18.18,0,0,1-.09.2c-.07,0-.11,0-.13,0a.22.22,0,0,1,.09-.21Zm6.31-4.45c-.06.17-.09.2-.11.08a.51.51,0,0,1,.13-.33l.07,0Zm.41-1.23-.27.59a7.77,7.77,0,0,1,.24-1c.15-.54.28-1.1.38-1.65l.15-.94a.63.63,0,0,0,.08-.23.65.65,0,0,1,.09-.23c.07-.3.21-1.44.42-3.43.07-.58.17-1.31.31-2.19a19.76,19.76,0,0,0,.12-3.44,1.07,1.07,0,0,1,0-.56l0,.3a17.53,17.53,0,0,1,.11,2.4,16,16,0,0,1-.11,2.5c-.14.92-.23,1.62-.27,2.12a36.45,36.45,0,0,1-1,4.5,10.58,10.58,0,0,1-.35,1.22h0ZM56,71l-.09-.17.05-.07A.24.24,0,0,1,56,71Zm1-1.3a.2.2,0,0,0-.09.25h0q.09.14,0,.15c-.2,0-.33-.62-.38-2-.07-1.65.06-2.51.38-2.56.08,0,.13.08.16.28v.36c0,.16,0,.19-.11.08s-.17-.09-.21,0,0,.2.1.2.1.06,0,.18a4.13,4.13,0,0,0,0,1.75s-.05.06,0,.18a3.24,3.24,0,0,0,.07.39.76.76,0,0,0,.11.32h0c.11.15.1.26,0,.34ZM61,65a.44.44,0,0,1,0-.37c0-.25.08-.31.12-.17a.86.86,0,0,1,0,.39c0,.21-.1.26-.16.15Zm-2-.54a3,3,0,0,1-.24.59l.5-3.32a8,8,0,0,0,.17-.82,6.08,6.08,0,0,1,.24-1.2.71.71,0,0,1,.1-.14c.06-.33.14-.47.24-.41a.24.24,0,0,1,0,.34h0c-.1.12-.12.19-.06.22s0,.19-.13.48a1.21,1.21,0,0,0-.19.74,1.19,1.19,0,0,1-.06.59.59.59,0,0,0-.06.37.53.53,0,0,1,0,.35,2.76,2.76,0,0,1-.06.4q-.06.35-.09.6a7.56,7.56,0,0,1-.32,1.22Zm1.82-1a.52.52,0,0,1-.23.1c-.08,0-.12,0-.13-.07a2.9,2.9,0,0,1,.12-.57q.14-.48.3-1a.92.92,0,0,1,.18-.43,1.35,1.35,0,0,1,0,.66c0,.45-.08.69-.22.71s-.15.07,0,.13a.26.26,0,0,1,.14.28.61.61,0,0,1-.16.16Zm-.49-5.3a.12.12,0,0,1,.14.08v0a.12.12,0,0,1-.09.14h0a.09.09,0,0,1-.13-.07,0,0,0,0,1,0,0,.1.1,0,0,1,.06-.13h0Zm-2.1-1.25s0,.08,0,.25a.47.47,0,0,1-.14.27s0-.08,0-.25a.4.4,0,0,1,.14-.26Zm6.44-4.77c.07,0,.09,0,0,.11a.26.26,0,0,1-.18.16c-.08,0-.11,0-.08-.11a.31.31,0,0,1,.22-.15Zm14-2.89a.1.1,0,0,1,.13.07,0,0,0,0,1,0,0c0,.08,0,.12,0,.13a.42.42,0,0,1-.17-.1C78.67,49.24,78.68,49.2,78.76,49.18ZM65.27,50.76c.12,0,.1.07,0,.26a1.33,1.33,0,0,1-.29.29s0-.08,0-.25a.47.47,0,0,1,.32-.29Zm-2.39.39a.51.51,0,0,1-.16.09c-.16,0-.16-.06,0-.25s.31-.31.34-.12a.33.33,0,0,1-.2.28Zm.55-.94a.12.12,0,0,1,.16.06s0,0,0,0,0,.12,0,.13a.4.4,0,0,1-.2-.09c0-.08,0-.12.07-.14ZM59.52,82c.08,0,.1,0,0-.07a.35.35,0,0,0-.26-.08l.08.11h0ZM57,79.37c.09.07.13,0,.1-.14a.38.38,0,0,0-.24-.32l-.12,0c-.2,0-.18.09,0,.3l.21.14Zm-.68-1.54a.14.14,0,0,0,0-.2l0,0a.34.34,0,0,0-.19-.09c-.08,0-.07.12,0,.3s.13.13.19,0Zm.16-.88a.35.35,0,0,0,0,.28.44.44,0,0,0,.12.35.29.29,0,0,0,.22.06c.19-.07.19-.24,0-.49a.35.35,0,0,0-.28-.2Zm0-.91a1.12,1.12,0,0,0-.12-.35,1.05,1.05,0,0,0-.2-.27c-.07-.07-.12-.08-.16,0a.77.77,0,0,0,0,.37,2.54,2.54,0,0,1,.14.47c.21,0,.32-.06.34-.18ZM56,74.7a.17.17,0,0,0-.1-.2c-.09,0-.12,0-.09.17s.1.24.19,0ZM55.91,74c.13.06.19,0,.16-.15a.31.31,0,0,0-.16-.24.14.14,0,0,0-.19,0,.4.4,0,0,0,.05.3.19.19,0,0,0,.14.1h0Zm22.94-4.4a.16.16,0,0,0-.1.14c0,.09,0,.12.08.11a.1.1,0,0,0,.1-.11v0c0-.07,0-.11-.08-.1Zm-23,3.74a.44.44,0,0,0,0-.43,3.08,3.08,0,0,0,0-.61.08.08,0,0,0,0-.11h0c-.07-.19-.17-.13-.28.17s0,.28.08.32.12.13,0,.24a.3.3,0,0,0,0,.34.28.28,0,0,0,.19.09Zm0-1.7c0-.12-.06-.18-.12-.17a.29.29,0,0,0-.16.15.1.1,0,0,0,0,.15l0,0c.19.18.27.12.22-.15Zm5.34-20.55a.3.3,0,0,0-.11-.29.63.63,0,0,0-.28-.2.34.34,0,0,0,.13.46h0c.14.1.22.1.25,0Zm.57-.64c0-.09.12-.12.28-.11l.18,0c.2-.07.16-.15-.09-.23a1.73,1.73,0,0,0-.68,0,.46.46,0,0,0-.4.19.23.23,0,0,0,.15.27h0c.27.12.44.09.54-.08Zm.58-.74c.25-.06.37-.15.35-.27s-.06-.38-.06-.42a.21.21,0,0,1,.24-.17h0c.17,0,.22,0,.16-.14a.25.25,0,0,1,.07-.32.3.3,0,0,1,.29-.11c.05,0,.08,0,.1,0s0-.06,0-.09q-.27-.51-.9.45a1.93,1.93,0,0,1-.69.67c-.12,0-.12.12,0,.3a.38.38,0,0,0,.47.08Zm1.43-1.91.17-.09c.25-.2.33-.36.23-.47s-.14,0-.16.12a.44.44,0,0,1-.4.22l-.18,0c-.11,0-.11.06,0,.12a.71.71,0,0,0,.32.07Zm.9-.88a.22.22,0,0,0-.14-.26.38.38,0,0,0-.33,0c-.22.12-.18.23.12.35s.33,0,.35-.12Zm.28-.9c-.07.09,0,.17.1.23a.21.21,0,0,0,.28-.06v0c.06-.11,0-.18-.09-.2a.21.21,0,0,0-.3.05ZM87.55,80.7q0-.18.36-.24a.8.8,0,0,0,.49-.2,11.55,11.55,0,0,0,0-2.2c-.23-4.44-.27-6.72-.13-6.82a8.23,8.23,0,0,0,.15-2.1,3.88,3.88,0,0,1,0-.9.51.51,0,0,0,0-.4s0-.23,0-.58a8.1,8.1,0,0,1,.16-1.1,3.55,3.55,0,0,1,.17-.64,26,26,0,0,1,3.49,2.3c1.33.92,2.14,1.47,2.41,1.63a7.55,7.55,0,0,0,.77.6,1.09,1.09,0,0,0,.53.28c.08,0,.13,0,.15.16a.15.15,0,0,0,.08.11.24.24,0,0,1,.29.08.44.44,0,0,0,.38.12.3.3,0,0,1,.32.25.22.22,0,0,0,.09.17.09.09,0,0,0,.12,0,.07.07,0,0,1,.09,0,.14.14,0,0,1,0,.08.22.22,0,0,0,.16.25.5.5,0,0,1,.24.36l.07,0,.09-.2a.3.3,0,0,1,.23.27c0,.16.09.22.21.21s.16,0,.12.16,0,.18.24.14a.26.26,0,0,1,.19,0,.15.15,0,0,1,0,.17l.07.11s.12,0,.25.18a.63.63,0,0,0,.47.26c.18,0,.26.08.24.2a1.64,1.64,0,0,0,1.11.77,1.73,1.73,0,0,0,1.38.23c.16,0,.15.08,0,.31s-.12.38.12.34a.29.29,0,0,1,.32.13.66.66,0,0,0,.38.28,2,2,0,0,0,.54.12.5.5,0,0,0,.36-.05.2.2,0,0,0,.08-.26h0a.32.32,0,0,0-.37,0,.51.51,0,0,1-.16.09c-.08,0-.11,0-.08-.11a.6.6,0,0,0,.07-.32.06.06,0,0,0,0-.06h0a.5.5,0,0,1,0-.12s.05,0,.17.13.21.16.26.11.12,0,.2.09a.44.44,0,0,0,.45.11,1.66,1.66,0,0,1,.85.16l.46.23.18-.4a1,1,0,0,1,.53-.51,1,1,0,0,0,.42-.43c.13-.23,0-.32-.23-.27-.12,0-.12-.14,0-.49a2.73,2.73,0,0,0,.14-.63,3.15,3.15,0,0,0-1-.85,7.26,7.26,0,0,0-1.22-.75.3.3,0,0,1-.33-.13,4.08,4.08,0,0,0-1.47-1,.13.13,0,0,1-.16-.07,0,0,0,0,1,0,0,.1.1,0,0,0-.11-.1h0a.59.59,0,0,1-.39-.18,4.93,4.93,0,0,0-.74-.43,18.37,18.37,0,0,1-3-1.7.86.86,0,0,0-.5-.23c-.1,0-.13,0-.11-.13a.66.66,0,0,0-.32-.47c-.24-.21-.41-.25-.51-.13s-.16.14-.17.06a.1.1,0,0,1,0-.13h0c.07,0,.08-.11,0-.31l0-.12a1,1,0,0,1,.71.26,4.48,4.48,0,0,1,.8.57.24.24,0,0,0,.28,0,.22.22,0,0,0,.21-.24s0,0,0-.06a.8.8,0,0,0-.32-.5.43.43,0,0,0-.45-.14c-.08,0-.13.06-.15,0a1,1,0,0,1-.08-.29.46.46,0,0,0-.43-.42.59.59,0,0,1-.62-.55.76.76,0,0,1,0-.15c0-.12-.07-.17-.14-.16s-.09.08,0,.19a.07.07,0,0,1,0,.09s0,0,0,0-.2,0-.52-.22a.78.78,0,0,0-.59-.27l-.26-.08a.29.29,0,0,0,0-.33.48.48,0,0,0-.36-.16.24.24,0,0,1-.19-.27.93.93,0,0,0-.24-.52,5.87,5.87,0,0,0-.95-.76,3.58,3.58,0,0,0-.91-.52.38.38,0,0,1-.27-.17,5.08,5.08,0,0,1,1.08-.88,12.76,12.76,0,0,0,1.41-1.11,1.08,1.08,0,0,1,.49-.36.31.31,0,0,0,.25-.16.38.38,0,0,1,.3-.17c.16,0,.24-.08.22-.16s.08-.14.28-.17a1.1,1.1,0,0,0,.54-.24c.17-.13.22-.23.17-.3a.22.22,0,0,1,.06-.19.48.48,0,0,1,.33-.06.47.47,0,0,0,.31-.32q.14-.3.15-.21t.33-.21l.6-.46a.58.58,0,0,0,.31-.36.25.25,0,0,1,.21-.22.25.25,0,0,0,.2-.27.83.83,0,0,1,.46-.54,1.19,1.19,0,0,0,.56-.7c.08-.27.18-.4.3-.38a.8.8,0,0,0,.54-.46,6.63,6.63,0,0,1,.53-.88,1.34,1.34,0,0,0,.24-.56.34.34,0,0,1,.14-.3.44.44,0,0,0,.12-.38.37.37,0,0,1,.21-.4.51.51,0,0,0,.17-.24,1.2,1.2,0,0,0,.14-.48.35.35,0,0,0,0-.3s0-.07,0-.09,0,0,.06,0c.21,0,.35-.35.44-1.05.24-1.55.17-2.49-.21-2.84a3.21,3.21,0,0,1-.34-1.29,7.43,7.43,0,0,1-.14-1.63c0-.24,0-.36-.15-.34s-.13-.1-.11-.35a.41.41,0,0,0-.24-.48.49.49,0,0,1-.26-.51c0-.26-.07-.4-.19-.43a.34.34,0,0,1-.24-.35,1,1,0,0,0-.31-.57c-.17-.15-.22-.23-.16-.24s0-.09-.13-.23-.42-.32-.7-.56a.75.75,0,0,0-.48-.29.16.16,0,0,1-.13,0,.14.14,0,0,1-.07-.11c-.07-.15-.06-.25,0-.31s0-.08-.17-.09l-.77-.24q-.33-.07-.21-.15c.15-.07.18-.14.09-.2a.24.24,0,0,0-.24,0,.79.79,0,0,1-.63-.15,1.55,1.55,0,0,0-.59-.21.54.54,0,0,1-.37-.21.54.54,0,0,0-.46-.2c-.14,0-.16,0,0-.12s.07-.19-.11-.28a.68.68,0,0,0-.44-.11,2.3,2.3,0,0,1-.69-.1l-.61-.15a2.67,2.67,0,0,1-.46-.2,1.05,1.05,0,0,0-.6-.15.92.92,0,0,1-.54-.1,7,7,0,0,0-1.77-.17,14.72,14.72,0,0,0-3.24.32L86,36.37a1,1,0,0,0-.57.22.46.46,0,0,1-.28.17,2.11,2.11,0,0,0-1.41.72A.88.88,0,0,1,83,38c-.83.13-1.27.33-1.31.58a.42.42,0,0,1-.25.16,1,1,0,0,0-.43.35c-.19.21-.29.29-.3.23s-.12,0-.34.18a.6.6,0,0,0-.3.38.4.4,0,0,1-.26.29c-.19.11-.24.22-.16.33s.07.17,0,.19-.12.06-.07.13a.31.31,0,0,1,0,.31,1.24,1.24,0,0,0-.2.49,2.81,2.81,0,0,0,0,.5.85.85,0,0,0,.09.38.64.64,0,0,1,.09.54,2.78,2.78,0,0,0,0,.91c0,.36.14.53.26.51.36-.06.52-.19.49-.39a.62.62,0,0,1,.35-.45.83.83,0,0,0,.37-.37c0-.06,0-.1.14-.11s.14.06.12.22a.21.21,0,0,0,0,.19.74.74,0,0,0,.19-.16,2.82,2.82,0,0,1,.46-.38,1.32,1.32,0,0,0,.44-.5c.25-.45.52-.53.81-.25s.45,0,.8-.38l.33-.23-.35.11a.24.24,0,0,1-.24,0c-.08,0-.1,0-.07,0a.67.67,0,0,1,.38-.3,1.11,1.11,0,0,0,.49-.39.78.78,0,0,1,.24-.16.89.89,0,0,1,.39-.09.18.18,0,0,1,.19.06l.12,0c.06-.14.1-.13.12,0s.15.17.38.09.51-.16.7-.24a2,2,0,0,0,1.3-.64,5.31,5.31,0,0,1,1.72-.34,14.32,14.32,0,0,1,2.17-.17l.8.06a2.29,2.29,0,0,0,.37,0l.3,0a.62.62,0,0,1,.44.08,1,1,0,0,0,.62.08.8.8,0,0,1,.57.09,1,1,0,0,0,.58.18.78.78,0,0,1,.34,0,.15.15,0,0,1,.08.17.13.13,0,0,0,.06.14.49.49,0,0,0,.24,0,.27.27,0,0,1,.33.15s0,0,0,.07c0,.18.12.23.27.14s.23-.08.24,0,.12.1.32.07.4,0,.24.32c-.08.06-.09.1,0,.13.07.2.24.23.5.1a.4.4,0,0,1,.37,0,.21.21,0,0,1,.16.22,2.17,2.17,0,0,0,.07.24.69.69,0,0,0,.17.3c.07.09.13.12.16.07a.19.19,0,0,1,.26.08.21.21,0,0,1,.1.23l.13,0a.2.2,0,0,1,.14-.06.1.1,0,0,1,0,.09c0,.12,0,.18.09.17s.09.06,0,.23l0,.18s0,.06.13,0,.15.06.24.33a6.41,6.41,0,0,1-.14,1.8,2.15,2.15,0,0,0,0,.8.66.66,0,0,1-.13.54.62.62,0,0,0-.06.59,1.18,1.18,0,0,0,0,.2.14.14,0,0,1-.15,0,.29.29,0,0,0-.18,0,.48.48,0,0,0,.07.26.75.75,0,0,1,0,.55c-.06.13-.1.12-.13,0s-.09-.18-.19-.06a.45.45,0,0,0-.14.3.58.58,0,0,1-.15.39.55.55,0,0,0-.07.5,1.16,1.16,0,0,1,0,.64.58.58,0,0,1-.19.49c-.08,0-.13-.06-.16-.22s-.08-.23-.16-.22a1.73,1.73,0,0,0-.47.69,1.3,1.3,0,0,0-.26.83.18.18,0,0,0,.14.1l0,.25-.07.32L97.55,52c-.19-.17-.33-.19-.43,0a.5.5,0,0,0,0,.5l0,.07a.38.38,0,0,0-.22-.21c-.16,0-.19.19-.1.5a.68.68,0,0,1,0,.62.65.65,0,0,1-.18.15.27.27,0,0,1-.06-.17.2.2,0,0,1,0-.13s0,0,.09,0l0-.18A.31.31,0,0,0,96.1,53a.3.3,0,0,1-.27.08s-.06,0,0,.07a.6.6,0,0,1-.4.34c-.28.14-.39.31-.31.51l.08.16c0,.21-.08.22-.23,0a.21.21,0,0,0-.25,0c-.08.06-.08.14,0,.25a.16.16,0,0,1,0,.22h0a.29.29,0,0,1-.33,0,.2.2,0,0,0-.23.15.08.08,0,0,0,0,0,.22.22,0,0,1-.22.2h0a.26.26,0,0,0-.27.23.25.25,0,0,1-.26.23h0c-.12,0-.17,0-.15.14a.44.44,0,0,1-.2.31.43.43,0,0,1-.37.15.46.46,0,0,0-.37.18.77.77,0,0,1-.42.26.26.26,0,0,0-.24.22.21.21,0,0,1-.18.21.45.45,0,0,0-.26.23.75.75,0,0,1-.54.27c-.28,0-.41.11-.4.18a.82.82,0,0,1-.31.33.57.57,0,0,1-.39.22,3.59,3.59,0,0,1,0-1.53.8.8,0,0,0,0-.31c0-.08,0-.06.13,0a.29.29,0,0,0,0-.3l-.05-.36.09-.57a2,2,0,0,1,0-.81.69.69,0,0,0,0-.35v-.06a2.16,2.16,0,0,0,0-.36c0-.24,0-.29.1-.14.31.36.5.16.58-.58.08-.5.13-.84.14-1a2,2,0,0,0,0-1.41.71.71,0,0,1,.16-.88.89.89,0,0,0,.08-.66.72.72,0,0,1,.08-.59,1.33,1.33,0,0,0,.18-1.19.65.65,0,0,1,.11-.45.55.55,0,0,0,0-.5.72.72,0,0,1,0-.52,1.37,1.37,0,0,0,.06-.75.66.66,0,0,0-.23-.66c-.13,0-.17-.08-.12-.17a.23.23,0,0,1,.26-.1c.16,0,.13-.2-.09-.53A.36.36,0,0,1,91,43a1.26,1.26,0,0,0-.2-1.25.3.3,0,0,0-.3-.17.39.39,0,0,0-.31.15.22.22,0,0,1-.14.08.25.25,0,0,1-.2-.06.38.38,0,0,1-.13-.25c0-.16-.07-.18-.13-.07a1.14,1.14,0,0,0-.13.35c0,.53,0,.8-.17.83a.7.7,0,0,1-.22-.58c0-.24-.09-.35-.17-.34s-.11.1-.08.26a1.41,1.41,0,0,1-.16.7,3,3,0,0,0-.24,1l0,.25c0,.16-.06.15-.13,0s-.13-.2-.19,0a.63.63,0,0,1-.26.22c-.12,0-.18-.05-.16-.22s0-.24-.1-.22a.58.58,0,0,0-.13.51.54.54,0,0,1-.13.51c-.08,0-.11,0-.08-.11s0-.13-.08-.11-.15-.3-.09-1a.33.33,0,0,0,0-.22.31.31,0,0,0-.2.07.35.35,0,0,0-.3.26,10.64,10.64,0,0,0-.07,1.26c0,.41,0,1.25-.08,2.52-.13,2.43-.13,3.67,0,3.73s.14.16,0,.3a.62.62,0,0,0-.06.59.49.49,0,0,1,0,.53.78.78,0,0,0-.07.65.94.94,0,0,1,0,.64,1.22,1.22,0,0,0,0,.68,5.16,5.16,0,0,1-.06,1.36A11.49,11.49,0,0,0,86,57a13.33,13.33,0,0,0-.08,1.41,3.42,3.42,0,0,1-.26,1.76.41.41,0,0,1-.3-.14c-.12-.1-.11-.14,0-.12a.12.12,0,0,0,.07-.13,2,2,0,0,0,0-.49.65.65,0,0,1,0-.67,2.15,2.15,0,0,0,0-1.23,1.85,1.85,0,0,1,0-.74c.06,0,0-.11-.09-.2s-.12-.12,0-.12.17-.18.19-.55,0-.86,0-1.23q0-.86.18-3.39c0-.57.07-1.23.11-2,.07-1.11.16-2.27.29-3.47a6.07,6.07,0,0,0,0-2.51,1,1,0,0,0-.24.77.12.12,0,0,1,0,.1.25.25,0,0,1-.15.05c-.12,0-.18,0-.17.06a.18.18,0,0,0,.14.13.49.49,0,0,1,.14.47.7.7,0,0,1-.17.45s-.07-.07-.1-.23l0-.3-.18.4a.74.74,0,0,0,.17,1,.33.33,0,0,1,.21.36c-.05.11-.13.1-.25,0s-.22-.14-.28,0a4.86,4.86,0,0,0-.33,2.13c0,.41,0,.72,0,.92a7.2,7.2,0,0,0-.11,1,1,1,0,0,0,.21.88q.24.18.21,0a.12.12,0,0,1,.08-.16h0c.08,0,.14.1.18.34a.6.6,0,0,1,0,.47c-.07.07-.16,0-.28-.2a.39.39,0,0,0-.29-.29,1.69,1.69,0,0,0-.15.94c0,.2,0,.54-.09,1s-.08,1-.09,1.67a3.68,3.68,0,0,1,0,1.1,4.11,4.11,0,0,0,0,1.05,12.58,12.58,0,0,1-.07,1.84A16.21,16.21,0,0,0,84.51,62a3.1,3.1,0,0,1,0,.86.24.24,0,0,1-.28.17.45.45,0,0,0-.42.25l0,.18s.09,0,.16,0a.42.42,0,0,1,.13.22l0,.18c-.08.06,0,.21.13.47a1.59,1.59,0,0,1,.26.48,3.06,3.06,0,0,1-.93.61l-.74.36c-.3.17-.36.28-.19.34a2.33,2.33,0,0,0,.92-.34c.3-.17.53-.28.68-.35.34-.14.49-.14.43,0a1.76,1.76,0,0,0,0,.79,16.41,16.41,0,0,1,.18,3.7,3.6,3.6,0,0,0,0,.8,2.38,2.38,0,0,1-.06.75,1.62,1.62,0,0,0,0,.62.38.38,0,0,1,0,.21.4.4,0,0,1-.28,0,.24.24,0,0,1-.22-.23.26.26,0,0,0-.16-.25c-.1-.07-.17,0-.23.12a.84.84,0,0,0,0,.47,1,1,0,0,1,.07.48,11.22,11.22,0,0,0-.08,2.09.64.64,0,0,1,0,.43,1.75,1.75,0,0,0-.06.56,6.12,6.12,0,0,1,0,.86,1.14,1.14,0,0,0,0,.61c.06.15.06.25,0,.31a.32.32,0,0,0-.07.31.42.42,0,0,0,.18.31c.09,0,.16,0,.23-.1a.64.64,0,0,0,0-.41,2,2,0,0,1,0-.49c0-.2.08-.23.14-.08l0-.07a.63.63,0,0,1,.1-.5l0-.07c-.2,0-.22-.09,0-.36s.1-.24-.09-.17-.15-.16,0-.3a.18.18,0,0,0,0-.25.34.34,0,0,1,.29-.11.39.39,0,0,1,.31.08c.31.11.34.19.1.22-.08,0-.11.08-.09.2s0,.19-.09.2-.09.08,0,.19a.27.27,0,0,1,0,.31c-.07.09,0,.18.17.28l.32.13-.22.1a.67.67,0,0,0-.27.23c-.07.09,0,.12.14.1a.44.44,0,0,1,0,.61c-.1.1-.09.18,0,.24a.64.64,0,0,0,.49,0q.17-.09.21,0a2.7,2.7,0,0,1,.07.63q.06.72.12,1.08a.51.51,0,0,0,.38.3,1.36,1.36,0,0,0,.66.08.12.12,0,0,1,.14.09v0a.52.52,0,0,0,.29.29h0c.26.08.38,0,.35-.12h0Zm-2.33-3.44q.16-.12.18,0c0,.08-.1.14-.34.18h0a.35.35,0,0,1,.16-.18Zm-.91-2.57c-.06-.11,0-.16.1-.14a.7.7,0,0,1,.29.63.32.32,0,0,0-.19,0c-.25-.05-.33-.11-.22-.21h0a.19.19,0,0,0,0-.25Zm0-.44a.57.57,0,0,1-.19-.24.41.41,0,0,1,0-.24.14.14,0,0,1,.14-.11q.23,0,.12-.39a.21.21,0,0,0-.08-.11l.09-.2,0-.13a.56.56,0,0,1-.09-.17c.06-.13.22-.11.5,0s.16.24.05.32-.11.2,0,.37.08.28-.07.35a.36.36,0,0,0-.18.48l0,0c0,.08-.09.08-.31,0Zm12.46-8c-.08.26-.17.33-.27.23s-.11-.17,0-.18l-.27-.2L95.86,66l.26-.29c.25-.2.47-.14.64.2Zm-3.4-.82a.28.28,0,0,1-.22,0,.24.24,0,0,1-.12-.2q0-.09.21-.06c.15,0,.24,0,.25.08a.14.14,0,0,1-.12.17Zm.87-.48L94,64.87l.27-.23a.38.38,0,0,1,.42,0,.28.28,0,0,1,.12.38c0,.17-.21.18-.48,0Zm-2-.11a1.42,1.42,0,0,0-.6-.33.32.32,0,0,1-.27-.14,1.5,1.5,0,0,0-1.21-.29c-.15.07-.18,0-.1-.08s0-.23-.12-.34a.33.33,0,0,1-.2-.3c.14-.15.55,0,1.24.47a1.45,1.45,0,0,0,1,.39.28.28,0,0,1,.38.08.29.29,0,0,1,0,.22q.06.36.24.33a.15.15,0,0,1,.2.1.09.09,0,0,1,0,0c0,.12-.17.07-.58-.15h0Zm1.27-.27c-.13,0-.13,0,0-.18a.65.65,0,0,1,.21-.16q.12,0,0,.18a.25.25,0,0,1-.25.16Zm-8.23.85c.1,0,.13,0,.08.11a.24.24,0,0,1-.13.15s-.07,0-.08-.11a.12.12,0,0,1,.1-.14Zm7.87-1.18c-.08.11-.31,0-.7-.19a.82.82,0,0,1-.51-.5.37.37,0,0,1,.38-.1,1.17,1.17,0,0,1,.52.19c.1.11.19.14.26.08s.06-.05.09,0a.22.22,0,0,1,0,.11.49.49,0,0,1-.09.41Zm-1.8-.78-.08-.11a.74.74,0,0,0,.34-.15c.11-.07.16,0,.14.13s-.18.22-.4.13ZM90.66,63c.35-.1.54,0,.58.21s-.25.19-.49,0-.17-.17-.09-.23Zm0-2.2q-.54,0-.57-.15c0-.08,0-.1,0-.07a.72.72,0,0,0,.46-.2,1.45,1.45,0,0,1,.29-.11c.33-.21.38-.16.14.16a.83.83,0,0,1-.37.37Zm.12-.81a.21.21,0,0,1-.21-.12.26.26,0,0,1,.06-.19,2,2,0,0,1,.24-.26.6.6,0,0,1,.41-.12.32.32,0,0,1-.07.31c-.08.3-.22.43-.43.38Zm.89-.88a.42.42,0,0,1,.26-.29.61.61,0,0,1,.28-.16s0,.08-.08.25c-.27.33-.42.4-.46.2Zm.8-.37a.27.27,0,0,1,0-.31,3,3,0,0,1,.6-.47,4.3,4.3,0,0,0,.8-.68,2.93,2.93,0,0,1,.54-.45,8.5,8.5,0,0,0,1-.83l1.21-1.17a2,2,0,0,0,.66-.82.13.13,0,0,1,.08-.16h0A2.89,2.89,0,0,0,98,53a3,3,0,0,1,.67-.79.09.09,0,0,0,.11-.09.06.06,0,0,0,0,0,1.13,1.13,0,0,1,.25-.53,3.12,3.12,0,0,0,.39-.8A3.21,3.21,0,0,1,99.8,50q.24-.37.15-.36t.15-.42a1.31,1.31,0,0,0,.21-.58.12.12,0,0,1,.06-.16h0c.08,0,.1-.14.06-.38s0-.36.13-.38a.15.15,0,0,1,.19.1.09.09,0,0,1,0,0A.15.15,0,0,0,101,48h0q.18,0-.06-.36a.3.3,0,0,1-.23-.3c0-.11.13-.44.33-1a1.2,1.2,0,0,0,0-.5.2.2,0,0,1,0-.13.07.07,0,0,1,.1,0h0a2.68,2.68,0,0,1,.23,1.22,6.75,6.75,0,0,1,0,1.68,3,3,0,0,0-.06.74,1,1,0,0,1-.07.47.21.21,0,0,1-.28,0,.27.27,0,0,0-.3,0s-.07.06-.09,0,0,0,0-.09a.31.31,0,0,1,.26-.26c.16-.05.23-.11.21-.19s-.07-.08-.18,0-.17.06-.19-.06a.36.36,0,0,0-.35.12.39.39,0,0,0,0,.39c.09.13.07.22,0,.28a.21.21,0,0,0,0,.3h0a.36.36,0,0,0,.38.12.29.29,0,0,1,.22,0,.17.17,0,0,1-.06.19.5.5,0,0,1-.4.34.57.57,0,0,1-.46,0,.17.17,0,0,0-.25,0,.19.19,0,0,0-.15.2c0,.08.09.09.25,0,.31-.09.48,0,.52.22a.12.12,0,0,1-.07.14h0c-.08,0-.11,0-.09-.17s0-.07,0-.09,0,0-.09,0a1.82,1.82,0,0,0-.42.8,6.84,6.84,0,0,1-.92,1.65,5.66,5.66,0,0,1-1,1.3c-.11.06-.15.11-.1.14l-.16.15c-.16,0-.25,0-.26-.11a.15.15,0,0,0-.18-.13h0c-.12,0-.18,0-.19-.09s-.27,0-.73.42a1.79,1.79,0,0,0-.75,1,.63.63,0,0,1-.2.46c-.15.19-.28.22-.38.09s-.21-.08-.32.12-.18.22-.2.06a.17.17,0,0,0-.14-.1c-.2,0-.27.23-.21.58a.38.38,0,0,1-.15.43.45.45,0,0,1-.46,0,.2.2,0,0,0-.29-.05h0a.67.67,0,0,0-.24.37c0,.41-.15.48-.4.19h0Zm5.25-3.79c.09-.18.12-.28.07-.32s-.08,0-.11,0l-.09.2a.42.42,0,0,0,0,.22c0,.07.07,0,.16-.15Zm.51-.63c0-.09,0-.16-.22-.21a.21.21,0,0,0-.3,0c-.06.09,0,.16.1.22s.36.07.42-.06Zm.35-.49a.4.4,0,0,0,.09-.2c0-.08-.08-.09-.19,0s-.18,0-.19-.06-.08-.09-.18,0a.23.23,0,0,0,0,.31l0,0a.31.31,0,0,0,.42,0,.21.21,0,0,0,.06-.08Zm.64-1q.39-.55.15-.57a.37.37,0,0,1-.2-.09.52.52,0,0,0-.31.38.51.51,0,0,0,0,.52q.08.1.33-.24Zm.51-1c.23-.28.24-.4,0-.36s-.4.2-.23.46.13.08.23-.1Zm.87-3.29a.53.53,0,0,0,0,.35A.46.46,0,0,0,101,49a.36.36,0,0,0,.2-.06s0,0-.1-.08a.3.3,0,0,1-.18-.34c0-.16,0-.24-.1-.22a.31.31,0,0,0-.2.24ZM89.73,59.17a.31.31,0,0,1-.25-.05c-.12,0-.16-.1-.1-.23s.19-.23.32.07q.09.16,0,.21Zm-2.83-.49L87,58c0-.25.09-.3.16-.15a2.15,2.15,0,0,1,0,.91,1.71,1.71,0,0,1-.18.77,1.19,1.19,0,0,1-.08-.85Zm9.95-2.35h-.06c0-.07-.07-.08-.19,0l-.15,0s0,0,0-.07a1.33,1.33,0,0,1,.42-.43l.38-.31-.19.34a1.25,1.25,0,0,0-.23.46ZM87.08,57.5s-.06-.1,0-.3l.06-.38c.09-.18.16-.17.19,0a.87.87,0,0,1-.1.5Zm.21-1.32-.19.33a.47.47,0,0,0,0-.17,1.09,1.09,0,0,0,.05-.44s0-.07.11-.08.12.06.1.23Zm8-1.24-.08-.11,0-.13a.26.26,0,0,1,0,.24Zm.45-.62a.12.12,0,0,1,.14.07v0a.11.11,0,0,1-.07.13h0a.11.11,0,0,1-.13-.07,0,0,0,0,1,0,0,.11.11,0,0,1,.07-.14h0Zm-8.58,1.39c-.09-.06-.08-.17,0-.31a.66.66,0,0,0,0-.46c0-.22,0-.34.07-.35s.11.06.09.2,0,.32,0,.53a.44.44,0,0,1-.18.4h0Zm8.54-2a.24.24,0,0,1,.08-.29c.1-.11.16-.13.17-.05-.07.3-.16.41-.25.34ZM85.19,54a.13.13,0,0,1,.16.07v0c0,.08,0,.12,0,.13a.34.34,0,0,1-.2-.09c-.05-.08,0-.13.07-.14Zm2.2-.17a.84.84,0,0,1-.13-.78.3.3,0,0,1,.16.22.77.77,0,0,1,0,.56Zm2.34-1.05c.11,0,.18,0,.19.06a.19.19,0,0,1-.16.17q-.17.09-.18,0a.16.16,0,0,1,.1-.2h0Zm-4.42-.45a2,2,0,0,0,.08.26.24.24,0,0,1,0,.29.32.32,0,0,1-.19-.4h0c.1-.15.16-.19.16-.15Zm2.06-.12c.07-.07.11-.07.13,0a.28.28,0,0,1-.09.23c-.07.07-.11.07-.12,0a.22.22,0,0,1,.08-.23Zm-.05-.33a.33.33,0,0,1,.09-.2l.08.11c-.08.3-.13.33-.17.09Zm15.17-2.89c.08,0,.12,0,.14.1s0,.18-.09.2a.12.12,0,0,1-.14-.08v0a.22.22,0,0,1,.09-.21Zm-3.32.6-.09-.17.11-.08a.19.19,0,0,1,0,.25ZM87.5,51.07l-.09-.17,0-.07a.26.26,0,0,1,0,.24Zm0-1.1s-.06,0-.08-.17l.1-.14a.29.29,0,0,1,0,.31Zm-2.15-.08a.17.17,0,0,1,0-.24h0c.1-.06.14,0,.12.16s-.06.28-.17.09Zm.16-.94a.12.12,0,0,1,.13.11.12.12,0,0,1-.23.06v0a.11.11,0,0,1,0-.14Zm.11-1.18-.08-.11,0-.13a.26.26,0,0,1,0,.24Zm-.08-.66a.12.12,0,0,1,.16.06,0,0,0,0,1,0,0c0,.08,0,.12,0,.13a.31.31,0,0,1-.2-.09c0-.07,0-.12.07-.13Zm2.08-1c.06-.13.1-.18.13-.14a.8.8,0,0,1-.06.37c-.07.22-.11.26-.13.15a.62.62,0,0,1,.06-.38Zm-.49.38-.08-.11,0-.12a.24.24,0,0,1,0,.23Zm0-1.1s0,0,.08.11a1.2,1.2,0,0,1,0,.5ZM85.58,46a.15.15,0,0,1,0-.21h0c.07-.07.12,0,.14.07,0,.28,0,.33-.16.15Zm2-.56a.4.4,0,0,1,0-.3.3.3,0,0,1,.35.24.21.21,0,0,1-.3,0h0Zm-4.25-3.59.09,0s0,0,0,.06l-.09.2c-.14.1-.23.1-.25,0a.27.27,0,0,1,.21-.22ZM93.9,39.33c.08,0,.1,0,0,.12a.26.26,0,0,1-.1.13s0,0,0-.11a.11.11,0,0,1,.07-.14ZM83.11,77.08a.28.28,0,0,0-.11.08c-.14.15-.11.29.07.42s.32.09.27-.23a.39.39,0,0,0-.23-.27Zm-.06-.35a.2.2,0,0,0,.21.14c.16,0,.13-.1-.1-.22S83,76.61,83.05,76.73Zm.28-1c-.14-.06-.21-.06-.22,0a.32.32,0,0,0,.07.23c0,.11.12.13.18,0S83.46,75.82,83.33,75.76Zm-.2-1c.12.1.2.13.23.08a.13.13,0,0,0-.06-.17.27.27,0,0,0-.17-.1c-.12,0-.12.08,0,.19Zm.2-.46c-.08,0-.09,0,0,.13a.21.21,0,0,0,.14.1s0,0,0-.13a.11.11,0,0,0-.11-.11Zm0-1.39c-.11-.08-.16,0-.12.18a.17.17,0,0,0,.14.1.17.17,0,0,0,0-.22l-.07-.06Zm18.25-4.1a.78.78,0,0,0,.47.23s0-.06-.09-.17a.85.85,0,0,0-.61-.33c-.08,0,0,.11.23.28Zm-17.7,1.47a1.47,1.47,0,0,1-.06.72.54.54,0,0,0,0,.52.59.59,0,0,0,.37,0c.17,0,.22-.11.14-.26a1.34,1.34,0,0,1-.14-.65l0-.55q-.09-.23-.21-.15a.48.48,0,0,0,0,.37Zm16.78-2.08a1.5,1.5,0,0,0,.44.26.21.21,0,0,0,.17-.08c.05-.18-.08-.32-.38-.43s-.3-.1-.27-.17a.78.78,0,0,0-.47-.42.89.89,0,0,0-.62-.23c-.26.12-.15.33.35.61a7.6,7.6,0,0,1,.78.46Zm-16.61,1c-.08,0-.11.08-.09.2s.06.17.14.16.11-.08.09-.2-.07-.17-.14-.16Zm0-1a.25.25,0,0,0,.12.19c.07.05.12.05.16,0s0-.1-.15-.16-.14-.12-.13,0Zm.47.23a.21.21,0,0,0,0-.25l-.11.08Zm-.33-.87c-.09,0-.12,0-.1.14s.07.17.15.16a.1.1,0,0,0,.1-.11v0a.17.17,0,0,0-.15-.15ZM96,64.13c.08.09.13.08.15,0a.08.08,0,0,0,0-.11h0c0-.16-.1-.19-.2-.09a.27.27,0,0,0,.07.27Zm5.66-7.85a1,1,0,0,0-.28.35.52.52,0,0,0-.16.33.81.81,0,0,0,.25-.35.53.53,0,0,0,.19-.33Zm.36-.43L102,55.8a.36.36,0,0,0-.22.16.2.2,0,0,0,.27-.06s0,0,0,0Zm1.14-2c.1-.14.09-.14,0,0a.46.46,0,0,0-.17.24c0,.12.09.05.21-.22Zm-13.46,1c.06.11.15.09.29-.08s.17-.28.1-.35-.14,0-.19.15a.47.47,0,0,1-.13.15s0,0,0-.12l-.08-.11a.56.56,0,0,0,.06.36ZM98.1,37.3c-.08,0-.08.06,0,.12a.25.25,0,0,0,.23.09c.07,0,.07,0,0-.12a.2.2,0,0,0-.2-.09Zm-.53-.22c-.08,0-.12,0-.11.08a.1.1,0,0,0,.12.1h0c.08,0,.12,0,.11-.08a.17.17,0,0,0-.14-.1Zm31.56,40.34c.06.12.12.11.18,0a.53.53,0,0,0,.06-.37.37.37,0,0,1,.31-.36.38.38,0,0,0,.31-.36c0-.14.1-.25.37-.33l.48-.08-.09-.54a20.06,20.06,0,0,1-.38-4.58c0-.37,0-1.06,0-2.08a6.22,6.22,0,0,1,.13-1.49l.12-.38.08.47a.78.78,0,0,1-.07.56c-.06,0-.07.1,0,.28a2.58,2.58,0,0,1,0,.68.79.79,0,0,0,.1.62l0,.18c-.05,0-.09,0-.11.08a.35.35,0,0,0,.05.51l0,0c.16,0,.37-.78.62-2.24.09-.67.16-1.08.2-1.23a10.15,10.15,0,0,0,.12-1.12,4.25,4.25,0,0,1,.16-1.06c.07-.11.06-.18,0-.21s-.06-.12,0-.25.09-.2,0-.19-.06,0,0-.12a4.34,4.34,0,0,0,.1-1.24c0-.49.09-.75.25-.78s.05-.09-.07-.23a.31.31,0,0,1-.1-.38.69.69,0,0,0,0-.47.66.66,0,0,1,.31-.72c.11-.06,0-.24-.33-.56-.14-.1-.17-.15-.09-.17a.21.21,0,0,1,.2.09.33.33,0,0,0,.25.08.13.13,0,0,0,0-.18q-.09-.16,0-.18c.2,0,.16-.29-.12-.78a.3.3,0,0,1,.05-.42l0,0a.4.4,0,0,0,.1-.5.46.46,0,0,1,0-.45,1.67,1.67,0,0,0,0-.77,1,1,0,0,1,.1-.84,3.41,3.41,0,0,1,1.29-.36q1.08-.12,1.86-.18a2.32,2.32,0,0,0,1.55-.47,1.11,1.11,0,0,0-.11-1.23.73.73,0,0,0-.37-.4,2.61,2.61,0,0,0-.74,0,2.13,2.13,0,0,1-1.06-.13,5.7,5.7,0,0,0-1.59-.17,5.19,5.19,0,0,0-1.47.12.51.51,0,0,1-.52,0,2.64,2.64,0,0,0-1.31.06q-1.25.27-1.65.39c-.39.1-.5.27-.35.48s.1.23,0,.25a.14.14,0,0,1-.19-.09.13.13,0,0,1,0-.06c0-.08-.12-.11-.33-.1a2,2,0,0,0-.59.13.51.51,0,0,0-.33.24.58.58,0,0,0,.06.17s0,0,0,0a.2.2,0,0,1,.2.09.18.18,0,0,1-.1.14,2.61,2.61,0,0,1-.28.17l-.77.49c-.33.22-.62.4-.86.57a.84.84,0,0,0-.35.3c0,.08,0,.1-.14.08a1,1,0,0,0-.58.34c-.29.21-.64.47-1,.78a1.8,1.8,0,0,0-.67.75.51.51,0,0,1-.3.38.19.19,0,0,0-.16.15c-.06.14,0,.19.15.16s.06,0,0,.16a2.83,2.83,0,0,0-.34.51.5.5,0,0,0-.08.26l.46-.5a8.53,8.53,0,0,1,1.76-1.63c.07,0,.06,0,0,.13s0,.19.14.16c.48-.08.42.16-.19.7a1.12,1.12,0,0,0-.45.62c0,.24.24.19.59-.15a1.9,1.9,0,0,1,.61-.4.74.74,0,0,1,.46-.14,1.27,1.27,0,0,0,.33-.24,3.56,3.56,0,0,1,.61-.4,3.59,3.59,0,0,0,.51-.2c.16-.07.24,0,.26.08a3.44,3.44,0,0,1-.35,1.58c-.06.14-.22.6-.48,1.39s-.41,1.28-.46,1.46a4.24,4.24,0,0,0-.51,1.42c0,.12,0,.19-.06.19a.87.87,0,0,0-.22.5,4.5,4.5,0,0,1-.47,1.05,1.89,1.89,0,0,0-.32.67,1.86,1.86,0,0,1-.27.59,1,1,0,0,0-.22.56.16.16,0,0,1,.06.17,1,1,0,0,1,0,.25c0,.09-.06.12-.11.08a3.08,3.08,0,0,0-.75.86,3.22,3.22,0,0,0-.65,1,.12.12,0,0,1-.11.14h0a.9.9,0,0,0-.4.37l-.34.18c-.12,0-.15,0-.09-.17l-.07,0a1,1,0,0,1-.48.26.47.47,0,0,1-.56-.09.29.29,0,0,0-.36-.12.38.38,0,0,1-.37,0,.29.29,0,0,0-.31,0,1.75,1.75,0,0,1-1.05-.25,1.64,1.64,0,0,1-.85-.54,1.9,1.9,0,0,0-.58-.55.86.86,0,0,1-.49-.56.38.38,0,0,0-.19-.4.54.54,0,0,1-.22-.42,1.33,1.33,0,0,0-.3-.71,6.72,6.72,0,0,1-.84-2.19.49.49,0,0,0-.18-.37c-.09,0-.09-.12,0-.24a.92.92,0,0,0,0-.69,1.25,1.25,0,0,1-.13-.6,1.14,1.14,0,0,0,0-.73,2,2,0,0,0-.16-.64c-.09,0-.08-.11,0-.25a2.24,2.24,0,0,0,.19-1.44,7.49,7.49,0,0,1,0-1.16,3,3,0,0,0,0-.94s0-.11,0-.16a.18.18,0,0,0,0-.25.35.35,0,0,1,0-.37.23.23,0,0,0,0-.31c-.07-.07-.05-.16,0-.28a.62.62,0,0,0,.07-.53q-.09-.34.15-.39a.18.18,0,0,0,.19-.12c0-.07,0-.1-.17-.13a.2.2,0,0,1-.11-.26.14.14,0,0,1,.13-.15.1.1,0,0,1,.1,0,1.09,1.09,0,0,0,.33-.6,16.1,16.1,0,0,1,.74-2.57c.1-.36.18-.72.25-1.08a2.21,2.21,0,0,1,.34-1,.35.35,0,0,0,.13-.3,1.5,1.5,0,0,1,.2-.65,1.41,1.41,0,0,0,.19-.7.52.52,0,0,1,.09-.38,3.52,3.52,0,0,0,.35-.7,8.21,8.21,0,0,1,.9-2,11.66,11.66,0,0,1,1.13-1.31,5.78,5.78,0,0,0,.82-1,.49.49,0,0,1,.29-.29,1.88,1.88,0,0,0,.62-.5,3,3,0,0,1,.79-.62c.21-.09.31-.18.29-.26a.12.12,0,0,1,.1-.14h0a.39.39,0,0,0,.25-.2.37.37,0,0,1,.27-.2,4.89,4.89,0,0,0,1.3-.63,5.82,5.82,0,0,1,1.69-.52,6.24,6.24,0,0,1,2.11-.16,3.45,3.45,0,0,1,2.41.89,2.75,2.75,0,0,0,.53.65,1,1,0,0,1,.33.52.74.74,0,0,0,.32.47.53.53,0,0,1,.24.54.53.53,0,0,0,.11.47.94.94,0,0,1,.21.55.66.66,0,0,0,.68.62h.09c.16,0,.25,0,.26.08a.64.64,0,0,0,.49.22l.61.15,0-.18a.29.29,0,0,1,0-.34c.07-.07,0-.22-.14-.44a.54.54,0,0,1-.18-.4,1.33,1.33,0,0,0-.17-1c-.08-.23-.17-.52-.29-.87a1.19,1.19,0,0,0-.28-.56.36.36,0,0,1-.13-.29,1,1,0,0,0-.2-.42l-.46-.63a2.46,2.46,0,0,0-.34-.56l.13,0a.52.52,0,0,1,.29.29.22.22,0,0,0,.18.19,1.12,1.12,0,0,1,.43.57,6.33,6.33,0,0,0,.35.64,6.44,6.44,0,0,1,.71,1.72l.1.23c.13.35.22.27.27-.22a.52.52,0,0,0-.23-.49c-.16-.07-.17-.21,0-.42a.9.9,0,0,0,0-.8,6.87,6.87,0,0,1-.21-.7,2.74,2.74,0,0,0-.43-.81,1.36,1.36,0,0,1-.48-1,.18.18,0,0,0,.09-.2c0-.08-.11-.1-.31-.07s-.36-.08-.37-.37a.69.69,0,0,0-.33-.19c-.43-.09-.54-.26-.33-.5a.54.54,0,0,0-.18-.75h0c-.23-.21-.38-.26-.45-.17-.2.28-.47.26-.8-.05a.73.73,0,0,1-.23-.64.18.18,0,0,0,0-.13c0-.16-.12-.12-.29.11s-.11.06-.14-.1a.38.38,0,0,0-.08-.17c-.08-.23-.17-.26-.26-.08a.24.24,0,0,1-.29.11c-.16,0-.22-.08-.15-.19a.2.2,0,0,0-.08-.27l0,0c-.14-.08-.22-.07-.24,0a.17.17,0,0,1-.2.13l-.06,0a.35.35,0,0,1-.2-.27c0-.28-.51-.39-1.4-.32a1.06,1.06,0,0,1-.68-.08,3.43,3.43,0,0,0-1.22-.35,5.47,5.47,0,0,0-1.28,0,.85.85,0,0,0-.25.13.56.56,0,0,1-.49,0c-.19-.07-.29-.06-.3,0s-.1.12-.29.1a.36.36,0,0,0-.37.19c-.06.13-.21.15-.47.07a1.37,1.37,0,0,0-.29-.07.18.18,0,0,0,.06.17c.06.12,0,.19,0,.22a4.75,4.75,0,0,1-.64.2,1.08,1.08,0,0,0-.73.39.32.32,0,0,1-.26.29.54.54,0,0,0-.33.36.78.78,0,0,1-.59.37,2.45,2.45,0,0,0-1,.55.91.91,0,0,0-.37.7.35.35,0,0,1-.17.28.93.93,0,0,1-.43.19.38.38,0,0,0-.31.32.4.4,0,0,1-.29.33.3.3,0,0,0-.25.28.87.87,0,0,1-.44.5l-.26.29a.66.66,0,0,1-.06.2,1.23,1.23,0,0,1-.23.28.62.62,0,0,1-.28.17c-.12,0-.15.1-.08.25s0,.24-.08.26a.43.43,0,0,0-.42.44.36.36,0,0,0,0,.11.51.51,0,0,1-.3.42,5.69,5.69,0,0,0-1.2,1.6,1.19,1.19,0,0,0-.17.51c0,.08,0,.1-.08,0s-.14,0-.21.19-.23.52-.47,1.05a5,5,0,0,0-.4.92,4.86,4.86,0,0,1-.37.76,3,3,0,0,0-.36.8,1.48,1.48,0,0,1-.22.52,1.15,1.15,0,0,0-.2.64.34.34,0,0,1-.1.33.92.92,0,0,0-.24.43,3.24,3.24,0,0,1-.19.52,4.45,4.45,0,0,0-.44,1.78,1.07,1.07,0,0,1-.17.49,1,1,0,0,0-.14.6.78.78,0,0,1-.22.55.68.68,0,0,0-.22.5l-.27,1.39a.72.72,0,0,0-.09.2c0,.25,0,.39.1.41s.11.06,0,.09-.13.17-.1.38a.72.72,0,0,1-.12.57.41.41,0,0,0,0,.47c.08.15.09.23,0,.24a.49.49,0,0,0-.27.44.49.49,0,0,0,0,.51c.19.14.17.38-.06.75a.85.85,0,0,0-.23.83c0,.08,0,.47,0,1.16a17,17,0,0,0,0,2.26,22.58,22.58,0,0,0,1,5.53,11.54,11.54,0,0,1,.62,2,.7.7,0,0,0,.12.35,1.57,1.57,0,0,1,.73,1.1.74.74,0,0,0,.27.51.49.49,0,0,1,.22.27.31.31,0,0,0,.22.18.32.32,0,0,1,.18.36c0,.21,0,.3.08.3a.79.79,0,0,1,.36.34,1.91,1.91,0,0,0,.47.47.25.25,0,0,1,.14.31c0,.13.06.2.31.2l.2.09c.22.12.22.23,0,.31a.11.11,0,0,0-.06.14l0,0a.36.36,0,0,0,.43.06c.19-.08.3-.07.31,0a.11.11,0,0,1-.07.13h0c-.24,0-.1.25.4.61a1.12,1.12,0,0,0,.73.31.66.66,0,0,1,.19.09s0,.09,0,.12a.34.34,0,0,0,.22,0,1.65,1.65,0,0,0,.32.07l.41.09a2.42,2.42,0,0,0,.47.07,3.37,3.37,0,0,0,1,.22.36.36,0,0,1,.33.13A4.84,4.84,0,0,0,117,77a3,3,0,0,0,.65.23.21.21,0,0,0,0-.19c0-.12.3-.13,1,0a1.27,1.27,0,0,0,.67,0c0-.05,0-.06.06,0a.28.28,0,0,0,0,.09.21.21,0,0,0,.14.1c.2,0,.29-.11.27-.23s.22-.19.73-.21l.82,0a.67.67,0,0,0,.43-.16,5.17,5.17,0,0,1,.53-.3.2.2,0,0,0,.08-.26h0s.07-.07.23-.1a.32.32,0,0,0,.35-.12c0-.09,0-.12-.08-.11s-.11,0-.08-.11a.12.12,0,0,1,.14-.1h0a.76.76,0,0,0,.65-.32.67.67,0,0,0,.37-.52l.16-.14a.33.33,0,0,0,.28-.17c0-.09,0-.12-.08-.11a2.24,2.24,0,0,1,.9-.88,3.3,3.3,0,0,0,.6-.4,2.8,2.8,0,0,1,.6-.49c.22-.14.36-.17.41-.1s0,.12-.07.13-.11.12,0,.31c.17,1.07.2,1.62.08,1.64s-.09.07,0,.19a.19.19,0,0,1,0,.25.44.44,0,0,0,0,.43.76.76,0,0,1-.09.57q-.26.34.21.57a.67.67,0,0,1,.37.37.23.23,0,0,0,.21.21c.22,0,.32,0,.32-.3s.13-.2.35-.12a.83.83,0,0,0,.62,0,.22.22,0,0,1,.29.31,1.67,1.67,0,0,0,.15.54Zm-1-2.28a.65.65,0,0,1-.1-.41q-.08-.48-.15-1.08a4.73,4.73,0,0,1,0-.84c0-.2,0,.09.14.89s.16,1.4.15,1.45Zm-10.34-.58a2.5,2.5,0,0,1-1.33.06.27.27,0,0,0-.29-.1.43.43,0,0,1-.39-.12.43.43,0,0,0-.3-.13,1,1,0,0,1-.45-.17.63.63,0,0,1-.28-.2,1.64,1.64,0,0,1,.76.12,6.34,6.34,0,0,0,3,.06L119,74c.31,0,.37,0,.15.22a3.49,3.49,0,0,1-1.35.34Zm-1.73-.88a1.13,1.13,0,0,0-.57-.15.54.54,0,0,1-.28,0,.87.87,0,0,1-.27-.14c-.07,0-.09-.1-.06-.14a1.94,1.94,0,0,1,.83,0,1.16,1.16,0,0,1,.88.31c0,.2-.14.25-.53.15ZM122.54,72s.07,0,0,.17a.22.22,0,0,1-.15.21c-.08,0-.1-.05-.08-.17a.34.34,0,0,1,.18-.21Zm-4.64.63a1.48,1.48,0,0,1-.51-.13l-.78-.3a3.76,3.76,0,0,1-.46-.2,1.8,1.8,0,0,0-.64-.18.77.77,0,0,1-.59-.24c-.07-.19,0-.21.36,0a2.4,2.4,0,0,0,1,.13,2,2,0,0,1,1,.2c.37.27.53.27.48,0s.15-.29.52-.39a1.13,1.13,0,0,1,.83,0,.32.32,0,0,1,.1.1.14.14,0,0,1,0,.15.63.63,0,0,1-.21.22c-.11.08-.26.17-.44.28a4.11,4.11,0,0,1-.73.43Zm-.86-.81c-.09,0-.13,0-.11.08a.12.12,0,0,0,.1.13h0c.08,0,.12,0,.11-.08a.25.25,0,0,0-.14-.13Zm6-.21c0,.12,0,.18-.09.2s-.13-.06-.16-.22a.41.41,0,0,1,0-.19s0,0,.08,0a.24.24,0,0,1,.16.22Zm-8,.93a.15.15,0,0,1,.14.1s0,.06-.11.07a.1.1,0,0,1-.13-.06v0c0-.07,0-.1.1-.07Zm-.84-.3a.79.79,0,0,1,.39.13q.27.14.15.15a.69.69,0,0,1-.39-.12q-.27-.14-.15-.15Zm5.19-.81a.35.35,0,0,1-.1-.2c0-.08,0-.07.13,0s.12.16.09.2-.07.05-.12,0Zm-5.52-.11a.22.22,0,0,1,.16-.15,1.24,1.24,0,0,0,.38-.09.12.12,0,0,1,.16.06h0a.88.88,0,0,1-.7.17Zm3.16-1a.33.33,0,0,0,.42.14c.16-.06.24-.06.25,0s-.08.12-.29.11a1.84,1.84,0,0,1-.74,0,.7.7,0,0,1-.39-.15.69.69,0,0,0-.48-.35c-.38-.1-.49-.25-.32-.44a.29.29,0,0,1,.24,0,.79.79,0,0,1,.33.13.4.4,0,0,1,.16.22.25.25,0,0,0,.14.16.54.54,0,0,0,.27.11.16.16,0,0,0,.17-.06s.11,0,.24.18Zm2.11-.38-.13,0a.26.26,0,0,1,.24,0Zm-5.73.45-.07,0a.26.26,0,0,1,.24,0Zm1.94-.81a.54.54,0,0,1-.36-.18c-.17-.14-.23-.23-.2-.28s.26,0,.48.29c.09.11.12.17.08.17Zm-1-.93a.5.5,0,0,1-.31-.22.63.63,0,0,1-.21-.3c0-.05,0-.1-.18-.19a.25.25,0,0,1-.14-.31.19.19,0,0,0-.09-.25h0a.11.11,0,0,1-.09-.14.09.09,0,0,1,0-.06c0-.08.13,0,.3.17a4.56,4.56,0,0,1,.51.65,1.72,1.72,0,0,1,.26.48q0,.17-.06.18ZM113,66.41s.06,0,.08.11a.11.11,0,0,1-.09.13h0c-.08,0-.11,0-.08-.11a.15.15,0,0,1,.1-.14ZM126.57,64s.07,0,.08.11,0,.13-.13.15-.13,0-.11-.1a.33.33,0,0,1,.16-.15Zm-13.92,1.78c.06,0,.11.08.14.28a.16.16,0,1,1-.12,0c-.07-.19-.08-.29,0-.3Zm-.1-.47c.07,0,.12,0,.14.15s0,.19-.09.2-.13,0-.14-.15,0-.19.09-.2Zm.93.09a.22.22,0,0,1-.15-.16.26.26,0,0,1,0-.24l.15.16c.06.16.08.24,0,.24ZM112.25,65a.67.67,0,0,1-.26-.45,3.28,3.28,0,0,0-.24-.75l0-.3c0-.29.1-.39.2-.28a2,2,0,0,1,.27.93,1.16,1.16,0,0,1,.08.84h0Zm.62-1.08-.08-.11a.32.32,0,0,1,0-.19h0a.45.45,0,0,1,.05.3Zm-5.06.82-.08-.11a.19.19,0,0,1,.25,0Zm24-5.55a1,1,0,0,1-.19.7q-.17.09-.18-1.86c0-1.13,0-1.82-.09-2.06a.6.6,0,0,1,.18-.58.47.47,0,0,1,.56-.09l.26.08-.1.5a1.27,1.27,0,0,0-.12.57.54.54,0,0,1,0,.31,4.49,4.49,0,0,0-.16.89c-.06.66-.1,1.17-.12,1.54ZM111.68,63a3.89,3.89,0,0,1-.25-1.55c0-.12,0-.16.1-.13a1.55,1.55,0,0,1,.26,1.24c0,.28,0,.43-.11.44Zm-4.26-.47a.69.69,0,0,1,.28,0,.48.48,0,0,1-.26.07.28.28,0,0,1-.28,0c0-.08.07-.12.26-.1Zm4-1.37a2.29,2.29,0,0,1-.14-.68.92.92,0,0,1,0-.52.37.37,0,0,0,0-.31l-.06-.36.17.28A4.08,4.08,0,0,1,111.6,61c-.1.14-.17.19-.22.16Zm-.15-2.06V59a1.36,1.36,0,0,0,0-.45c0-.18,0-.23.1-.14a.39.39,0,0,1,0,.45.21.21,0,0,1-.09.2Zm0-1s-.06,0-.08-.11a1,1,0,0,1,0-.5q.08-.25.18,0a.58.58,0,0,1,0,.5Zm-4,0c0-.23,0-.33.26-.28s.14.1,0,.24c-.16.31-.26.32-.3,0Zm4.32-1.8a.69.69,0,0,1-.16.7c-.12,0-.14-.09-.06-.35a1.71,1.71,0,0,0,.1-.51l0-.6a1.15,1.15,0,0,1,.16.77Zm.06-1.72-.09-.17.11-.07a.17.17,0,0,1,0,.24ZM114.06,53s0,0,0,.12a.11.11,0,0,1-.07.13h0c-.08,0-.1,0-.08-.11a.57.57,0,0,1,.13-.14Zm0-.62a.75.75,0,0,1,0-.49.8.8,0,0,1,.14-.45.13.13,0,0,1,.16.09.17.17,0,0,1,0,.19.59.59,0,0,0-.05.43c.05.32,0,.4-.27.23Zm.38-1.1c-.08,0-.14-.06-.16-.22l0-.19c.09-.17.15-.18.18,0l0,.23c0,.12,0,.19-.09.2Zm.15-1.31c0-.2,0-.3.13-.32s.13.06,0,.23a1.15,1.15,0,0,1-.14.27Zm.41-.86a.31.31,0,0,1-.16.12,1.55,1.55,0,0,1,0-.21l.08-.26c.13-.22.21-.23.24,0a.89.89,0,0,1-.12.39Zm-3.78-5.56s.07,0,.08.11a.1.1,0,0,1,0,.13h0c-.08,0-.1,0-.08-.11a.18.18,0,0,1,.1-.14Zm6.5-6.31.25-.28c.28-.33.43-.42.45-.26a.58.58,0,0,1-.31.36Zm.64-1.69.27-.23-.2.28a.53.53,0,0,1-.25.35c-.16,0-.1-.11.18-.4Zm.31-.36s0-.08.16-.11a.25.25,0,0,1,.24,0,1.74,1.74,0,0,1,.75-.67,1.23,1.23,0,0,0,.81-.63.34.34,0,0,1,.44-.16c.15.08.24.08.27,0s0-.09-.1-.08-.12,0-.05-.11a.22.22,0,0,1,.25-.13.3.3,0,0,1,.3.13.14.14,0,0,1,0,.2l0,0a1.52,1.52,0,0,1-.5.15,1.12,1.12,0,0,0-.57.27,9.6,9.6,0,0,1-.93.64h0c-.66.44-1,.59-1,.47Zm5-.74c0-.08,0-.13.16-.15a.24.24,0,0,1,.25.08.19.19,0,0,1-.16.15h0c-.15,0-.24,0-.25-.08ZM122,33.36c-.24-.16-.21-.27.07-.32a.47.47,0,0,0,.33-.17c.07-.09.19-.09.37,0a.23.23,0,0,1,.18.15.42.42,0,0,1-.25.16.68.68,0,0,1-.7.18Zm1.16-.37s0,0,0-.06a.26.26,0,0,1,.17-.09.3.3,0,0,1,.31.07.12.12,0,0,1,0,.1.27.27,0,0,1-.15.05.3.3,0,0,1-.31-.07Zm9.21,27.75a.27.27,0,0,0-.08.22c0,.08.05.1.13,0a.2.2,0,0,0,.09-.2c0-.11-.07-.14-.14-.06Zm-10.25-2a.11.11,0,0,0-.13.11v0c0,.08,0,.12.08.11a.21.21,0,0,0,.1-.14c.07-.09,0-.13,0-.11Zm-.92-.22a.11.11,0,0,0-.11.11s0,0,0,0,.08.11.2.09.15-.07.1-.14a.2.2,0,0,0-.2-.09ZM123,58l0-.19-.22.16a.75.75,0,0,0-.3.42A.74.74,0,0,0,123,58Zm-1.21-1c-.17.19-.2.27-.08.25a.43.43,0,0,0,.23-.1c.34-.17.42-.31.24-.4a.49.49,0,0,0-.39.24Zm1.5-1a.38.38,0,0,1,.25-.13.12.12,0,0,0,.13-.12v0c0-.11-.18-.11-.48,0s-.26.19-.08.32a.14.14,0,0,0,.18-.06Zm1.9-1.26a.17.17,0,0,0,.21-.13,0,0,0,0,0,0,0c0-.12,0-.18-.18-.15s-.23.08-.22.16,0,.13-.18.15-.18.07-.1.14.14.06.2,0a.25.25,0,0,1,.26-.11Zm.72-.3.22-.16c.35-.3.43-.43.24-.4a.1.1,0,0,0-.11.09.09.09,0,0,0,0,.05c0,.08,0,.1-.11.08a.36.36,0,0,0-.25,0l-.22.13c-.07.06-.09.1,0,.13a.23.23,0,0,0,.26.08Zm18,17.13c.06,0,0-.11,0-.3a.36.36,0,0,1,0-.25,1.14,1.14,0,0,1,.4-.19c.34-.13.65-.25.92-.33a19.58,19.58,0,0,0,2.1-.65,1.32,1.32,0,0,0,.25-.16.3.3,0,0,1,.26,0,.4.4,0,0,0,.37-.21.41.41,0,0,1,.3-.24,1,1,0,0,0,.48-.23,1.66,1.66,0,0,1,.47-.26,2.06,2.06,0,0,0,.78-.49.6.6,0,0,1,.47-.11c.13,0,.21,0,.23-.07a.57.57,0,0,1,.47-.16.87.87,0,0,0,.57-.22.56.56,0,0,1,.53-.12.45.45,0,0,0,.28,0s0-.1,0-.21a.39.39,0,0,1,.25-.17c.17-.07.39-.14.67-.23s.54-.16.82-.22.51-.12.7-.15a.77.77,0,0,1,.37,0,.24.24,0,0,0,.23.06s0-.08,0-.16a.21.21,0,0,1,0-.28.37.37,0,0,1,.4,0c.17.05.28,0,.32-.09a1.7,1.7,0,0,1,1-.25l.65-.11q.24,0,.15-.21l-.08-.11c0-.08.15-.12.47-.13s.56,0,.58-.19a.17.17,0,0,1,.17-.18.12.12,0,0,1,.08,0c.15,0,.23,0,.24-.23a.46.46,0,0,1,.36-.4,6.39,6.39,0,0,0,1.4-.59c.24-.16.31-.31.2-.46a2.48,2.48,0,0,0-1.18.07,1.66,1.66,0,0,1-1.12,0c0-.1-.13-.13-.32-.1s-.3.09-.28.17-.11.12-.35.12a.43.43,0,0,1-.38-.09.82.82,0,0,1,.24-.41c.17-.21.26-.28.27-.2a.65.65,0,0,0,.29-.11,1.19,1.19,0,0,1,.53-.51l.22-.16c.21-.16.3-.27.24-.35a3,3,0,0,0-1.3.25,15.55,15.55,0,0,0-2.19.81c-.15.07-.2.05-.13,0a.94.94,0,0,1,.39-.25,11.68,11.68,0,0,0,2.52-1c0-.15-.47-.12-1.33.1-.11.06-.18,0-.2-.12s-.08-.2-.18-.19a.61.61,0,0,0-.31.18.3.3,0,0,0-.15.2l.09.17c0,.12,0,.16-.11.11a.22.22,0,0,1-.1-.26c0-.08-.18-.07-.49,0a10.62,10.62,0,0,1-1.12.24,2.85,2.85,0,0,0-1.43.6c-.1.1-.19.1-.25,0s-.11-.09-.17.06-.16.16-.3,0-.27-.17-.35-.1-.11,0-.05-.08a.48.48,0,0,0-.37,0,6,6,0,0,1-.8.31,24.48,24.48,0,0,0-2.91.9,14,14,0,0,1-1.4.41,2.9,2.9,0,0,1-.71.15.33.33,0,0,1-.22-.24.69.69,0,0,1-.07-.42.22.22,0,0,1,.16-.15.57.57,0,0,1,.18.34.3.3,0,0,0,0,.15.16.16,0,0,0,.1,0,.53.53,0,0,0,.06-.35.5.5,0,0,1,.12-.41,1,1,0,0,0,0-.74,3.67,3.67,0,0,1-.14-1c0-.35.07-.53.19-.55a.23.23,0,0,0,.21-.16c0-.08,0-.12,0-.12l-.15,0a.87.87,0,0,1-.2-.46c0-.36,0-.65,0-.85l0-.62a1.68,1.68,0,0,1,.08-.59c.06-.15.1-.16.12,0s.07.2.16.19l.1-.08a3.08,3.08,0,0,1,0-.43c0-.78,0-1.16-.13-1.14a.27.27,0,0,0-.05.26,1,1,0,0,1-.08.44,3.31,3.31,0,0,1,0-1.71l.12-.39,0,.49c0,.1,0,.21,0,.31s.06.07.12,0a.92.92,0,0,0,.09-.23,1.65,1.65,0,0,0,0-.31,2.64,2.64,0,0,1,0-.28.6.6,0,0,0-.08-.29.11.11,0,0,0-.11.11,0,0,0,0,1,0,0h-.12a1.27,1.27,0,0,1-.18-1.07,5,5,0,0,0,.11-.87,1,1,0,0,1,0-.34,2.41,2.41,0,0,1,.08-.25c0-.07.05-.08.06,0a.17.17,0,0,1,.1.22c0,.13,0,.19.09.17s.2-.25.13-.69c0-.16-.09-.19-.2-.09l-.11.08-.11-.29a16.32,16.32,0,0,1,3.69-1,14.07,14.07,0,0,0,2-.33,1.13,1.13,0,0,0,.59-.31.57.57,0,0,0,.27-.44.38.38,0,0,1,0-.36,1.3,1.3,0,0,1,.2-.43c.08-.12.15-.15.2-.1s.07,0,.05-.07-.12-.11-.31,0a.5.5,0,0,1-.26.08c-.07,0-.07-.05,0-.12a.8.8,0,0,1,.29-.23.46.46,0,0,1,.36-.09c.24,0,.3.09.16.28a.16.16,0,0,0,0,.23l0,0c.11,0,.12.12,0,.24s-.06.16.08.14a.27.27,0,0,1,.29.07.84.84,0,0,1-.69-.07c-.14-.1-.22-.13-.25-.08s0,.11.09.2a1,1,0,0,0,.4.21,1.06,1.06,0,0,0,.5,0,.54.54,0,0,0,.63-.22,1.23,1.23,0,0,0,.07-.32c0-.08-.07-.06-.17.06s-.26.08-.48-.11a1.06,1.06,0,0,1-.33-.37.33.33,0,0,1,.24-.22.43.43,0,0,1,.38-.07.72.72,0,0,0,.53-.11.47.47,0,0,0,.32-.12A.39.39,0,0,0,156,48a.24.24,0,0,0-.31-.13h0l-.3,0q-.31,0-.21-.15a.49.49,0,0,0-.58.15.21.21,0,0,1-.27.11l-.06-.05q-.18-.15,0-.18c.1,0,.08-.07-.06-.17a.2.2,0,0,1,0-.21.47.47,0,0,1,.18-.19.36.36,0,0,1,.27,0q.48,0-.09-.9a.63.63,0,0,0-.72-.31.48.48,0,0,1,0-.6c.07-.1.08-.14,0-.13a4,4,0,0,0-.85,0,2.46,2.46,0,0,0-.76.16,7.3,7.3,0,0,1-.91.27,12.88,12.88,0,0,0-1.6.5c-.57.21-1,.37-1.39.47a.85.85,0,0,1-.38.09.13.13,0,0,1-.11-.13c0-.13,0-.54,0-1.23l0-.13a44.89,44.89,0,0,1,.36-5.68l.15.16a.32.32,0,0,0,.07-.32.35.35,0,0,0-.06-.17s0,0-.09,0-.15-.4,0-1.41a1,1,0,0,0,0-.67.44.44,0,0,1,0-.43l.15-.2,0,.3.1.22a.11.11,0,0,0,.11.11h0a1,1,0,0,0,.1-.5.49.49,0,0,1,.09-.35,1.82,1.82,0,0,1,.45-.1.72.72,0,0,0,.55-.15.87.87,0,0,1,.62-.17,1,1,0,0,0,.7-.2.56.56,0,0,1,.53-.12,1.86,1.86,0,0,0,.93-.12c.36-.12,1-.28,1.78-.47s1.25-.23,1.27-.12a.16.16,0,0,1-.09.2h0a.12.12,0,0,0-.13.12v0c0,.08.15.1.41,0a1,1,0,0,1,.45,0,.3.3,0,0,0,.29-.11c.14-.1.23-.11.24,0s.11.1.28,0a2.61,2.61,0,0,1,.61-.22.52.52,0,0,0,.39-.22.7.7,0,0,0-.78.13c-.1.1-.18.11-.23,0a.38.38,0,0,0-.3-.11,1.41,1.41,0,0,0-.41.07.24.24,0,0,0-.2.12l-.1.14c-.08,0-.15-.08-.22-.27l-.11-.29,1.19-.19a4.54,4.54,0,0,0,1.35-.34c.15-.11.15-.23,0-.37a.7.7,0,0,1-.15-.19.34.34,0,0,1,.2-.09.27.27,0,0,0,.21-.19,2.48,2.48,0,0,0-.06-.54,2.26,2.26,0,0,0-.35-.83.27.27,0,0,1,0-.39h0a2.26,2.26,0,0,1,.88-.27,1.65,1.65,0,0,0,1.07-.54c.41-.47.46-.76.16-.88a.3.3,0,0,1-.23-.27.37.37,0,0,1,.34-.17.57.57,0,0,0,.34-.18c.07-.09,0-.15-.15-.16s-.15-.06,0-.25.15-.45-.36-.37a.59.59,0,0,1-.37,0,.43.43,0,0,1-.06-.35,1.56,1.56,0,0,1,.15-.6c.06-.11.06-.19,0-.22a.3.3,0,0,0-.26.05.56.56,0,0,1-.41.12,9.22,9.22,0,0,0-2.56,1.15c-.38.19-.63.3-.74.34a3.38,3.38,0,0,0-.62.34,1,1,0,0,1-.6.25.17.17,0,0,0-.21.07,1.53,1.53,0,0,1-.68.29,1.34,1.34,0,0,0-.83.54l-.14.26-.28-.2a.45.45,0,0,0-.54-.15,3.17,3.17,0,0,1-.41.12c-.06,0,0,.11,0,.3a.17.17,0,0,1,.05.15.17.17,0,0,1-.13.14l-.34.15a.78.78,0,0,1-.92,0l-.29-.25.08.84-.23-.27a.66.66,0,0,0-.47-.29,4.29,4.29,0,0,1,2.05-.88.81.81,0,0,0,.56-.34c0-.08-.08-.09-.19,0a.25.25,0,0,1-.32-.07h-.06c.07.15.06.23,0,.25a.18.18,0,0,1-.19-.09,1,1,0,0,0-.81-.06c-.23.08-.29.17-.17.28s.12.16,0,.18l-.27,0-.2.07-.29.11a1.53,1.53,0,0,1-.29.07l-.36.06c0-.24-.08-.35-.23-.33a.15.15,0,0,0-.16.14v0c0,.1,0,.11-.09,0a6.49,6.49,0,0,0-2.19.26,9.8,9.8,0,0,0-2.82.7.72.72,0,0,1-.63.23,2.51,2.51,0,0,0-1.13.36,2.14,2.14,0,0,1-.77.34,1.2,1.2,0,0,0-.52.18l-.35.12.26-.29a.87.87,0,0,1,.4-.31.39.39,0,0,0,.25-.17.7.7,0,0,0-.43,0,7.93,7.93,0,0,0-1.18.23l-1.59.38c-.51.12-1,.22-1.48.3-.84.13-1.22.4-1.16.8s.31.4.8.36c.12,0,.2.14.26.47s0,.52,0,.53-.23.08-.22.16a.33.33,0,0,0,.22.21.74.74,0,0,0,.62-.17.65.65,0,0,1,.58-.15.37.37,0,0,0,.39-.06,2.3,2.3,0,0,1,.73-.18,3.74,3.74,0,0,1,.82-.08s0,.07-.15.21a.31.31,0,0,1-.28.17l-.09.2c0,.16.16.22.39.18a.43.43,0,0,1,.25,0,2.31,2.31,0,0,1-.31.39l.18,0c.12,0,.18,0,.19,0l-1.33.83a8.11,8.11,0,0,0-1.39.83.15.15,0,0,0-.1.14c0,.17.18.11.58-.16a1.12,1.12,0,0,1,.57-.27l-.32.3-.27.23a10.62,10.62,0,0,0,1.76-.47,13.46,13.46,0,0,1,2.18-.48c.24,0,.35,0,.33.13a.33.33,0,0,1-.33.24c-.2,0-.29.1-.27.2s.12.11.31,0a.44.44,0,0,1,.35-.12,1.36,1.36,0,0,1-.71.54,1.12,1.12,0,0,0-.71.55c0,.12.38.08,1.09-.12a1.72,1.72,0,0,1,.5-.11c.06,0,.08.1.07.26a.5.5,0,0,0,.15.53q.21.21,0,.36a1.12,1.12,0,0,0-.07.93,6.19,6.19,0,0,1,.05,1.61,10.31,10.31,0,0,0,0,1.47,8,8,0,0,1,0,1.38,9.26,9.26,0,0,0,0,1.29,11.22,11.22,0,0,1,0,1.16c0,.41,0,.84-.09,1.3a1.53,1.53,0,0,1-.85,1.54.67.67,0,0,1-.23.1l.44,0a.75.75,0,0,1,.73.16c0,.13,0,.21-.09.23s-.11.14,0,.37.06.38-.05.43a.28.28,0,0,0-.13.33.73.73,0,0,1-.11.48c-.09.16,0,.24.17.25a.68.68,0,0,1,.32.13c.09.06.06.11-.1.13s-.08.14,0,.37a.5.5,0,0,1,0,.46.62.62,0,0,0,0,.5,2.82,2.82,0,0,1,0,.82,19.25,19.25,0,0,0-.07,2.94,11.21,11.21,0,0,1,0,1.17,5,5,0,0,0,0,1,.54.54,0,0,1-.17.48l-.11.08s0-.09,0-.3l-.06-.36a1.46,1.46,0,0,0-.05.8l.05.36a.23.23,0,0,1,.15-.21s.07.06.1.2a4.54,4.54,0,0,1,0,.64,8.57,8.57,0,0,1,0,1,1,1,0,0,1-.19.7.62.62,0,0,1-.06-.42c0-.32,0-.64,0-1v-.37l-.08.26a5.45,5.45,0,0,0,0,1.89l0-.12a.13.13,0,0,1,.1-.15h0c.1,0,.14,0,.13.2a.22.22,0,0,1-.15.23q-.24,0-.24.78c0,.36,0,.46.11.28a1.28,1.28,0,0,0,0-.55c0-.2,0-.3.07-.32s.12,0,.12.2a10.92,10.92,0,0,1-.08,1.14,1.7,1.7,0,0,1-.16.94c-.24,0-.27.07-.09.2a.17.17,0,0,1,0,.23l-.08.06q-.19.12-.21.06c-.13-.06-.12-1.75,0-5.08,0-.29,0-.43-.09-.41s-.14.12-.1.32a7.24,7.24,0,0,1,0,1.23,5.73,5.73,0,0,0-.05,1.17,5.21,5.21,0,0,1,0,.79c0,.37,0,.85-.07,1.42q-.12,1.55-.36,1.59c-.17-.06-.17-.22,0-.49.06-.09.06-.13,0-.12a.58.58,0,0,0-.29.29.39.39,0,0,0-.09.38c.09.07.1.11,0,.12a.18.18,0,0,1-.2-.09.4.4,0,0,0-.24-.14.41.41,0,0,0-.27,0,.14.14,0,0,0-.11.11c0,.08-.06.13-.21.16a.28.28,0,0,0-.26.29.57.57,0,0,1-.49.38c-.23.08-.33.17-.29.26s.17.13.41.09.2,0,.15.16.32.23,1,.08a4.47,4.47,0,0,1,.81-.25.18.18,0,0,1,.24,0,1,1,0,0,1,.13.38.63.63,0,0,0,.2.33.9.9,0,0,0,.4,0l.41-.13,0,.61a.89.89,0,0,1-.25.86.47.47,0,0,0-.27.44.2.2,0,0,0,.13.2,1.23,1.23,0,0,0,.33,0,7.77,7.77,0,0,0,.92-.33,6.47,6.47,0,0,1,1.05-.35.28.28,0,0,1,.33.19h0a.33.33,0,0,0,.2.27Zm-3-2.08-.08-.11c-.09-.35,0-.43.27-.23l.22.21q0,.13-.18,0c-.14-.1-.21-.07-.23.1Zm17-6.16a.33.33,0,0,1,.14.1.18.18,0,0,1-.12.05.12.12,0,0,1-.13-.07v0c0-.08,0-.1.11-.05Zm-4.14.46-.13,0a.24.24,0,0,1,.24,0ZM156,63l-.14-.1a.19.19,0,0,1,.25,0h0Zm-10.77,1-.09-.17a.17.17,0,0,1,0-.13h0a.45.45,0,0,1,.05.3Zm0-1.47a.92.92,0,0,1-.09-.23l0-.18c0-.16,0-.18,0-.06a1,1,0,0,1,.07.47Zm-.16-1.38c0-.27,0-.42.05-.43s.12.1.12.35c0,.5-.1.52-.17.08Zm0-.68a.37.37,0,0,1-.07-.23.4.4,0,0,1,.07-.35c.07-.07.11-.06.12,0a.82.82,0,0,1-.06.38.36.36,0,0,1-.06.2Zm0-.8L145,59.5l.11-.08a.17.17,0,0,1,0,.24Zm1.37-.59-.05.07-.11-.28a.68.68,0,0,1,0-.56.73.73,0,0,1,.17.28.94.94,0,0,1,0,.5h0Zm-1.28,0a.2.2,0,0,1-.09-.17.16.16,0,0,1,0-.13.45.45,0,0,1,.05.3Zm0-1c0,.41-.06.5-.14.26a9.34,9.34,0,0,1,0-1.4,8.46,8.46,0,0,1,.07-1.23,2.61,2.61,0,0,1,.09,1.27c0,.53,0,.9,0,1.1Zm1.34-1.72c0,.15-.09.11-.17-.12a.57.57,0,0,1-.06-.36c.06-.13.13-.1.2.09a.55.55,0,0,1,0,.4ZM144.1,56c-.09.18-.15-.54-.17-2.17,0-.78,0-1.29.06-1.54a.41.41,0,0,1,.32-.48h0a.7.7,0,0,1,.25,0,.25.25,0,0,1,.09.2c0,.12-.06.48-.13,1.06a2.05,2.05,0,0,1-.16.88,3.7,3.7,0,0,0-.17,1.62.76.76,0,0,1-.11.44Zm1.14-.67c.1,0,.13,0,.08.11a.25.25,0,0,1-.13.14s-.06,0-.08-.11a.12.12,0,0,1,.1-.14Zm1.21-1.42.1-.14s.07,0,.11.29a1.15,1.15,0,0,1,0,.37c-.06.17-.13.14-.2-.09h0a.5.5,0,0,1,0-.43Zm.13-1.43.1.23a2.45,2.45,0,0,1,0,.54.3.3,0,0,1,0,.19c0,.13-.06.17-.1.14a1.23,1.23,0,0,1-.14-.47,1.56,1.56,0,0,1,.14-.63Zm-2.2-3c.2-.07.32-.05.38.06s-.07.34-.4.56c-.11.05-.08.13.1.22a.3.3,0,0,1,.23.27.31.31,0,0,1-.21.22.7.7,0,0,1-.29-.63c-.07-.43,0-.67.19-.7Zm.42-1.56a.65.65,0,0,1-.39.21c-.16,0-.24-.1-.25-.39s.16-1.1.37-2.41.35-2.08.4-2.29a1.61,1.61,0,0,0,.07-.69,1.61,1.61,0,0,1,.11-.78,3.83,3.83,0,0,0,.2-.89,2.34,2.34,0,0,1,.13-.69,6.31,6.31,0,0,0,.2-.86l.11-.44a7.59,7.59,0,0,1-.08,1.78c-.1,1.12-.25,2.61-.43,4.47a14.79,14.79,0,0,1-.44,3ZM146.62,46c.07-.07.11-.08.12,0a.71.71,0,0,1-.07.32c0,.15-.09.16-.11,0a.37.37,0,0,1,.06-.35Zm.95-1.71q-.06.8-.06,1.35a.65.65,0,0,1-.12.57s-.07,0-.08-.14a2.56,2.56,0,0,1,0-.39,1.5,1.5,0,0,1,0-.47,2.8,2.8,0,0,0,0-.71c0-.28,0-.52,0-.73l.19-.34a2.26,2.26,0,0,1,0,.86Zm-.86,1.11-.09-.17,0-.07a.26.26,0,0,1,0,.24Zm-.06-.72a.86.86,0,0,1,0-.5c.06-.13.1-.12.12,0a.94.94,0,0,1,0,.5ZM138,37.11a.55.55,0,0,1,.27-.17l0,.13a.59.59,0,0,1-.27.17Zm5.86-3a.18.18,0,0,1,.13-.21h.05c.14,0,.21,0,.23.09s.05.09.13,0,.11,0,.12,0-.1.14-.33.18-.31,0-.33-.13Zm-4.28.39a.1.1,0,0,1,.13.06.06.06,0,0,1,0,0c0,.08,0,.13-.19.15s-.19,0-.16-.1a.31.31,0,0,1,.21-.16Zm.38.06-.08-.11a.17.17,0,0,1,.25,0Zm.64-.23-.08-.11a.12.12,0,0,1,.17,0l0,0Zm1.56-.56a.46.46,0,0,1-.35.12.55.55,0,0,1,.55-.34Zm-.77.19-.08-.11a.24.24,0,0,1,.24,0Zm2.85-.89c-.1-.11-.09-.19,0-.25a1.06,1.06,0,0,1,.46-.2l.26.08a.19.19,0,0,1-.23.1c-.13,0-.18,0-.16.15s-.07.31-.35.11h0Zm-.83.13-.07-.05a.26.26,0,0,1,.24,0Zm2.74-.81-.2-.09.51-.27a1.92,1.92,0,0,1,.71-.11L147,32a.26.26,0,0,0-.17.09.08.08,0,0,0,0,.11h0c0,.23-.17.29-.64.16Zm-8.08,1.07-.13,0a.24.24,0,0,1,.24,0Zm1.59-.75c.08,0,.1,0,.05.12a.32.32,0,0,1-.1.13s0,0-.05-.11a.09.09,0,0,1,.07-.13Zm8.73-1.17c-.28,0-.27,0,0-.19l.13,0a.19.19,0,0,1-.16.15Zm-1.94.07-.13,0a.24.24,0,0,1,.24,0Zm2.14-.72-.13-.1a.16.16,0,0,1,.23,0h0ZM150.7,30a.12.12,0,0,1,.14.1.13.13,0,0,1-.1.14.12.12,0,0,1-.14-.1.11.11,0,0,1,.07-.14Zm5.79-.82a.25.25,0,0,1,.09-.23c.07-.07.12,0,.14.1s0,.22-.09.23a.12.12,0,0,1-.14-.08v0ZM141,66.15l.15-.21-.07-.11a.17.17,0,0,0-.09.2Zm12.57-3.94c.23,0,.35-.1.33-.17s0-.06-.09,0l-.32.11Zm-12.8-.91c.12,0,.17-.19.16-.52a6.94,6.94,0,0,0,0-.79.46.46,0,0,0-.06-.36,9.87,9.87,0,0,0-.16,1.07,2,2,0,0,0,0,.49h0Zm.61-1.87a.29.29,0,0,0,0-.24l0,.07ZM141,58.5c0-.24,0-.36-.12-.35a.14.14,0,0,0-.11.15v0a1.15,1.15,0,0,1,0,.37c0,.15,0,.21.09.2s.12-.14.13-.39Zm.33-.17a.18.18,0,0,1,0-.13l-.09-.17a.39.39,0,0,0-.11.44c.09.52.14.47.16-.14Zm0-2,.07-.32a2.43,2.43,0,0,0,0-.6l0-.24,0,.25a1.79,1.79,0,0,0,0,.61Zm6-2.69c0-.12,0-.18-.09-.17l-.08.26a.44.44,0,0,0,0,.48.53.53,0,0,0,.15-.57Zm-5.94,1.45a.26.26,0,0,0,0-.24l0,.07Zm.08-1.42a1.06,1.06,0,0,0,0-.5l-.12,0a1.23,1.23,0,0,0,0,.5l0,.24Zm14.61-7.5c.15-.07.18-.15.08-.23a.59.59,0,0,0-.5-.07.36.36,0,0,0-.2.06s0,.07.11.14a.89.89,0,0,0,.51.1ZM155,46c-.14-.1-.19-.07-.17.09s.1.23.22.21.17,0,.17-.09A.63.63,0,0,0,155,46Zm-6.53-7.43a1,1,0,0,0,.21-.43.75.75,0,0,0,.07-.53c0-.08,0-.12-.08-.11s-.26.2-.26.65a.56.56,0,0,0,.06.42Zm-9.76.48v.06a2.94,2.94,0,0,1,.65-.16c.28,0,.41-.13.39-.25s-.3-.17-.77.19l-.28.16Zm10.65-8.57c.24,0,.36,0,.35-.12s-.12-.11-.32-.1a.36.36,0,0,0-.35.15Z"/>
</svg>