<svg xmlns="http://www.w3.org/2000/svg" xmlns:xlink="http://www.w3.org/1999/xlink" width="859px" height="24px">
    <path fill-rule="evenodd" fill="rgb(31, 34, 38)"
          d="M611.648,9.580 C611.497,10.092 610.973,9.890 610.493,9.690 C610.249,9.588 610.077,9.308 609.848,9.292 C609.489,9.267 608.933,9.086 608.783,9.528 C608.687,9.812 608.704,10.117 608.258,9.713 C607.708,9.215 607.011,9.281 606.327,9.418 C604.936,9.697 604.204,9.505 603.516,8.602 C603.419,8.475 603.356,8.334 603.277,8.199 C603.212,8.336 603.162,8.478 603.078,8.608 C602.825,8.999 602.536,9.239 601.891,8.904 C601.770,8.841 601.340,9.128 601.034,9.222 C600.380,9.423 599.834,9.851 598.974,9.341 C598.595,9.116 597.708,9.273 597.094,9.384 C596.823,9.432 596.670,9.805 596.441,10.017 C596.142,10.294 595.823,10.558 595.777,9.909 C595.776,9.896 595.453,9.844 595.378,9.892 C595.109,10.065 594.868,10.265 594.644,10.472 C594.448,10.652 594.296,10.765 594.028,10.523 C593.479,10.026 592.674,10.049 591.913,9.999 C591.820,9.993 591.633,10.114 591.628,10.109 C590.916,9.325 589.852,9.641 588.891,9.615 C588.419,9.603 587.939,9.448 587.487,9.492 C587.168,9.522 586.906,9.801 586.585,9.921 C586.490,9.956 586.283,9.784 586.127,9.783 C585.500,9.779 584.823,9.698 584.258,9.842 C583.000,10.165 581.170,10.266 579.703,10.046 C579.028,9.945 578.307,10.004 577.607,9.991 C577.554,9.904 577.501,9.818 577.449,9.731 C577.358,9.823 577.266,9.914 577.175,10.005 C576.834,10.160 576.759,9.635 576.157,9.895 C575.447,10.200 574.391,10.112 573.485,10.111 C572.769,10.110 572.195,10.244 572.049,10.767 C571.950,11.123 571.753,11.174 571.362,11.127 C571.432,10.976 571.620,10.746 571.550,10.690 C571.312,10.499 570.984,10.370 570.686,10.145 C570.684,10.122 570.687,10.169 570.690,10.216 C570.800,10.183 570.925,10.163 571.012,10.109 C571.038,10.094 570.959,9.985 570.929,9.919 C570.847,9.971 570.764,10.023 570.686,10.145 C570.226,10.295 569.897,10.167 569.553,9.923 C568.669,9.297 567.675,9.110 566.620,9.716 C566.292,9.904 566.038,10.144 565.656,9.754 C565.587,9.683 565.237,9.733 565.030,9.767 C563.334,10.054 561.689,9.463 560.005,9.614 C559.468,9.662 558.888,9.498 558.411,9.894 C558.000,10.235 557.705,9.721 557.337,9.705 C556.446,9.663 555.531,9.902 554.667,9.489 C554.532,9.424 554.115,9.756 553.803,9.793 C553.540,9.824 553.174,9.584 552.969,9.652 C552.030,9.965 551.163,9.984 550.165,9.723 C549.703,9.602 549.043,9.879 548.476,9.988 C548.169,10.047 545.833,10.085 545.646,9.978 C545.129,9.681 544.694,9.122 543.970,9.774 C543.910,9.687 543.819,9.603 543.797,9.510 C543.744,9.273 543.464,9.069 543.397,9.378 C543.265,9.980 543.065,9.898 542.447,9.693 C541.516,9.383 541.184,9.276 540.711,8.708 C540.314,8.232 539.416,8.168 539.005,8.679 C538.615,9.162 537.908,9.166 537.443,9.463 C536.835,9.851 536.416,9.613 535.779,9.514 C534.688,9.345 533.496,9.523 532.347,9.556 C531.809,10.382 530.764,9.464 530.115,9.907 C529.602,9.441 528.917,9.729 528.310,9.691 C527.069,9.614 525.818,9.593 524.585,9.470 C524.168,9.428 523.592,9.216 523.442,8.967 C523.108,8.414 523.095,8.457 522.941,8.998 C522.909,9.109 522.523,9.223 522.291,9.237 C521.285,9.293 520.272,9.285 519.269,9.358 C518.828,9.390 518.209,9.743 518.012,9.630 C517.533,9.355 516.944,9.577 516.626,9.407 C515.631,8.872 514.806,9.371 513.939,9.532 C513.320,9.647 512.803,10.210 512.060,9.692 C512.022,9.665 511.611,9.966 511.341,10.068 C511.124,10.150 510.810,10.249 510.623,10.191 C509.676,9.900 508.959,9.823 507.768,9.940 C507.665,9.951 507.441,9.831 507.436,9.765 C507.404,9.349 506.980,9.500 506.678,9.422 C506.235,9.306 506.126,9.947 505.659,9.616 C505.325,9.380 505.086,9.585 504.758,9.656 C504.418,9.729 503.874,9.590 503.574,9.406 C502.725,8.886 501.771,8.950 500.793,8.988 C500.335,9.006 500.240,9.177 499.974,9.455 C499.247,10.213 498.356,10.179 497.095,9.654 C496.308,9.327 495.522,9.361 494.754,9.732 C494.602,9.806 494.343,9.852 494.185,9.809 C493.828,9.713 494.111,9.073 493.454,9.252 C493.090,9.351 492.868,9.704 492.514,9.855 C492.172,10.002 491.838,9.937 491.798,9.556 C491.792,9.497 491.572,9.450 491.451,9.398 C491.183,10.500 490.648,9.773 490.094,9.538 C489.765,9.398 489.244,9.310 488.911,9.400 C487.424,9.806 485.778,9.789 484.364,10.228 C483.607,10.463 483.234,10.520 482.814,10.091 C482.264,9.526 481.653,9.730 481.160,10.035 C480.716,10.309 479.998,10.444 479.886,10.215 C479.420,9.269 478.282,9.627 477.809,9.804 C477.078,10.078 476.796,10.252 476.510,9.559 C476.478,9.482 475.763,9.428 475.553,9.546 C475.028,9.840 474.634,10.169 474.464,9.375 C474.456,9.336 474.186,9.284 474.178,9.294 C473.644,10.007 472.666,9.068 472.094,9.600 C471.499,9.287 470.754,9.446 470.075,9.227 C469.389,9.006 468.456,9.169 467.637,9.216 C467.246,9.238 466.766,9.541 466.501,9.448 C465.181,8.985 464.001,9.789 462.738,9.597 C461.545,10.263 460.132,9.885 458.830,10.040 C458.236,10.111 457.673,9.882 457.008,10.060 C456.520,10.190 455.842,9.869 455.244,9.856 C454.420,9.839 453.533,9.779 452.855,10.243 C451.912,10.887 450.810,10.558 449.835,10.434 C449.165,10.349 448.154,10.327 447.984,9.542 C447.056,9.782 446.114,9.267 445.182,9.580 C444.515,9.803 443.851,10.057 443.148,10.186 C442.825,10.246 442.417,10.002 442.035,9.962 C441.087,9.860 440.183,9.749 439.388,9.273 C438.784,8.911 439.081,9.440 438.955,9.575 C438.697,9.852 438.098,9.211 437.904,9.765 C437.103,9.669 436.440,9.981 435.727,10.156 C435.213,10.283 434.749,10.366 434.129,10.254 C433.287,10.101 432.327,10.367 431.494,9.980 C430.654,10.816 429.722,9.934 428.824,10.048 C427.908,10.164 426.952,10.101 426.021,10.168 C425.349,10.216 424.663,10.067 424.025,10.516 C423.501,10.885 422.723,10.340 421.990,10.522 C421.337,10.684 420.583,10.687 419.880,10.663 C419.133,10.639 418.360,10.952 417.613,10.500 C417.360,10.347 416.790,10.463 416.367,10.476 C414.566,10.530 412.767,10.611 410.965,10.639 C410.332,10.649 409.598,11.195 409.046,10.499 C409.027,10.475 408.812,10.489 408.759,10.532 C408.154,11.021 407.665,10.638 407.078,10.479 C406.444,10.307 405.848,9.908 404.997,10.450 C404.553,10.733 403.471,10.616 402.753,10.473 C402.314,10.386 402.110,10.287 401.664,10.500 C401.398,10.627 400.837,10.388 400.404,10.365 C399.975,10.343 399.535,10.362 399.111,10.413 C398.973,10.430 398.865,10.601 398.755,10.708 C398.657,10.804 398.575,10.907 398.487,11.008 C398.431,10.919 398.322,10.826 398.330,10.740 C398.374,10.292 398.195,10.145 397.507,10.101 C396.661,10.046 395.876,9.541 395.018,10.184 C394.796,10.351 394.063,10.373 393.781,10.230 C392.939,9.806 392.253,9.860 391.511,10.318 C391.379,10.399 391.001,10.414 390.890,10.338 C390.346,9.966 389.570,9.923 389.128,10.132 C388.642,10.362 388.007,10.002 387.699,10.448 C386.731,10.376 385.752,10.722 384.776,10.347 C384.438,10.218 383.803,10.153 383.568,10.295 C382.621,10.868 381.914,10.471 381.242,10.059 C380.737,9.750 380.679,9.679 380.409,10.236 C380.198,10.670 379.161,10.260 378.536,10.713 C378.023,11.085 377.317,10.590 376.951,10.218 C376.404,9.662 375.561,10.091 375.012,9.824 C374.346,9.499 373.932,9.596 373.349,9.939 C372.923,10.189 372.459,9.923 372.248,9.438 C372.192,9.308 372.080,9.191 371.994,9.068 C371.934,9.156 371.843,9.240 371.819,9.333 C371.751,9.599 372.084,9.967 371.361,10.044 C370.908,10.092 370.302,10.469 370.076,10.357 C369.259,9.953 368.429,10.202 367.614,10.139 C367.422,10.124 367.258,9.927 367.077,9.819 C366.966,9.753 366.746,9.639 366.742,9.642 C366.097,10.251 364.918,9.580 364.207,10.231 C364.021,10.402 363.164,10.437 362.635,10.090 C362.326,9.888 360.877,10.067 360.110,9.925 C358.904,9.703 357.723,10.620 356.573,9.883 C356.494,9.832 356.209,9.844 356.162,9.896 C355.513,10.615 354.703,10.038 354.148,9.914 C352.240,9.488 350.396,9.770 348.526,9.929 C348.120,10.411 347.877,9.653 347.523,9.855 C347.249,10.012 347.015,10.208 346.733,10.355 C346.646,10.400 346.334,10.340 346.335,10.333 C346.351,9.989 346.128,9.835 345.683,9.917 C344.951,10.051 344.361,9.826 344.033,9.415 C343.547,8.805 343.124,9.307 342.690,9.384 C342.511,9.416 342.338,9.553 342.219,9.672 C341.800,10.095 341.476,10.086 340.826,9.802 C340.457,9.640 339.621,9.059 339.065,9.810 C337.054,9.863 335.044,9.917 333.034,9.970 C332.443,9.456 331.969,10.416 331.438,10.052 C330.890,9.676 330.256,9.745 329.648,9.811 C328.982,9.884 328.336,10.054 327.681,10.182 C326.693,9.706 326.692,9.703 325.728,9.920 C325.206,10.037 324.565,9.770 324.129,10.191 C324.095,10.225 323.881,10.218 323.839,10.179 C322.932,9.330 321.709,9.830 320.629,9.797 C320.199,9.783 319.759,10.098 319.315,10.113 C318.870,10.127 318.270,9.771 317.986,9.892 C316.388,10.573 315.030,9.441 313.526,9.654 C312.729,9.157 311.962,9.351 311.283,9.769 C310.632,10.169 309.905,9.947 309.568,9.679 C308.908,9.153 308.185,9.227 307.413,9.250 C306.260,9.285 305.105,9.369 303.955,9.349 C303.015,9.332 302.183,9.508 301.378,9.823 C301.224,9.883 300.966,10.029 300.947,10.013 C300.271,9.444 299.250,10.170 298.549,9.660 C298.392,9.546 296.462,9.775 296.336,9.879 C295.974,10.179 295.636,10.475 295.559,9.764 C295.431,9.803 295.210,9.827 295.194,9.883 C295.150,10.034 295.252,10.213 295.186,10.353 C295.135,10.463 294.936,10.560 294.773,10.607 C294.682,10.634 294.479,10.575 294.415,10.509 C294.222,10.309 294.123,10.048 293.890,9.887 C293.732,9.777 293.277,9.702 293.182,9.773 C292.617,10.203 292.187,10.031 291.507,9.849 C290.755,9.649 289.812,9.828 288.954,9.862 C288.861,9.865 288.701,9.998 288.702,10.069 C288.714,10.790 288.357,10.311 288.028,10.211 C287.130,9.939 286.182,9.709 285.262,10.122 C284.576,10.429 284.907,9.964 284.762,9.840 C284.649,9.744 284.378,9.670 284.213,9.698 C281.397,10.186 281.402,10.180 278.621,9.664 C278.157,9.578 277.649,9.594 277.163,9.604 C275.866,9.633 274.568,9.672 273.273,9.739 C273.061,9.750 272.703,9.906 272.687,10.016 C272.624,10.478 272.391,10.409 272.110,10.144 C271.540,9.608 271.089,9.726 270.594,10.215 C270.210,10.594 269.867,10.705 269.606,10.085 C269.425,9.655 268.881,9.565 268.239,9.551 C267.203,9.527 266.126,9.941 265.108,9.435 C265.046,9.404 264.709,9.633 264.539,9.769 C264.342,9.927 264.250,10.026 263.910,9.844 C263.373,9.559 262.846,9.696 262.462,10.096 C262.243,10.325 262.108,10.351 261.681,10.190 C260.657,9.802 260.623,9.866 259.193,10.697 C259.104,10.748 258.780,10.528 258.576,10.539 C258.230,10.557 257.893,10.659 257.552,10.726 C257.561,10.432 257.452,10.301 256.974,10.235 C256.333,10.146 255.751,9.842 255.113,9.710 C254.534,9.591 253.929,9.803 253.301,9.460 C252.896,9.238 252.150,9.501 251.521,9.200 C251.101,8.998 250.768,9.475 250.541,9.819 C250.227,10.293 250.135,10.298 249.712,9.828 C249.522,9.619 249.549,9.477 249.245,9.758 C248.551,10.397 247.747,10.443 247.110,9.859 C246.825,9.599 246.700,9.592 246.679,9.902 C246.653,10.279 246.288,10.426 246.019,10.256 C244.533,9.315 243.021,9.762 241.603,10.236 C240.714,10.533 240.063,10.607 239.347,10.084 C239.179,9.962 238.849,9.959 238.593,9.903 C237.691,9.705 236.894,10.221 235.909,10.039 C235.091,9.889 234.113,10.124 233.232,10.273 C232.577,10.384 232.543,9.854 232.118,9.810 C231.900,9.787 231.265,9.685 231.748,10.173 C231.828,10.254 231.545,10.695 231.388,10.709 C230.371,10.795 229.708,11.137 229.441,11.881 C229.421,11.940 229.097,12.005 229.086,11.991 C228.743,11.572 228.413,11.146 228.112,10.710 C228.089,10.677 228.366,10.562 228.373,10.480 C228.388,10.302 228.318,10.120 228.282,9.940 C228.063,10.047 227.844,10.154 227.625,10.261 C227.432,10.161 227.239,9.975 227.047,9.975 C225.967,9.981 224.882,10.001 223.807,10.078 C223.096,10.128 222.676,10.064 222.781,9.434 C222.793,9.362 222.261,9.150 222.221,9.179 C221.885,9.426 221.558,9.229 221.267,9.248 C220.013,9.329 218.714,8.474 217.513,9.316 C215.760,9.225 214.001,9.707 212.234,9.244 C211.898,9.155 211.396,9.473 210.955,9.519 C210.315,9.584 209.617,9.477 209.025,9.623 C208.520,9.747 208.134,9.903 207.630,9.651 C207.491,9.581 207.089,9.600 207.020,9.679 C206.548,10.222 206.141,9.861 205.609,9.736 C205.142,9.627 204.545,9.030 203.992,9.719 C203.958,9.762 203.521,9.589 203.272,9.589 C202.450,9.591 201.627,9.618 200.806,9.658 C200.699,9.663 200.621,9.842 200.502,9.864 C199.794,9.995 199.023,9.583 198.533,9.690 C197.950,9.816 197.234,10.140 196.791,9.952 C196.109,9.662 195.742,9.773 195.145,10.009 C194.846,10.127 194.117,9.681 193.846,9.804 C192.914,10.227 192.064,10.224 191.152,9.858 C190.363,10.358 189.534,9.795 188.692,9.898 C187.850,10.002 186.937,9.751 186.051,9.715 C185.158,9.678 184.252,9.888 183.386,9.493 C183.133,9.378 182.665,9.449 182.325,9.517 C180.480,9.883 180.488,9.861 178.355,9.654 C177.581,9.580 176.772,9.677 175.983,9.729 C175.855,9.738 175.673,9.913 175.644,10.029 C175.517,10.534 175.109,10.488 174.784,10.218 C174.162,9.704 173.342,9.571 172.724,9.948 C172.155,10.294 171.632,9.417 171.149,10.097 C170.899,10.448 170.204,10.635 169.691,10.875 C168.502,11.431 168.365,11.418 167.441,10.535 C167.147,10.255 166.938,10.283 166.595,10.466 C165.972,10.799 165.345,10.866 164.678,10.468 C164.274,10.226 162.057,9.991 161.584,10.214 C161.133,10.427 160.892,10.686 160.337,10.326 C160.201,10.238 159.670,10.538 159.306,10.569 C158.066,10.678 156.770,10.495 155.608,11.007 C155.470,11.068 155.139,11.035 155.020,10.951 C154.592,10.650 154.512,10.750 154.443,11.123 C154.422,11.231 153.978,11.414 153.849,11.370 C153.564,11.274 153.389,10.979 153.049,11.340 C152.964,11.430 152.578,11.489 152.476,11.428 C151.058,10.596 148.871,11.169 147.651,9.982 C147.171,9.515 146.489,9.702 145.890,9.797 C145.479,9.862 145.468,10.654 144.661,10.129 C144.319,9.906 143.881,10.571 143.269,10.186 C143.058,10.052 142.303,10.466 141.784,10.490 C141.343,10.511 140.855,10.209 140.439,10.263 C139.447,10.391 138.484,10.640 137.514,10.853 C137.274,10.906 137.154,11.262 137.158,11.567 C137.160,11.693 137.016,11.825 136.917,11.944 C136.896,11.969 136.739,11.975 136.715,11.951 C136.170,11.401 135.058,12.025 134.558,11.316 C134.556,11.292 134.559,11.340 134.562,11.387 C134.672,11.354 134.797,11.334 134.884,11.280 C134.910,11.264 134.831,11.156 134.801,11.090 C134.718,11.142 134.636,11.193 134.558,11.316 C134.261,11.184 133.960,10.982 133.655,10.708 C133.653,10.684 133.656,10.732 133.659,10.779 C133.769,10.746 133.894,10.725 133.981,10.672 C134.007,10.656 133.928,10.548 133.898,10.482 C133.815,10.534 133.733,10.585 133.655,10.708 C133.336,10.714 133.015,10.648 132.691,10.586 C131.852,10.425 131.116,10.603 129.855,10.854 C129.417,10.941 128.858,11.459 128.268,10.978 C128.203,10.925 127.905,10.929 127.867,10.974 C127.283,11.676 126.496,11.513 125.593,11.388 C124.769,11.274 123.827,11.529 123.047,11.355 C122.514,11.235 122.300,11.165 121.792,11.407 C121.510,11.542 120.769,11.299 120.346,11.099 C119.544,10.720 118.608,10.502 117.927,10.579 C117.156,10.665 116.371,10.674 115.594,10.735 C115.096,10.773 115.072,10.568 114.959,10.284 C114.898,10.129 114.372,9.958 114.099,9.990 C113.622,10.046 112.955,9.813 112.836,9.898 C112.112,10.415 111.448,9.968 110.774,9.928 C110.096,9.887 109.360,10.193 108.735,9.736 C108.647,9.671 108.195,9.738 108.190,9.768 C108.033,10.722 107.363,10.255 106.764,10.078 C106.680,10.054 106.454,10.218 106.347,10.323 C105.776,10.892 105.703,10.895 105.050,10.322 C104.747,10.058 104.422,10.038 104.218,10.302 C104.063,10.503 104.215,10.834 104.058,11.033 C103.929,11.197 103.621,10.612 103.318,10.997 C102.943,11.473 102.543,11.524 102.090,11.046 C102.015,10.967 101.800,10.856 101.769,10.874 C100.699,11.477 100.471,10.585 100.129,10.275 C99.650,9.840 98.682,9.887 98.464,9.260 C98.452,9.225 98.198,9.233 98.057,9.224 C97.410,9.184 97.205,10.041 96.254,9.626 C95.902,9.473 95.166,9.701 94.538,9.538 C93.939,9.382 93.174,9.680 92.578,9.293 C92.283,10.100 91.322,8.952 90.903,9.598 C90.827,9.714 89.389,9.215 88.926,8.956 C88.733,8.849 88.460,8.816 88.221,8.757 C87.611,8.608 87.141,9.108 86.389,8.864 C85.777,8.665 84.935,8.841 84.214,9.176 C83.676,9.425 82.928,9.301 82.232,9.512 C81.323,9.787 80.146,9.586 79.085,9.589 C78.823,9.059 78.327,10.040 77.962,9.489 C77.853,9.324 77.219,9.339 76.821,9.291 C76.685,9.275 76.496,9.279 76.400,9.337 C75.514,9.871 75.434,9.898 74.354,9.752 C74.234,9.736 74.139,9.616 74.033,9.545 C73.566,10.506 71.985,9.991 71.236,10.728 C70.440,11.511 69.949,11.439 69.030,10.754 C68.411,10.292 68.323,10.275 67.170,10.381 C66.476,10.444 65.905,9.944 65.030,10.214 C65.058,10.109 65.167,10.050 65.161,9.998 C65.146,9.861 65.081,9.727 65.036,9.591 C64.942,9.612 64.766,9.636 64.768,9.654 C64.781,9.825 64.823,9.995 65.030,10.214 C65.163,10.553 64.501,10.491 64.507,10.425 C64.598,9.534 63.177,10.197 62.934,9.536 C62.686,8.861 61.399,9.693 60.979,9.008 C60.739,9.094 60.392,9.133 60.280,9.274 C59.864,9.800 59.188,9.727 58.568,9.713 C58.011,9.700 58.265,9.323 58.182,9.028 C58.181,9.005 58.184,9.052 58.187,9.099 C58.297,9.066 58.421,9.046 58.509,8.992 C58.535,8.976 58.456,8.868 58.426,8.802 C58.343,8.854 58.261,8.905 58.182,9.028 C57.892,9.353 57.569,8.418 57.336,9.092 C57.136,9.672 56.805,9.801 56.102,9.500 C56.010,9.461 55.765,9.631 55.582,9.690 C55.398,9.749 55.208,9.823 55.015,9.834 C54.555,9.859 54.967,9.100 54.386,9.365 C53.921,9.577 53.729,9.519 53.298,9.358 C52.883,9.203 52.430,9.101 52.069,9.736 C51.758,10.283 50.399,10.332 49.847,10.962 C49.536,10.755 49.004,10.418 48.848,10.828 C48.596,11.489 48.393,11.434 47.747,11.102 C47.259,10.851 46.519,11.270 45.968,10.819 C45.627,10.541 45.137,11.376 44.585,10.844 C44.510,10.772 43.754,11.053 43.339,11.207 C42.458,11.533 42.157,11.482 41.838,10.884 C41.740,10.700 41.694,10.501 41.624,10.308 C41.533,10.472 41.455,10.642 41.342,10.798 C41.276,10.888 41.171,10.980 41.052,11.030 C40.824,11.125 40.573,11.191 40.331,11.269 C40.254,11.133 40.171,10.999 40.101,10.861 C40.001,10.660 40.317,10.086 39.508,10.582 C38.895,10.958 38.161,11.011 37.313,10.775 C36.853,10.647 36.651,10.624 36.566,10.234 C36.478,9.828 36.292,9.321 35.414,9.821 C35.085,10.008 34.818,9.744 34.797,9.411 C34.786,9.243 34.590,9.082 34.477,8.917 C34.298,9.029 34.106,9.133 33.943,9.257 C33.815,9.353 33.732,9.562 33.613,9.569 C32.535,9.628 31.454,9.658 30.373,9.680 C30.270,9.683 30.079,9.578 30.069,9.512 C29.978,8.896 29.558,8.896 29.141,9.298 C28.547,9.870 28.053,9.841 27.459,9.329 C27.345,9.231 26.985,9.135 26.928,9.177 C26.527,9.471 26.177,9.297 25.748,9.226 C25.341,9.159 24.969,9.168 24.584,8.958 C24.401,8.858 23.650,8.738 23.558,9.200 C23.400,9.978 23.013,9.377 22.869,9.254 C22.581,9.010 22.562,8.519 21.852,8.988 C21.543,9.193 20.947,9.170 20.478,9.231 C20.351,9.248 20.105,9.211 20.089,9.166 C20.002,8.917 20.013,8.540 19.552,8.991 C19.076,9.457 18.634,9.631 18.038,9.088 C17.770,8.842 17.389,8.666 17.094,8.435 C16.607,8.052 15.965,8.190 15.485,8.288 C14.406,8.511 12.302,8.948 11.304,8.670 C10.464,8.435 9.982,8.744 9.640,9.004 C8.953,9.524 8.057,9.589 7.249,9.777 C6.374,9.981 6.028,9.802 5.811,9.038 C5.676,8.563 5.394,8.585 4.950,8.605 C4.464,8.627 3.897,8.732 3.945,8.133 C3.673,8.204 3.401,8.275 3.129,8.347 C2.944,8.246 2.771,8.080 2.572,8.062 C2.297,8.037 1.783,8.795 1.800,7.906 C1.805,7.648 1.796,7.388 1.752,7.133 C1.658,6.603 1.400,6.918 1.177,7.081 C1.075,6.995 0.871,6.894 0.889,6.826 C0.975,6.498 1.122,6.180 1.247,5.858 C1.530,5.636 1.778,5.258 2.102,5.219 C3.731,5.023 5.336,4.610 6.386,4.260 C7.345,3.940 8.447,3.859 9.316,3.363 C10.735,4.064 11.537,2.784 12.739,2.785 C12.889,2.786 13.039,2.771 13.189,2.763 C13.198,2.920 13.208,3.078 13.101,3.386 C13.064,3.484 13.145,3.431 13.226,3.378 C13.159,3.332 13.091,3.287 13.024,3.242 C12.962,3.307 12.891,3.369 12.844,3.440 C12.836,3.452 12.931,3.501 13.101,3.386 C14.081,2.995 14.955,2.772 15.804,2.507 C16.264,2.363 16.778,1.958 16.671,2.777 C16.657,2.881 16.846,3.075 16.977,3.094 C17.138,3.118 17.384,3.035 17.510,2.939 C17.901,2.640 19.071,2.109 19.539,2.076 C19.893,2.050 20.250,2.046 20.605,2.039 C22.119,2.010 22.624,2.044 23.216,1.608 C23.853,1.139 24.305,1.810 25.017,1.668 C25.150,1.695 25.078,1.635 25.006,1.576 C24.944,1.625 24.883,1.675 24.822,1.724 C24.910,1.770 24.994,1.822 25.090,1.857 C25.106,1.862 25.173,1.793 25.017,1.668 C25.213,1.356 25.571,1.041 26.023,0.924 C27.010,0.667 27.526,0.866 27.817,1.723 C27.990,2.232 28.445,2.187 28.736,2.072 C30.151,1.514 31.859,1.457 33.130,0.671 C33.443,0.478 33.689,0.244 34.095,0.625 C34.199,0.722 34.788,0.709 34.907,0.600 C35.798,-0.219 35.918,0.572 36.307,0.916 C36.789,1.343 36.923,1.145 36.920,0.704 C36.920,0.648 37.275,0.529 37.442,0.548 C37.624,0.569 37.817,0.697 37.936,0.815 C38.133,1.010 38.275,1.236 38.441,1.449 C39.463,0.799 40.130,2.056 41.172,1.716 C41.601,1.576 42.283,1.484 42.767,1.889 C42.839,1.949 43.312,1.859 43.455,1.742 C43.773,1.484 44.102,1.189 44.242,0.867 C44.564,0.120 45.670,0.408 46.251,-0.003 C46.338,-0.065 46.947,0.222 47.241,0.410 C47.309,0.453 47.070,0.753 46.977,0.936 C46.883,1.119 46.778,1.301 46.711,1.489 C46.675,1.594 46.705,1.712 46.706,1.823 C47.065,1.812 47.425,1.801 47.784,1.788 C48.378,1.765 48.121,1.431 48.187,1.206 C48.302,0.813 49.050,0.640 49.421,0.907 C48.413,1.958 51.152,0.953 50.393,1.867 C51.015,2.184 51.629,2.510 52.268,2.806 C52.344,2.841 52.572,2.732 52.705,2.662 C53.498,2.246 54.106,3.002 54.870,2.837 C55.585,2.683 56.487,2.313 57.006,2.497 C58.053,2.868 57.743,2.433 57.771,2.052 C57.799,1.672 58.010,1.859 58.273,1.961 C58.459,2.033 58.768,1.989 58.995,1.935 C59.679,1.772 60.350,1.578 61.026,1.396 C61.114,2.018 62.027,1.967 62.446,2.333 C62.796,2.639 63.173,3.022 64.079,2.943 C64.211,2.969 64.140,2.910 64.068,2.850 C64.006,2.900 63.944,2.949 63.883,2.999 C63.972,3.045 64.056,3.097 64.152,3.132 C64.169,3.137 64.235,3.067 64.079,2.943 C64.054,2.744 64.275,2.517 64.406,2.542 C64.823,2.621 65.165,3.092 65.651,2.606 C65.693,2.565 65.846,2.583 65.947,2.574 C65.986,3.295 66.944,3.285 67.433,3.318 C67.901,3.349 68.495,2.924 68.918,2.615 C69.646,2.082 69.405,2.715 69.558,2.869 C69.777,3.093 70.519,2.818 70.415,3.363 C70.403,3.427 70.565,3.509 70.646,3.582 C70.709,3.494 70.793,3.411 70.829,3.318 C70.914,3.098 70.977,2.874 71.049,2.651 C71.200,3.498 72.471,2.134 72.578,3.070 C72.729,3.046 72.883,3.027 73.032,2.996 C73.225,2.955 73.414,2.904 73.605,2.858 C73.974,3.848 74.763,3.170 75.427,3.129 C76.389,3.070 77.322,3.057 78.303,3.313 C79.918,3.735 80.097,3.714 81.675,3.008 C82.517,2.631 83.202,2.692 84.077,2.803 C84.970,2.916 84.556,3.071 84.261,3.307 C84.450,3.354 84.776,3.472 84.809,3.437 C85.334,2.894 85.833,3.256 86.425,3.366 C87.016,3.476 87.705,3.288 88.151,3.774 C88.208,3.836 88.562,3.846 88.581,3.815 C88.948,3.219 89.533,3.525 90.076,3.588 C90.355,3.620 90.798,3.662 90.915,3.554 C91.951,2.590 93.729,3.173 94.892,2.494 C94.983,2.441 95.411,2.538 95.434,2.608 C95.750,3.619 97.230,3.086 97.904,3.620 C97.976,3.678 98.347,3.631 98.456,3.546 C98.902,3.201 99.392,2.719 100.036,2.995 C100.547,3.214 101.092,2.861 101.513,3.210 C101.603,3.285 101.935,3.176 102.140,3.207 C102.658,3.287 104.982,3.065 105.559,3.217 C106.791,3.541 107.986,2.397 109.128,3.265 C109.205,3.147 109.282,3.028 109.361,2.911 C109.421,2.823 109.487,2.736 109.550,2.649 C109.631,2.724 109.793,2.808 109.779,2.872 C109.620,3.610 110.221,3.586 110.935,3.564 C111.464,3.548 111.940,3.786 112.544,3.531 C112.988,3.343 113.631,3.425 114.063,3.830 C114.923,4.634 116.183,4.551 117.121,4.153 C117.953,3.800 118.893,4.183 119.689,3.628 C120.199,3.273 121.229,3.319 122.029,3.191 C122.232,3.158 122.459,3.176 122.644,3.118 C124.087,2.666 124.261,2.654 125.349,3.208 C125.919,3.498 126.114,3.512 126.306,2.928 C126.431,2.551 127.421,2.572 127.486,2.857 C127.661,3.624 128.533,3.377 128.746,3.253 C129.363,2.894 130.012,3.389 130.509,3.116 C130.975,2.862 131.607,3.305 131.973,2.865 C132.093,2.967 132.213,3.069 132.226,3.559 C132.241,3.693 132.316,3.583 132.346,3.467 C132.370,3.372 132.340,3.270 132.334,3.172 C132.194,3.250 131.974,3.311 131.936,3.409 C131.894,3.522 132.014,3.668 132.226,3.559 C132.753,3.125 133.110,3.164 133.420,3.426 C133.555,3.540 133.846,3.554 134.066,3.613 C133.836,3.687 133.592,3.745 133.383,3.843 C133.300,3.882 133.296,4.010 133.139,4.248 C133.103,4.345 133.184,4.293 133.265,4.240 C133.198,4.194 133.130,4.149 133.064,4.104 C133.000,4.169 132.930,4.231 132.883,4.302 C132.875,4.314 132.970,4.363 133.139,4.248 C133.610,4.086 133.967,4.087 134.319,4.060 C134.656,4.034 134.989,3.978 135.324,3.936 C135.121,3.758 134.912,3.583 134.719,3.400 C134.657,3.340 134.638,3.256 134.600,3.184 C134.724,3.151 134.898,3.062 134.964,3.094 C135.491,3.348 135.997,3.558 136.505,3.080 C136.664,3.254 136.823,3.428 136.983,3.602 C137.174,3.448 137.357,3.287 137.563,3.144 C137.630,3.097 137.769,3.062 137.853,3.079 C139.166,3.350 139.431,3.334 140.115,2.918 C140.125,3.076 140.114,3.372 140.148,3.375 C140.994,3.446 141.631,3.833 142.351,4.099 C142.567,4.179 143.158,4.243 143.183,3.852 C143.207,3.477 143.446,3.398 143.847,3.436 C144.783,3.525 145.415,3.275 145.712,2.596 C145.740,2.533 145.901,2.501 146.000,2.454 C146.056,2.543 146.178,2.641 146.158,2.719 C145.982,3.419 146.580,3.412 147.196,3.315 C147.717,3.234 148.208,3.039 148.731,2.966 C149.221,2.898 149.924,2.762 150.202,2.938 C150.813,3.327 151.146,2.842 151.610,2.843 C152.400,2.845 153.479,3.435 153.612,4.045 C153.761,4.731 154.031,4.942 154.748,4.575 C155.311,4.287 155.436,4.656 155.761,4.641 C156.697,4.601 157.643,4.628 158.566,4.531 C159.369,4.446 160.050,4.714 160.789,4.774 C161.464,4.830 161.990,4.348 162.750,4.389 C163.593,4.435 164.442,4.259 165.081,4.892 C165.268,5.076 165.758,5.037 165.775,4.630 C166.185,4.579 166.661,4.611 166.990,4.463 C168.461,3.805 169.890,4.106 171.281,4.539 C172.282,4.852 173.192,5.453 174.286,4.687 C174.336,4.652 174.700,4.831 174.883,4.941 C174.972,4.994 174.981,5.119 175.026,5.212 C175.740,4.646 176.999,5.264 177.631,4.590 C178.469,3.696 179.642,3.720 180.826,3.966 C181.163,4.036 181.226,3.983 181.455,3.881 C181.972,3.649 182.243,3.813 182.211,4.247 C182.188,4.555 182.293,4.781 182.792,4.708 C183.582,4.593 186.242,4.653 187.085,4.775 C187.556,4.844 188.084,4.907 188.533,4.821 C190.348,4.472 190.338,4.459 191.894,4.656 C192.123,4.685 192.432,4.641 192.614,4.542 C193.076,4.291 193.493,4.259 193.951,4.522 C194.055,4.581 194.250,4.672 194.300,4.645 C194.843,4.350 195.421,4.326 196.037,4.477 C196.390,3.827 197.151,4.824 197.529,4.277 C199.255,4.099 200.981,3.926 202.704,3.738 C202.959,3.710 203.108,4.360 203.406,3.796 C203.622,3.387 204.189,3.136 204.465,3.419 C204.787,3.750 205.506,3.462 205.694,4.114 C205.864,4.707 206.540,4.753 207.381,4.327 C208.253,3.885 209.179,3.852 210.151,3.812 C210.597,3.793 210.808,3.876 210.824,4.227 C210.828,4.295 211.261,4.431 211.289,4.407 C211.774,3.989 212.437,4.043 213.054,4.053 C213.583,4.062 214.006,3.540 214.585,3.903 C215.021,3.544 215.388,3.410 215.570,4.046 C215.584,4.095 215.926,4.147 215.935,4.133 C216.300,3.584 216.866,3.882 217.418,3.867 C218.211,3.846 218.904,4.022 219.639,4.137 C220.311,4.242 221.040,3.900 221.711,4.267 C221.787,4.309 222.141,4.154 222.284,4.036 C222.686,3.703 222.928,3.619 222.933,4.185 C222.933,4.222 223.023,4.290 223.074,4.291 C223.496,4.305 223.919,4.314 224.342,4.309 C224.774,4.305 225.209,4.252 225.638,4.279 C226.006,4.301 226.440,4.837 226.681,4.461 C227.038,3.904 227.510,4.860 227.848,4.311 C227.955,4.138 228.758,4.170 229.245,4.159 C229.701,4.150 229.890,4.034 229.842,3.691 C229.834,3.630 229.999,3.534 230.110,3.490 C230.385,3.381 230.912,3.194 230.926,3.212 C231.268,3.653 231.672,3.019 231.852,3.219 C232.024,3.413 231.947,3.720 232.019,3.971 C232.057,4.110 232.174,4.237 232.256,4.369 C232.318,4.229 232.418,4.091 232.433,3.949 C232.456,3.738 232.395,3.523 232.422,3.314 C232.428,3.273 232.675,3.208 232.797,3.221 C233.195,3.264 233.595,3.321 233.979,3.408 C234.187,3.455 234.283,3.765 234.605,3.488 C235.757,2.492 237.001,2.937 238.122,3.475 C238.786,3.793 239.273,4.078 239.944,3.542 C240.054,3.454 240.394,3.417 240.540,3.475 C241.599,3.896 242.695,2.959 243.777,3.553 C244.057,3.707 244.586,3.613 245.000,3.637 C245.874,3.689 246.956,3.244 247.453,4.194 C249.150,4.408 250.896,4.770 252.478,4.008 C253.156,3.680 253.489,3.850 253.651,4.238 C253.791,4.575 254.061,4.755 254.351,4.579 C255.298,4.005 256.399,4.270 257.421,4.213 C258.083,4.176 258.310,4.028 258.578,3.592 C258.895,3.079 259.023,3.127 260.177,3.635 C260.343,3.708 260.558,3.749 260.753,3.754 C261.111,3.764 261.473,3.737 261.833,3.725 C262.265,3.711 262.697,3.681 263.129,3.686 C264.114,3.698 263.105,4.068 263.300,4.208 C263.384,4.270 263.547,4.299 263.673,4.298 C264.178,4.292 264.706,4.191 265.181,4.271 C265.889,4.391 266.633,4.867 267.225,4.764 C267.945,4.638 268.519,4.375 269.349,4.579 C269.786,4.686 270.409,4.397 270.942,4.274 C271.191,4.216 271.542,4.015 271.650,4.074 C272.314,4.437 272.964,4.653 273.751,4.292 C274.561,4.824 275.513,4.498 276.401,4.515 C277.264,4.531 278.133,4.422 278.992,4.458 C279.466,4.478 279.767,3.928 280.411,4.357 C280.715,4.559 281.517,4.357 282.093,4.338 C282.670,4.319 283.246,4.301 283.822,4.282 C284.398,4.263 284.977,4.261 285.550,4.220 C285.999,4.188 286.228,4.288 286.215,4.638 C286.214,4.650 286.497,4.708 286.612,4.675 C287.547,4.410 288.411,4.510 289.409,4.634 C290.897,4.817 292.512,4.827 294.014,4.403 C294.201,4.349 294.407,4.237 294.575,4.261 C295.147,4.345 295.317,5.270 296.314,4.628 C296.600,4.443 297.426,4.752 298.007,4.765 C298.725,4.783 299.447,4.728 300.167,4.705 C302.184,4.639 304.203,4.590 306.217,4.496 C306.820,4.468 307.397,4.408 308.021,4.229 C309.029,3.939 310.312,3.843 310.989,4.866 C311.033,4.932 311.455,4.861 311.701,4.854 C311.590,4.360 312.194,4.340 312.558,4.176 C312.770,4.081 313.038,4.053 313.281,3.995 C313.205,4.147 313.110,4.298 313.073,4.455 C313.066,4.485 313.358,4.607 313.402,4.582 C314.667,3.860 315.834,4.446 317.051,4.685 C317.939,4.860 318.871,4.941 319.522,4.243 C319.771,3.975 320.047,4.064 320.418,4.198 C321.132,4.456 321.904,4.631 322.665,4.808 C322.885,4.859 323.275,4.869 323.378,4.774 C323.892,4.302 324.235,4.705 324.624,4.864 C325.043,5.035 325.120,4.417 325.660,4.657 C325.927,4.776 326.562,4.474 326.801,4.599 C327.293,4.856 327.762,4.693 328.230,4.750 C328.626,4.799 329.026,5.127 329.386,4.707 C331.243,5.112 333.188,5.013 335.076,5.241 C335.230,5.259 336.772,5.063 336.836,4.977 C337.286,4.363 337.882,4.618 338.495,4.788 C338.868,4.892 339.267,4.959 339.663,5.001 C339.944,5.031 340.260,4.935 340.522,4.992 C341.053,5.108 341.547,5.381 342.078,5.418 C342.598,5.455 343.141,5.239 343.683,5.206 C344.538,5.153 345.478,4.996 346.237,5.191 C346.899,5.361 347.610,4.784 348.154,5.359 C348.221,5.429 348.595,5.304 348.778,5.358 C349.514,5.576 350.012,4.753 350.677,5.089 C351.307,5.407 351.921,5.218 352.530,5.212 C353.300,5.205 354.015,5.260 354.760,5.446 C355.298,5.580 355.935,5.513 356.557,5.468 C357.921,5.370 359.310,5.136 360.735,5.554 C361.469,5.769 362.441,5.540 363.306,5.512 C364.603,5.469 365.904,5.466 367.194,5.375 C368.603,5.275 369.920,5.523 371.251,5.782 C371.475,5.826 371.774,5.807 371.977,5.730 C372.380,5.577 372.813,5.733 373.264,5.546 C373.690,5.369 374.701,5.361 374.863,5.552 C375.301,6.066 375.622,5.138 376.063,5.609 C376.273,5.833 377.122,5.686 377.610,5.833 C377.966,5.939 378.159,5.920 378.527,5.855 C379.460,5.691 380.513,5.487 381.394,5.653 C383.180,5.991 384.891,5.708 386.633,5.632 C386.784,5.625 388.210,5.669 388.419,5.766 C388.959,6.017 389.355,5.955 389.920,5.701 C390.835,5.289 391.830,4.881 392.989,5.440 C393.287,5.583 393.822,5.455 394.248,5.459 C394.739,5.463 395.456,5.328 395.679,5.513 C396.264,5.996 396.813,5.299 397.034,5.502 C397.450,5.885 397.802,5.061 398.200,5.575 C398.367,5.791 399.041,5.839 399.498,5.876 C400.061,5.921 400.765,6.026 401.180,5.836 C401.990,5.464 402.580,5.450 403.478,5.733 C403.934,5.877 404.706,5.586 405.473,5.677 C407.257,5.888 409.101,5.824 410.920,5.868 C411.136,5.873 411.403,5.793 411.558,5.861 C411.918,6.018 412.231,6.400 412.552,6.394 C412.857,6.388 413.145,6.002 413.450,5.791 C413.490,5.763 413.623,5.759 413.656,5.784 C413.899,5.968 414.081,6.249 414.370,6.330 C414.740,6.434 414.068,5.592 414.948,5.909 C416.009,6.290 417.069,6.660 418.210,5.971 C418.394,5.860 418.923,5.939 419.195,6.055 C419.537,6.201 419.871,6.359 420.085,6.062 C420.509,5.476 421.232,6.474 421.596,5.869 C422.244,6.473 423.020,6.400 423.863,6.128 C423.958,6.097 424.301,6.339 424.309,6.330 C425.146,5.526 426.250,5.909 427.257,5.982 C428.285,6.057 429.367,5.589 430.357,6.177 C430.522,6.274 431.027,6.249 431.176,6.137 C431.591,5.825 431.873,5.711 432.421,6.034 C432.630,6.157 433.020,5.562 433.614,5.922 C433.947,6.123 434.579,5.427 435.159,6.005 C435.300,6.145 436.172,6.080 436.719,5.784 C437.007,5.629 437.696,5.930 438.200,5.918 C438.629,5.907 439.064,5.646 439.476,5.671 C439.989,5.702 440.577,5.830 440.959,6.068 C441.532,6.423 442.006,5.538 442.489,6.079 C442.778,5.818 443.034,5.657 443.548,5.903 C443.746,5.998 444.203,5.775 444.549,5.736 C444.740,5.715 445.020,5.725 445.137,5.811 C445.710,6.230 446.635,6.112 446.934,5.927 C447.983,5.274 448.999,5.750 449.811,5.979 C450.439,6.155 451.120,5.353 451.516,6.121 C452.193,6.049 452.880,6.224 453.569,5.898 C453.891,5.746 454.797,6.125 454.977,5.971 C455.552,5.479 455.939,5.768 456.413,5.975 C456.464,5.998 456.554,5.974 456.626,5.971 C459.383,5.863 462.135,6.345 464.893,6.016 C465.394,5.956 465.964,5.679 466.357,5.788 C466.945,5.951 467.379,6.054 467.859,5.701 C467.903,5.669 468.073,5.698 468.157,5.733 C469.285,6.206 469.286,6.218 469.936,6.020 C470.806,5.756 471.671,5.588 472.441,6.174 C472.856,6.490 473.298,6.443 473.775,6.270 C474.253,6.097 474.735,5.930 475.225,5.775 C475.409,5.716 475.685,5.620 475.806,5.676 C476.964,6.206 478.027,5.677 479.136,5.574 C479.722,5.520 480.348,5.381 480.968,5.752 C481.237,5.913 481.941,5.798 482.369,5.669 C483.128,5.440 483.817,5.061 484.333,5.909 C484.392,6.005 484.847,5.999 485.116,5.993 C486.269,5.966 487.422,5.886 488.574,5.899 C489.242,5.906 489.909,6.050 490.575,6.139 C491.126,6.213 491.440,5.488 492.240,5.991 C492.646,6.247 493.612,6.000 494.322,6.023 C494.930,6.042 495.609,5.777 496.134,6.240 C496.194,6.293 496.474,6.302 496.529,6.255 C497.042,5.812 497.943,5.632 498.435,5.743 C499.250,5.927 499.980,5.767 500.739,5.794 C501.528,5.823 502.323,5.739 503.115,5.736 C503.461,5.734 503.807,5.812 504.152,5.854 C503.935,5.060 504.718,5.726 504.891,5.578 C505.332,5.200 505.390,5.409 505.455,5.733 C505.470,5.813 505.608,5.880 505.690,5.952 C506.188,5.240 506.761,5.953 507.280,5.896 C507.662,5.854 508.034,5.698 508.377,5.550 C508.770,5.382 508.931,6.060 509.423,5.661 C509.580,5.534 510.828,6.021 511.113,6.211 C511.200,6.269 511.383,6.249 511.522,6.265 C511.229,5.394 512.167,6.170 512.454,5.899 C512.865,5.511 513.462,5.644 513.904,6.011 C514.629,5.644 515.443,6.824 516.138,5.941 C517.966,6.021 519.807,5.522 521.630,6.015 C521.799,6.061 522.164,6.052 522.189,6.001 C522.604,5.174 523.442,5.770 524.068,5.682 C524.120,5.768 524.173,5.855 524.226,5.941 C524.318,5.850 524.409,5.759 524.500,5.668 C525.041,5.848 525.526,5.104 526.088,5.616 C526.603,5.373 527.178,5.325 527.662,5.577 C528.174,5.844 528.391,4.963 528.794,5.449 C528.982,5.675 528.804,5.876 529.386,5.643 C529.915,5.432 530.714,5.567 531.392,5.585 C531.795,5.595 532.193,5.695 532.597,5.718 C533.271,5.755 533.872,5.446 534.631,5.621 C535.278,5.770 536.068,5.659 536.775,5.572 C537.575,5.474 538.339,5.594 538.977,5.856 C539.738,6.169 540.304,6.232 541.094,5.883 C541.555,5.679 542.403,5.363 542.739,6.154 C542.754,6.190 543.010,6.170 543.154,6.177 C543.099,5.575 543.395,5.609 544.041,5.819 C544.518,5.975 545.131,5.907 545.684,5.931 C546.125,5.951 546.545,5.919 546.789,5.588 C547.055,5.760 547.295,6.045 547.591,6.081 C548.170,6.150 548.981,6.507 549.209,5.688 C549.218,5.654 549.513,5.611 549.618,5.652 C550.735,6.085 552.003,5.970 553.185,6.173 C553.760,6.272 554.444,5.956 555.077,5.960 C556.681,5.969 558.284,6.076 559.889,6.093 C560.419,6.098 561.044,6.247 561.475,5.808 C561.563,5.719 561.906,5.676 562.061,5.727 C563.273,6.127 564.515,5.191 565.719,5.795 C566.430,6.151 567.426,5.535 568.081,6.143 C568.179,6.065 568.267,5.979 568.375,5.910 C568.638,5.742 568.712,5.427 569.322,5.714 C569.748,5.915 570.549,5.739 571.157,5.643 C571.372,5.609 571.457,5.390 571.783,5.594 C572.903,6.298 574.097,6.071 575.301,5.691 C575.502,5.627 576.005,5.707 576.005,5.729 C576.036,6.497 576.931,6.274 577.244,6.145 C578.241,5.735 579.134,5.788 580.168,6.048 C580.576,6.150 581.298,6.245 581.680,5.803 C581.785,5.682 581.815,5.528 581.879,5.389 C581.959,5.524 582.004,5.679 582.125,5.790 C582.564,6.193 583.308,6.082 583.637,5.911 C584.256,5.592 584.698,5.458 585.310,5.850 C585.435,5.930 585.793,5.953 585.906,5.883 C586.787,5.339 587.706,5.971 588.587,5.807 C589.356,6.442 590.532,5.750 591.339,6.264 C591.383,6.291 591.476,6.332 591.490,6.323 C591.794,6.117 591.530,5.337 592.522,5.820 C592.955,6.031 593.502,6.156 594.019,6.212 C594.284,6.241 594.705,6.090 594.866,5.921 C595.229,5.542 595.531,5.601 595.797,5.920 C596.268,6.483 597.078,5.349 597.500,6.118 C597.515,6.147 598.012,6.107 598.036,6.046 C598.223,5.559 598.299,5.133 598.697,6.005 C598.863,6.369 599.293,6.385 599.799,6.106 C600.070,5.957 600.775,5.956 601.013,6.112 C601.552,6.465 602.184,6.409 602.619,6.272 C603.413,6.023 604.046,6.638 604.914,6.287 C605.595,6.012 606.604,6.176 607.467,6.147 C608.260,6.120 609.052,6.095 609.845,6.069 C610.709,6.041 611.574,6.012 612.438,5.984 C613.303,5.956 614.169,5.895 615.032,5.911 C615.643,5.922 616.307,5.656 616.873,6.053 C616.960,6.114 617.218,6.160 617.236,6.139 C617.835,5.430 618.762,6.430 619.383,5.913 C619.683,5.662 620.063,5.652 620.258,5.918 C620.680,6.490 621.530,6.221 622.123,6.500 C622.719,6.780 623.430,6.652 624.038,6.266 C624.205,6.160 624.683,6.326 625.020,6.355 C625.167,6.368 625.319,6.350 625.469,6.346 C625.429,5.730 625.874,5.669 626.331,6.048 C626.950,6.563 627.455,6.394 628.098,6.123 C628.504,5.952 628.942,5.449 629.488,6.009 C631.161,5.995 632.806,6.516 634.482,6.207 C635.385,6.040 636.225,5.985 637.161,6.106 C638.138,6.232 640.496,5.627 641.418,5.204 C641.510,5.162 643.150,5.428 643.246,5.508 C643.487,5.708 644.207,5.462 644.105,6.010 C644.099,6.044 644.680,6.218 644.745,6.166 C645.517,5.536 646.098,5.870 646.729,6.303 C646.870,6.400 647.418,6.373 647.425,6.349 C647.805,4.997 648.921,6.534 649.502,6.057 C649.892,6.381 650.166,6.371 650.736,6.117 C651.334,5.851 652.134,5.914 652.935,6.147 C653.339,6.264 654.093,6.771 654.687,6.207 C655.340,6.955 655.875,6.082 656.487,6.122 C656.665,6.134 656.983,5.956 657.037,5.822 C657.187,5.445 657.278,5.350 657.490,5.792 C657.705,6.241 658.107,6.450 658.777,6.389 C659.277,6.345 659.876,6.469 660.268,6.306 C660.794,6.087 661.021,6.871 661.515,6.399 C662.041,5.898 662.303,6.685 662.802,6.582 C663.140,6.513 663.523,6.573 663.877,6.532 C665.341,6.362 665.700,6.365 667.102,6.615 C667.184,6.629 668.249,6.315 668.351,6.279 C668.475,6.235 668.670,6.175 668.755,6.214 C669.619,6.614 670.580,6.555 671.534,6.648 C672.641,6.757 673.720,6.892 674.842,6.822 C675.620,6.773 676.212,6.557 676.567,6.030 C676.620,5.950 676.716,5.886 676.793,5.815 C676.862,5.899 677.002,5.991 676.988,6.067 C676.875,6.663 677.230,6.821 677.980,6.720 C678.467,6.654 679.050,6.759 679.443,6.595 C679.795,6.449 679.892,6.410 680.247,6.586 C680.794,6.858 681.433,7.045 682.064,7.198 C682.247,7.242 682.526,7.019 682.780,6.972 C683.434,6.850 683.900,6.395 684.688,6.476 C685.154,6.523 685.304,6.622 685.287,6.945 C685.263,7.396 685.341,7.481 685.924,7.150 C686.407,6.876 686.625,7.215 686.632,7.593 C686.635,7.731 686.769,7.867 686.843,8.004 C686.914,7.875 687.002,7.750 687.052,7.617 C687.298,6.969 687.848,7.117 688.422,7.329 C688.890,7.501 689.353,7.894 689.824,7.319 C689.870,7.263 690.087,7.275 690.226,7.271 C691.125,7.248 692.040,7.127 692.876,7.502 C693.589,6.959 694.276,7.098 695.134,7.392 C695.656,7.571 696.410,7.405 697.056,7.361 C698.174,7.285 699.238,7.240 699.741,7.623 C700.393,8.120 701.158,7.086 701.621,7.823 C702.159,7.094 702.666,7.271 703.338,7.769 C703.544,7.921 704.171,7.733 704.597,7.764 C705.481,7.831 706.421,7.417 707.273,7.967 C707.426,8.066 707.927,7.907 708.247,7.824 C708.780,7.685 709.403,7.152 709.624,8.051 C709.628,8.069 709.914,8.079 710.046,8.045 C710.486,7.932 710.947,7.835 711.343,7.660 C711.815,7.450 712.034,7.426 712.217,7.886 C712.394,8.331 712.914,8.527 713.559,8.417 C714.157,8.316 714.876,8.604 715.355,8.119 C716.037,8.540 716.714,7.621 717.468,8.147 C718.008,8.523 719.050,7.995 719.550,8.655 C719.763,8.935 719.970,8.771 720.154,8.598 C720.668,8.113 721.277,7.892 721.916,8.439 C722.511,8.948 723.429,8.892 723.875,8.679 C725.143,8.072 726.351,8.387 727.332,8.799 C728.014,9.086 728.235,8.491 728.739,8.723 C729.182,8.928 729.734,9.139 730.222,9.120 C730.832,9.096 731.277,9.304 731.799,9.404 C732.130,9.468 732.600,9.484 732.850,9.355 C733.249,9.149 733.498,8.857 733.535,9.493 C733.535,9.502 733.868,9.552 733.940,9.501 C734.387,9.185 734.670,8.742 735.492,9.246 C735.752,9.407 736.607,9.056 737.183,8.921 C737.669,8.808 738.230,8.815 738.652,8.682 C739.467,8.427 738.975,9.248 739.731,9.237 C740.468,9.225 740.474,9.452 741.589,9.429 C743.337,9.394 745.104,9.099 746.836,9.558 C747.024,9.608 747.354,9.480 747.466,9.556 C748.343,10.152 748.559,9.052 749.068,9.204 C749.621,9.370 749.987,9.950 750.528,10.037 C751.132,10.136 752.140,10.340 752.302,9.448 C752.306,9.422 752.678,9.398 752.861,9.429 C753.315,9.508 753.760,9.616 754.206,9.718 C754.365,9.755 754.563,9.877 754.666,9.841 C754.985,9.729 755.439,9.388 755.537,9.441 C756.018,9.699 756.294,9.577 756.629,9.319 C756.657,9.297 757.036,9.506 757.228,9.629 C757.266,9.653 757.226,9.806 757.162,9.842 C756.984,9.942 756.775,10.012 756.578,10.094 C756.776,10.124 756.972,10.162 757.172,10.182 C757.512,10.216 757.938,10.156 758.174,10.286 C758.512,10.472 758.627,10.375 758.804,10.203 C759.184,9.831 759.492,9.635 760.173,10.029 C760.819,10.404 761.717,10.346 762.563,10.342 C764.816,10.330 767.068,10.380 769.319,10.437 C769.702,10.447 770.075,10.619 770.458,10.705 C770.921,10.810 771.370,11.294 771.885,10.723 C771.939,10.663 772.355,10.782 772.604,10.812 C772.940,10.852 773.293,10.950 773.609,10.907 C774.062,10.846 774.655,10.490 774.893,10.601 C775.363,10.821 775.780,10.855 776.281,10.843 C776.619,10.834 776.961,10.894 777.301,10.923 C777.016,10.998 776.660,11.019 776.464,11.161 C776.148,11.389 775.662,11.763 775.747,11.955 C775.883,12.263 776.428,12.472 776.801,12.723 C777.009,12.523 777.391,12.323 777.392,12.123 C777.393,11.591 777.571,11.278 778.310,11.059 C778.790,10.916 779.091,10.774 779.440,11.138 C779.521,11.222 779.649,11.283 779.755,11.355 C780.575,10.331 782.000,11.759 782.871,10.939 C783.795,11.076 784.830,11.071 785.608,11.398 C786.210,11.651 786.719,11.742 787.361,11.761 C787.972,11.780 788.572,11.569 789.229,11.873 C789.527,12.012 790.180,11.677 790.679,11.658 C791.062,11.644 791.507,11.731 791.827,11.883 C792.076,12.002 792.176,12.291 792.342,12.505 C792.483,12.306 792.624,12.108 792.765,11.909 C793.086,12.167 793.395,12.218 793.682,11.881 C793.933,12.105 794.223,12.239 794.439,11.887 C794.707,11.451 795.297,11.828 795.480,11.684 C796.027,11.253 796.314,11.552 796.723,11.776 C796.981,11.917 797.328,12.021 797.646,12.039 C798.397,12.082 799.160,11.883 799.892,12.267 C800.070,12.360 800.742,12.158 800.956,11.958 C801.574,11.380 802.407,11.651 803.143,11.563 C803.210,11.555 803.367,11.697 803.385,11.780 C803.453,12.093 803.467,12.291 803.958,11.948 C804.220,11.765 804.717,11.773 805.091,11.665 C806.341,11.304 806.339,11.298 806.356,12.787 C806.372,12.922 806.447,12.812 806.476,12.695 C806.500,12.601 806.471,12.499 806.465,12.400 C806.325,12.478 806.104,12.539 806.067,12.638 C806.024,12.751 806.144,12.897 806.356,12.787 C806.968,12.384 807.474,12.382 807.974,12.346 C808.396,12.315 808.638,12.369 808.683,12.735 C808.693,12.819 809.132,12.956 809.341,12.930 C810.356,12.801 811.432,13.103 812.415,12.558 C812.802,12.343 813.258,12.762 813.448,13.132 C813.497,13.226 813.656,13.289 813.764,13.367 C813.950,13.182 813.718,12.464 814.532,13.073 C814.782,13.261 815.280,13.258 815.641,13.379 C816.701,13.736 817.728,13.837 818.786,13.346 C819.295,13.110 819.535,13.297 819.558,13.726 C819.566,13.885 819.787,14.037 819.910,14.192 C820.693,13.640 821.156,14.430 821.766,14.425 C822.416,14.420 823.075,14.096 823.709,14.128 C824.341,14.160 824.931,14.508 825.570,14.628 C825.970,14.704 826.433,14.582 826.856,14.619 C827.054,14.635 827.219,14.824 827.410,14.923 C827.604,15.024 827.811,15.110 828.012,15.203 C828.504,14.580 829.042,15.008 829.605,15.128 C829.765,15.162 831.001,15.408 830.057,14.663 C830.010,14.625 832.227,14.008 832.405,14.172 C832.905,14.631 833.861,14.679 834.169,15.318 C834.322,15.633 834.623,15.972 834.992,16.145 C835.187,16.236 835.665,15.975 836.026,15.904 C836.230,15.863 836.463,15.857 836.667,15.890 C836.749,15.903 836.873,16.106 836.834,16.145 C836.348,16.632 837.099,16.552 837.190,16.481 C837.677,16.098 838.035,16.066 838.592,16.455 C839.123,16.826 839.194,16.772 840.869,16.696 C841.718,17.224 842.509,16.906 843.323,16.627 C843.470,16.577 843.752,16.634 843.902,16.713 C844.837,17.207 844.820,17.226 846.307,17.223 C846.896,17.222 846.507,17.605 846.640,17.789 C846.702,17.875 846.757,17.965 846.815,18.053 C846.903,18.000 847.070,17.946 847.068,17.895 C847.036,16.806 848.388,18.089 848.585,17.413 C848.893,18.237 850.676,17.857 850.789,18.876 C850.803,19.003 851.201,19.181 851.444,19.204 C851.943,19.251 852.494,19.258 852.338,18.656 C852.305,18.529 852.444,18.378 852.503,18.237 C852.584,18.312 852.746,18.395 852.733,18.459 C852.576,19.194 853.170,19.191 853.886,19.145 C855.296,19.054 856.639,19.153 857.764,19.907 C857.922,20.012 858.311,19.916 858.582,19.955 C858.657,19.966 858.690,20.130 858.743,20.224 C857.786,20.280 858.236,20.490 858.574,20.800 C859.421,21.578 859.013,22.435 857.658,22.841 C857.421,22.912 857.178,22.972 856.937,23.038 C857.187,23.105 857.477,23.136 857.673,23.252 C857.787,23.319 857.751,23.523 857.782,23.666 C857.628,23.644 857.474,23.606 857.319,23.604 C857.074,23.600 856.720,23.548 856.604,23.644 C856.315,23.880 856.202,23.714 855.957,23.626 C855.778,23.562 855.478,23.666 855.238,23.713 C854.981,23.765 854.728,23.832 854.479,23.903 C853.603,24.153 852.762,23.702 851.787,23.923 C851.008,24.099 849.987,23.667 849.064,23.545 C848.588,23.482 848.091,23.496 847.603,23.491 C846.779,23.483 846.214,23.323 845.209,22.790 C845.102,22.733 844.992,22.629 844.883,22.629 C844.028,22.627 843.108,22.795 842.336,22.614 C841.537,22.426 840.913,22.285 840.258,22.744 C840.216,22.773 840.118,22.790 840.064,22.776 C839.379,22.594 838.712,22.301 838.010,22.245 C837.179,22.179 837.166,22.266 836.402,21.829 C836.545,21.849 836.625,21.929 836.695,21.925 C836.882,21.914 837.065,21.866 837.249,21.833 C837.220,21.764 837.187,21.634 837.163,21.635 C836.931,21.644 836.700,21.676 836.402,21.829 C836.351,21.944 836.197,21.925 836.066,21.958 C835.624,22.067 835.143,22.344 834.765,22.279 C834.218,22.186 833.912,22.884 833.351,22.425 C833.016,22.151 832.598,21.933 832.248,21.668 C831.763,21.302 831.798,21.562 831.708,21.857 C831.602,22.206 831.131,22.238 830.943,21.987 C830.580,21.501 830.014,21.749 829.547,21.661 C829.829,21.030 828.655,21.410 828.562,20.877 C828.509,20.572 827.705,20.357 827.293,20.062 C826.721,19.652 826.727,19.598 825.643,19.769 C825.322,19.819 824.600,18.980 824.628,19.965 C824.628,19.978 824.384,20.034 824.346,20.005 C823.277,19.175 822.010,19.475 820.824,19.742 C820.489,19.817 820.413,19.761 820.193,19.669 C819.092,19.211 818.194,19.464 817.390,20.108 C817.227,20.238 816.919,20.269 816.677,20.345 C816.735,20.194 816.830,20.043 816.841,19.890 C816.851,19.750 816.830,19.553 816.711,19.479 C816.596,19.408 816.262,19.400 816.156,19.471 C815.639,19.814 815.216,20.039 815.090,19.277 C814.939,19.297 814.788,19.324 814.635,19.337 C813.800,19.409 812.966,19.517 812.128,19.533 C811.587,19.543 811.309,19.254 811.146,18.858 C811.095,18.735 810.575,18.663 810.278,18.675 C810.141,18.681 809.946,18.940 809.918,19.098 C809.874,19.353 809.989,19.649 809.438,19.631 C809.127,19.621 808.843,19.726 808.579,19.381 C808.225,18.919 808.109,18.966 807.319,19.385 C807.032,19.501 806.755,19.634 806.453,19.719 C806.385,19.738 806.159,19.603 806.129,19.516 C806.023,19.205 805.768,19.007 805.540,19.135 C805.367,19.232 805.306,19.430 805.159,19.562 C804.955,19.744 804.717,19.907 804.494,20.077 C804.386,19.903 804.323,19.699 804.160,19.560 C803.806,19.260 803.214,19.073 803.370,18.558 C803.508,18.447 803.646,18.336 803.693,18.123 C803.860,18.105 804.026,18.203 804.186,18.199 C804.326,18.196 804.461,18.078 804.598,18.011 C804.399,17.877 804.201,17.743 804.002,17.609 C803.907,17.707 803.812,17.805 803.693,18.123 C803.646,18.336 803.508,18.447 803.370,18.558 C803.060,18.521 802.597,18.738 802.501,18.335 C802.412,17.963 802.345,17.901 801.916,18.190 C801.704,18.332 801.254,18.303 800.909,18.311 C800.720,18.315 800.527,18.236 800.336,18.193 C800.912,17.114 799.105,17.683 798.947,17.037 C798.946,17.014 798.948,17.061 798.951,17.108 C799.061,17.075 799.186,17.055 799.273,17.001 C799.299,16.985 799.220,16.877 799.190,16.811 C799.107,16.863 799.025,16.915 798.947,17.037 C798.432,17.314 797.899,16.652 797.384,17.121 C797.221,16.946 797.057,16.770 796.893,16.595 C796.699,16.751 796.538,16.947 796.303,17.057 C795.667,17.352 794.535,17.291 793.961,16.949 C793.477,16.660 793.110,16.218 792.331,16.359 C792.234,16.377 791.987,16.262 791.993,16.229 C792.263,14.981 791.169,15.819 790.709,15.798 C789.993,15.766 789.232,15.942 788.561,15.821 C787.962,15.712 787.540,16.492 786.930,15.925 C786.899,15.897 786.327,16.111 786.107,16.282 C785.674,16.618 785.457,16.672 785.464,16.124 C784.628,16.015 783.703,15.695 782.985,15.861 C782.414,15.994 782.101,16.076 781.766,15.749 C781.354,15.348 781.126,15.570 780.835,15.824 C780.694,15.946 780.632,16.096 780.223,15.980 C779.230,15.698 778.098,15.755 777.118,15.381 C776.530,15.157 776.049,15.268 775.655,15.658 C775.265,16.045 775.026,16.037 775.017,15.505 C775.017,15.473 774.751,15.401 774.736,15.416 C774.317,15.839 773.969,15.692 773.493,15.434 C773.372,15.369 772.859,15.723 772.506,15.854 C772.071,16.015 771.636,15.814 771.421,15.396 C771.373,15.302 771.254,15.156 771.170,15.157 C770.234,15.170 769.296,15.195 768.362,15.242 C767.773,15.273 767.238,15.287 766.834,14.874 C766.504,14.537 766.128,14.592 765.791,14.910 C765.761,14.938 765.512,14.900 765.505,14.873 C765.440,14.619 765.388,14.250 764.934,14.420 C764.528,14.571 763.890,14.487 763.859,14.530 C763.029,15.685 761.853,14.802 760.877,14.784 C760.406,14.775 759.917,14.426 759.506,14.170 C759.393,14.100 759.530,13.811 759.553,13.623 C759.195,13.631 758.836,13.637 758.478,13.648 C757.541,13.678 756.606,13.709 755.670,13.740 C755.382,13.749 754.977,13.674 754.828,13.785 C754.468,14.052 754.228,14.406 753.939,14.726 C753.498,14.492 753.235,14.041 752.515,14.154 C752.167,14.209 751.750,14.109 751.446,14.210 C750.350,14.577 749.408,14.490 748.552,13.856 C748.420,13.759 748.183,13.667 748.012,13.682 C747.233,13.751 746.515,13.510 745.790,13.472 C745.122,13.437 744.399,13.774 743.730,13.995 C742.952,14.253 742.259,14.285 741.649,13.776 C741.272,13.461 740.926,13.506 740.607,13.828 C740.493,13.763 740.366,13.706 740.266,13.630 C739.756,13.243 739.758,13.242 738.966,13.648 C738.158,13.752 737.337,13.348 736.525,13.677 C736.485,13.694 736.321,13.545 736.214,13.474 C736.021,13.649 735.827,13.823 735.634,13.999 C735.568,13.751 735.547,13.488 735.413,13.262 C735.363,13.179 734.925,13.107 734.871,13.156 C733.985,13.941 733.367,13.789 732.667,12.970 C732.456,12.723 731.689,12.725 731.169,12.634 C731.058,12.615 730.815,12.674 730.803,12.721 C730.503,13.909 729.558,13.184 728.972,12.991 C728.367,12.792 727.797,12.762 727.171,12.745 C726.564,12.728 725.947,12.963 725.310,12.607 C725.124,12.503 724.518,13.062 723.975,12.589 C723.653,12.308 723.220,13.084 722.600,12.618 C722.250,12.355 721.459,12.373 720.858,12.337 C720.288,12.303 719.705,12.348 719.131,12.389 C718.796,12.413 718.409,12.435 718.151,12.568 C717.803,12.748 717.762,12.716 717.656,12.435 C717.313,11.526 716.011,11.645 715.195,11.236 C714.282,11.736 713.181,11.543 712.174,11.699 C712.086,11.712 712.115,11.991 712.008,12.105 C711.728,12.401 711.637,12.249 711.563,11.993 C711.537,11.900 711.362,11.830 711.255,11.750 C710.926,12.498 710.251,11.535 709.716,11.914 C709.503,12.065 708.713,11.893 708.289,11.726 C707.942,11.590 707.770,11.461 707.503,11.760 C707.119,12.190 706.676,12.327 706.155,11.858 C706.127,11.833 705.994,11.834 705.950,11.860 C704.684,12.602 703.529,11.979 702.322,11.733 C701.878,11.643 701.226,11.608 700.908,11.784 C700.279,12.130 699.955,12.249 699.815,11.555 C699.807,11.514 699.719,11.455 699.661,11.451 C698.849,11.385 697.975,11.634 697.239,11.185 C695.989,12.027 694.938,11.176 693.916,10.882 C693.118,10.652 692.423,10.651 691.700,10.811 C689.963,11.195 689.892,11.253 688.986,10.202 C688.655,9.817 688.675,10.028 688.354,10.117 C687.924,10.237 687.396,10.211 686.918,10.182 C686.273,10.142 685.217,10.193 684.808,10.334 C684.614,10.400 684.273,10.529 684.227,10.489 C683.822,10.132 683.424,9.991 682.919,10.377 C682.289,9.916 681.719,10.435 681.117,10.451 C676.362,10.579 671.608,10.747 666.853,10.901 C666.436,10.915 666.120,10.978 665.945,10.499 C665.806,10.123 664.807,10.211 664.774,10.491 C664.667,11.398 663.779,10.941 663.316,10.980 C662.790,11.024 663.192,10.768 663.296,10.618 C663.477,10.358 663.508,10.074 662.975,10.081 C661.678,10.097 660.377,10.120 659.087,10.212 C658.198,10.275 657.457,10.057 656.777,9.716 C656.305,9.480 656.037,9.138 655.368,9.597 C655.041,9.822 654.274,9.682 653.713,9.741 C652.621,9.855 651.440,9.576 650.442,10.152 C650.304,10.232 649.963,10.241 649.816,10.171 C649.454,9.997 649.219,9.827 648.854,10.211 C648.326,10.765 647.690,10.690 647.084,10.229 C646.477,9.768 646.525,10.121 646.493,10.473 C646.478,10.633 646.304,10.802 646.144,10.926 C646.108,10.954 645.701,10.828 645.680,10.744 C645.525,10.125 645.155,10.182 644.716,10.568 C644.401,10.846 644.172,10.952 643.624,10.795 C643.379,10.725 642.897,11.189 642.474,11.333 C642.293,11.394 641.875,11.314 641.757,11.195 C641.287,10.722 640.651,10.802 640.013,10.820 C638.851,10.853 638.858,10.839 637.341,10.278 C636.902,10.115 636.429,9.693 635.920,10.259 C635.867,10.318 635.450,10.193 635.200,10.162 C634.864,10.122 634.402,9.973 634.215,10.080 C633.829,10.301 633.586,10.425 633.253,10.075 C633.172,9.991 632.956,9.864 632.950,9.868 C631.893,10.629 630.682,9.562 629.536,10.039 C629.001,10.262 628.206,10.149 627.528,10.179 C627.478,10.181 627.424,10.082 627.369,10.081 C626.596,10.061 625.824,10.049 625.051,10.035 C624.253,10.865 624.358,9.210 623.661,9.762 C622.942,9.580 622.234,9.428 621.440,9.497 C621.021,9.533 620.365,9.214 620.175,9.343 C619.640,9.705 619.339,9.579 618.918,9.294 C618.843,9.243 618.521,9.334 618.361,9.413 C617.386,9.892 616.276,9.578 615.243,9.711 C615.133,9.725 614.993,9.648 614.878,9.599 C614.453,9.420 614.258,8.868 613.476,9.272 C613.211,9.409 612.631,9.325 612.226,9.491 C612.114,9.537 611.943,9.507 611.648,9.580 C611.676,9.475 611.785,9.416 611.779,9.364 C611.764,9.227 611.699,9.092 611.654,8.957 C611.560,8.978 611.384,9.002 611.385,9.020 C611.399,9.191 611.441,9.361 611.648,9.580 ZM32.120,4.824 C32.201,4.771 32.282,4.718 32.363,4.665 C32.296,4.620 32.229,4.575 32.161,4.530 C32.099,4.595 32.028,4.657 31.981,4.727 C31.973,4.740 32.068,4.789 32.346,4.382 C32.349,4.429 32.351,4.476 32.354,4.523 C32.465,4.490 32.589,4.470 32.676,4.417 C32.702,4.401 32.623,4.292 32.593,4.226 C32.510,4.278 32.428,4.330 32.120,4.824 ZM70.154,10.595 C70.234,10.542 70.315,10.489 70.396,10.437 C70.329,10.391 70.262,10.346 70.195,10.301 C70.132,10.366 70.061,10.428 70.014,10.499 C70.006,10.511 70.102,10.560 70.379,10.153 C70.382,10.200 70.385,10.247 70.387,10.295 C70.498,10.262 70.622,10.241 70.709,10.188 C70.735,10.172 70.657,10.064 70.626,9.998 C70.544,10.049 70.461,10.101 70.154,10.595 ZM453.422,9.175 C453.198,8.948 453.068,8.815 452.937,8.683 C452.752,8.886 452.534,9.079 452.402,9.300 C452.368,9.357 452.604,9.501 452.716,9.605 C452.925,9.478 453.134,9.351 453.422,9.175 ZM104.197,9.651 C104.242,9.549 104.287,9.447 104.332,9.345 C104.149,9.298 103.911,9.174 103.793,9.219 C103.454,9.350 103.163,9.549 102.853,9.722 C103.037,9.766 103.230,9.859 103.404,9.843 C103.675,9.818 103.933,9.718 104.197,9.651 ZM630.583,8.261 C630.865,8.252 631.150,8.254 631.428,8.223 C631.482,8.217 631.510,8.083 631.549,8.008 C631.023,8.030 630.497,8.051 629.971,8.072 C630.034,8.140 630.079,8.246 630.162,8.266 C630.288,8.296 630.441,8.265 630.583,8.261 ZM233.948,5.335 C234.239,5.252 234.423,5.199 234.606,5.147 C234.410,5.082 234.220,4.978 234.017,4.963 C233.835,4.950 233.640,5.034 233.451,5.075 C233.623,5.165 233.795,5.255 233.948,5.335 ZM150.831,4.414 C151.044,4.259 151.239,4.118 151.434,3.977 C151.252,3.931 150.966,3.811 150.908,3.855 C150.752,3.973 150.687,4.159 150.610,4.324 C150.604,4.336 150.787,4.397 150.831,4.414 ZM60.083,2.397 C60.326,2.317 60.563,2.239 60.801,2.160 C60.616,2.113 60.426,2.018 60.249,2.030 C59.996,2.047 59.752,2.141 59.504,2.203 C59.680,2.262 59.857,2.321 60.083,2.397 ZM180.977,5.025 C181.213,5.042 181.408,5.073 181.596,5.059 C181.656,5.054 181.698,4.926 181.748,4.855 C181.557,4.825 181.367,4.778 181.176,4.775 C181.124,4.775 181.069,4.905 180.977,5.025 ZM44.027,9.868 C44.182,9.790 44.353,9.738 44.347,9.700 C44.326,9.560 44.247,9.425 44.189,9.288 C44.097,9.331 43.926,9.373 43.925,9.417 C43.923,9.557 43.983,9.697 44.027,9.868 ZM30.785,8.707 C30.808,8.533 30.852,8.389 30.832,8.251 C30.826,8.207 30.651,8.176 30.554,8.139 C30.513,8.280 30.451,8.420 30.446,8.560 C30.445,8.598 30.622,8.639 30.785,8.707 ZM4.742,6.635 C4.636,6.522 4.565,6.395 4.514,6.400 C4.324,6.415 4.140,6.474 3.954,6.516 C4.012,6.584 4.069,6.709 4.129,6.709 C4.318,6.712 4.509,6.667 4.742,6.635 ZM671.974,10.404 C671.997,10.230 672.040,10.086 672.020,9.948 C672.014,9.904 671.840,9.873 671.743,9.836 C671.702,9.977 671.639,10.116 671.635,10.257 C671.634,10.295 671.811,10.336 671.974,10.404 ZM452.383,7.872 C452.315,7.853 452.159,7.810 452.003,7.767 C451.959,7.856 451.854,7.959 451.885,8.031 C451.929,8.132 452.072,8.210 452.172,8.298 C452.216,8.209 452.261,8.120 452.383,7.872 ZM659.244,9.941 C659.270,9.890 659.328,9.775 659.387,9.661 C659.266,9.628 659.126,9.551 659.029,9.574 C658.891,9.606 658.785,9.711 658.666,9.785 C658.786,9.818 658.907,9.850 659.244,9.941 ZM510.711,8.337 C510.734,8.164 510.778,8.020 510.758,7.881 C510.752,7.838 510.578,7.807 510.480,7.770 C510.440,7.910 510.376,8.050 510.373,8.191 C510.371,8.229 510.548,8.270 510.711,8.337 ZM838.030,17.631 C838.090,17.672 838.140,17.706 838.191,17.740 C838.234,17.667 838.295,17.597 838.313,17.522 C838.320,17.495 838.222,17.455 838.171,17.421 C838.124,17.492 838.076,17.563 838.030,17.631 ZM833.744,21.983 C833.800,21.938 833.845,21.902 833.891,21.865 C833.793,21.832 833.698,21.788 833.595,21.775 C833.559,21.770 833.505,21.842 833.459,21.879 C833.555,21.914 833.651,21.949 833.744,21.983 ZM794.905,13.620 C794.965,13.661 795.015,13.695 795.066,13.729 C795.109,13.656 795.170,13.586 795.188,13.510 C795.194,13.484 795.097,13.444 795.046,13.410 C794.999,13.481 794.951,13.552 794.905,13.620 ZM786.342,12.738 C786.388,12.701 786.481,12.655 786.472,12.629 C786.444,12.555 786.376,12.489 786.323,12.420 C786.278,12.457 786.185,12.503 786.195,12.529 C786.222,12.603 786.290,12.669 786.342,12.738 ZM754.622,12.134 C754.711,12.094 754.802,12.053 754.894,12.012 C754.844,11.978 754.781,11.910 754.746,11.917 C754.645,11.937 754.556,11.987 754.461,12.026 C754.512,12.060 754.562,12.094 754.622,12.134 ZM701.736,9.398 C701.791,9.354 701.837,9.317 701.883,9.280 C701.785,9.247 701.690,9.203 701.587,9.190 C701.551,9.185 701.497,9.257 701.451,9.294 C701.547,9.329 701.643,9.364 701.736,9.398 ZM545.330,7.333 C545.270,7.292 545.219,7.258 545.169,7.225 C545.126,7.297 545.065,7.367 545.047,7.442 C545.041,7.469 545.138,7.509 545.188,7.543 C545.236,7.472 545.284,7.401 545.330,7.333 ZM482.189,6.936 C482.249,6.977 482.299,7.010 482.349,7.044 C482.393,6.972 482.454,6.902 482.472,6.826 C482.478,6.800 482.381,6.760 482.330,6.726 C482.282,6.797 482.235,6.868 482.189,6.936 ZM470.658,7.107 C470.704,7.070 470.796,7.024 470.786,6.998 C470.760,6.924 470.691,6.858 470.639,6.789 C470.593,6.826 470.500,6.872 470.509,6.898 C470.537,6.972 470.605,7.038 470.658,7.107 ZM464.070,8.165 C464.130,8.206 464.180,8.239 464.231,8.273 C464.274,8.201 464.335,8.131 464.353,8.055 C464.359,8.029 464.262,7.989 464.211,7.955 C464.164,8.026 464.116,8.097 464.070,8.165 ZM461.707,6.967 C461.653,6.902 461.597,6.835 461.541,6.767 C461.495,6.804 461.402,6.850 461.412,6.876 C461.439,6.950 461.508,7.016 461.560,7.085 C461.606,7.049 461.652,7.012 461.707,6.967 ZM456.921,8.147 C456.977,8.103 457.023,8.066 457.069,8.029 C456.970,7.997 456.875,7.952 456.772,7.939 C456.737,7.934 456.682,8.006 456.636,8.043 C456.732,8.078 456.829,8.113 456.921,8.147 ZM451.431,6.892 C451.485,6.957 451.541,7.024 451.598,7.092 C451.643,7.055 451.736,7.009 451.726,6.983 C451.699,6.909 451.630,6.843 451.578,6.774 C451.532,6.811 451.487,6.848 451.431,6.892 ZM562.596,8.887 C562.642,8.850 562.735,8.804 562.725,8.778 C562.698,8.704 562.629,8.638 562.577,8.568 C562.531,8.606 562.439,8.652 562.448,8.678 C562.476,8.752 562.544,8.818 562.596,8.887 ZM385.189,8.463 C385.139,8.430 385.076,8.362 385.041,8.368 C384.940,8.389 384.851,8.439 384.757,8.477 C384.807,8.511 384.870,8.579 384.905,8.572 C385.006,8.552 385.095,8.502 385.189,8.463 ZM605.660,8.278 C605.610,8.244 605.547,8.176 605.512,8.183 C605.411,8.203 605.321,8.253 605.227,8.292 C605.277,8.325 605.340,8.393 605.376,8.387 C605.476,8.367 605.566,8.316 605.660,8.278 ZM565.970,8.412 C566.059,8.372 566.150,8.331 566.242,8.290 C566.192,8.256 566.129,8.188 566.094,8.195 C565.994,8.215 565.904,8.265 565.810,8.304 C565.860,8.337 565.911,8.371 565.970,8.412 ZM373.832,7.924 C373.778,7.859 373.721,7.791 373.665,7.724 C373.620,7.761 373.527,7.807 373.537,7.833 C373.564,7.907 373.632,7.973 373.685,8.042 C373.731,8.005 373.777,7.968 373.832,7.924 ZM338.874,9.019 C338.824,8.985 338.761,8.917 338.726,8.925 C338.625,8.944 338.536,8.995 338.442,9.033 C338.492,9.067 338.554,9.135 338.590,9.128 C338.690,9.108 338.780,9.058 338.874,9.019 ZM282.435,9.474 C282.347,9.513 282.255,9.555 282.164,9.596 C282.214,9.630 282.277,9.698 282.312,9.691 C282.413,9.671 282.502,9.620 282.596,9.582 C282.546,9.548 282.496,9.514 282.435,9.474 ZM259.585,9.742 C259.531,9.677 259.476,9.609 259.419,9.542 C259.373,9.579 259.281,9.625 259.290,9.651 C259.318,9.725 259.386,9.791 259.439,9.860 C259.484,9.823 259.530,9.786 259.585,9.742 ZM240.314,9.801 C240.401,9.761 240.493,9.720 240.585,9.679 C240.535,9.645 240.472,9.577 240.437,9.584 C240.336,9.604 240.246,9.654 240.152,9.692 C240.203,9.726 240.253,9.760 240.314,9.801 ZM643.213,6.095 C643.163,6.061 643.101,5.993 643.065,6.000 C642.965,6.020 642.875,6.071 642.782,6.109 C642.831,6.143 642.894,6.211 642.930,6.204 C643.030,6.184 643.120,6.134 643.213,6.095 ZM648.219,10.076 C648.168,10.042 648.106,9.974 648.070,9.981 C647.970,10.001 647.880,10.051 647.786,10.090 C647.836,10.124 647.899,10.192 647.934,10.185 C648.035,10.165 648.125,10.114 648.219,10.076 ZM518.926,7.649 C518.872,7.584 518.816,7.517 518.760,7.449 C518.714,7.486 518.621,7.532 518.631,7.558 C518.658,7.632 518.727,7.698 518.779,7.767 C518.825,7.730 518.871,7.693 518.926,7.649 ZM152.778,4.576 C152.727,4.542 152.665,4.474 152.630,4.481 C152.529,4.501 152.439,4.552 152.345,4.590 C152.395,4.624 152.458,4.692 152.493,4.685 C152.594,4.665 152.684,4.615 152.778,4.576 ZM556.957,8.752 C557.003,8.715 557.095,8.669 557.086,8.643 C557.059,8.569 556.990,8.503 556.938,8.434 C556.892,8.471 556.800,8.517 556.809,8.543 C556.837,8.617 556.905,8.683 556.957,8.752 ZM131.251,4.209 C131.196,4.254 131.150,4.291 131.104,4.327 C131.202,4.360 131.298,4.404 131.401,4.417 C131.436,4.422 131.491,4.350 131.537,4.313 C131.440,4.278 131.344,4.243 131.251,4.209 ZM121.254,10.819 C121.342,10.779 121.434,10.738 121.525,10.697 C121.475,10.663 121.413,10.595 121.377,10.602 C121.277,10.622 121.187,10.673 121.093,10.711 C121.143,10.745 121.194,10.779 121.254,10.819 ZM575.587,7.779 C575.642,7.735 575.688,7.698 575.734,7.661 C575.636,7.629 575.541,7.584 575.438,7.571 C575.402,7.566 575.347,7.638 575.302,7.675 C575.398,7.710 575.494,7.745 575.587,7.779 ZM116.854,9.688 C116.942,9.648 117.034,9.607 117.126,9.565 C117.075,9.532 117.013,9.464 116.977,9.471 C116.877,9.491 116.787,9.541 116.693,9.580 C116.743,9.613 116.794,9.647 116.854,9.688 ZM107.824,3.607 C107.912,3.567 108.004,3.526 108.096,3.485 C108.045,3.451 107.983,3.383 107.948,3.390 C107.847,3.410 107.757,3.461 107.663,3.499 C107.713,3.533 107.763,3.566 107.824,3.607 ZM93.171,3.813 C93.217,3.776 93.310,3.730 93.300,3.704 C93.272,3.630 93.204,3.564 93.152,3.494 C93.106,3.532 93.014,3.578 93.023,3.604 C93.050,3.678 93.119,3.744 93.171,3.813 ZM84.729,4.931 C84.675,4.866 84.619,4.799 84.563,4.731 C84.517,4.768 84.425,4.814 84.434,4.840 C84.462,4.915 84.530,4.980 84.582,5.049 C84.628,5.013 84.674,4.976 84.729,4.931 ZM684.358,7.029 C684.304,6.964 684.248,6.897 684.192,6.829 C684.146,6.866 684.054,6.912 684.063,6.938 C684.090,7.012 684.159,7.078 684.211,7.147 C684.257,7.110 684.303,7.073 684.358,7.029 ZM63.610,9.241 C63.656,9.204 63.748,9.158 63.739,9.132 C63.712,9.058 63.643,8.992 63.591,8.923 C63.545,8.960 63.452,9.006 63.462,9.032 C63.489,9.106 63.558,9.172 63.610,9.241 ZM56.176,9.119 C56.265,9.079 56.356,9.038 56.448,8.997 C56.398,8.963 56.335,8.895 56.300,8.902 C56.199,8.922 56.110,8.972 56.016,9.011 C56.066,9.044 56.116,9.078 56.176,9.119 ZM36.740,1.830 C36.786,1.793 36.878,1.747 36.869,1.721 C36.841,1.647 36.773,1.581 36.721,1.512 C36.675,1.549 36.582,1.595 36.592,1.621 C36.619,1.695 36.687,1.761 36.740,1.830 ZM687.146,9.123 C687.096,9.090 687.033,9.022 686.998,9.029 C686.897,9.049 686.808,9.099 686.714,9.137 C686.764,9.172 686.827,9.240 686.862,9.232 C686.963,9.212 687.052,9.162 687.146,9.123 ZM23.350,3.496 C23.438,3.457 23.530,3.415 23.622,3.374 C23.571,3.340 23.508,3.272 23.473,3.279 C23.372,3.299 23.283,3.350 23.189,3.388 C23.239,3.422 23.289,3.456 23.350,3.496 ZM2.263,7.305 C2.323,7.346 2.373,7.379 2.423,7.413 C2.467,7.341 2.527,7.271 2.546,7.195 C2.552,7.169 2.454,7.129 2.404,7.095 C2.356,7.166 2.309,7.237 2.263,7.305 ZM739.158,13.641 C739.097,13.691 739.036,13.740 738.974,13.789 C739.063,13.836 739.147,13.888 739.243,13.922 C739.259,13.928 739.326,13.858 739.374,13.820 C739.302,13.760 739.230,13.701 739.158,13.641 ZM703.224,12.324 C703.123,12.344 703.033,12.395 702.939,12.433 C702.990,12.467 703.052,12.535 703.088,12.528 C703.188,12.508 703.278,12.458 703.372,12.419 C703.322,12.385 703.259,12.317 703.224,12.324 ZM577.175,10.005 C577.227,10.091 577.280,10.177 577.333,10.264 C577.424,10.173 577.516,10.082 577.607,9.991 C577.463,9.995 577.319,10.000 577.175,10.005 ZM401.031,5.396 C400.933,5.364 400.838,5.319 400.735,5.306 C400.699,5.301 400.645,5.373 400.599,5.410 C400.695,5.445 400.792,5.480 400.884,5.514 C400.939,5.469 400.985,5.433 401.031,5.396 ZM327.690,10.323 C327.623,10.278 327.556,10.233 327.489,10.188 C327.426,10.253 327.355,10.315 327.309,10.386 C327.301,10.398 327.396,10.447 327.448,10.482 C327.528,10.429 327.609,10.376 327.690,10.323 ZM227.633,10.403 C227.566,10.358 227.499,10.312 227.432,10.267 C227.370,10.332 227.298,10.394 227.252,10.465 C227.244,10.477 227.339,10.526 227.391,10.562 C227.472,10.509 227.553,10.456 227.633,10.403 ZM643.972,11.489 C643.922,11.456 643.859,11.388 643.824,11.395 C643.723,11.415 643.634,11.465 643.540,11.504 C643.590,11.537 643.640,11.571 643.700,11.612 C643.789,11.572 643.880,11.531 643.972,11.489 ZM524.500,5.668 C524.447,5.581 524.395,5.495 524.342,5.409 C524.251,5.500 524.159,5.591 524.068,5.682 C524.212,5.677 524.356,5.673 524.500,5.668 ZM165.775,4.630 C165.731,4.549 165.703,4.457 165.631,4.393 C165.609,4.374 165.462,4.432 165.372,4.454 C165.442,4.515 165.513,4.575 165.583,4.636 C165.647,4.634 165.712,4.632 165.775,4.630 ZM148.172,2.395 C148.071,2.416 147.982,2.466 147.888,2.504 C147.938,2.538 148.001,2.606 148.036,2.599 C148.137,2.579 148.226,2.529 148.320,2.490 C148.270,2.456 148.207,2.388 148.172,2.395 ZM147.475,2.837 C147.424,2.803 147.362,2.735 147.327,2.742 C147.226,2.762 147.136,2.812 147.042,2.851 C147.093,2.884 147.143,2.918 147.203,2.959 C147.291,2.919 147.383,2.878 147.475,2.837 ZM140.115,2.918 C140.226,2.884 140.350,2.864 140.438,2.811 C140.464,2.795 140.385,2.686 140.354,2.620 C140.272,2.672 140.189,2.724 140.107,2.776 C140.110,2.823 140.113,2.870 140.115,2.918 ZM28.713,1.614 C28.615,1.582 28.520,1.537 28.417,1.524 C28.381,1.519 28.327,1.591 28.281,1.628 C28.377,1.663 28.474,1.698 28.566,1.732 C28.621,1.688 28.667,1.651 28.713,1.614 ZM10.417,9.444 C10.316,9.464 10.227,9.514 10.133,9.553 C10.183,9.586 10.246,9.654 10.280,9.647 C10.382,9.627 10.471,9.577 10.565,9.539 C10.515,9.505 10.452,9.437 10.417,9.444 ZM3.138,8.489 C3.071,8.443 3.003,8.398 2.937,8.353 C2.874,8.418 2.803,8.480 2.756,8.551 C2.748,8.563 2.843,8.612 2.895,8.647 C2.976,8.595 3.057,8.542 3.138,8.489 ZM1.247,5.858 C1.202,5.777 1.174,5.685 1.101,5.621 C1.080,5.602 0.933,5.660 0.843,5.682 C0.913,5.743 0.983,5.804 1.054,5.864 C1.118,5.862 1.182,5.860 1.247,5.858 ZM0.430,6.681 C0.380,6.648 0.317,6.580 0.282,6.587 C0.181,6.607 0.092,6.657 -0.002,6.696 C0.048,6.729 0.098,6.763 0.158,6.804 C0.247,6.764 0.338,6.723 0.430,6.681 Z"/>
</svg>